<?xml version="1.0" encoding="UTF-8"?>
<svg id="Layer_1" xmlns="http://www.w3.org/2000/svg" viewBox="0 0 280 280">
    <defs>
      <linearGradient id='a' gradientUnits='objectBoundingBox' x1='0' y1='0' x2='1' y2='1'>
         <stop offset='0' stop-color='red'>
            <animate attributeName="stop-color"
               values="red;purple;blue;green;yellow;orange;red;" dur="20s" repeatCount="indefinite">
            </animate>
         </stop>
         <stop offset='.5' stop-color='purple'>
            <animate attributeName="stop-color"
               values="purple;blue;green;yellow;orange;red;purple;" dur="20s" repeatCount="indefinite">
            </animate>
         </stop>
         <stop offset='1' stop-color='blue'>
            <animate attributeName="stop-color"
               values="blue;green;yellow;orange;red;purple;blue;" dur="20s" repeatCount="indefinite">
            </animate>
         </stop>
         <animateTransform attributeName="gradientTransform" type="rotate" from="0 .5 .5" to="360 .5 .5"
            dur="20s" repeatCount="indefinite" />
      </linearGradient>
      <linearGradient id='b' gradientUnits='objectBoundingBox' x1='0' y1='1' x2='1' y2='1'>
         <stop offset='0' stop-color='red'>
            <animate attributeName="stop-color"
               values="red;purple;blue;green;yellow;orange;red;" dur="20s" repeatCount="indefinite">
            </animate>
         </stop>
         <stop offset='1' stop-color='purple' stop-opacity="0">
            <animate attributeName="stop-color"
               values="purple;blue;green;yellow;orange;red;purple;" dur="20s" repeatCount="indefinite">
            </animate>
         </stop>
         <animateTransform attributeName="gradientTransform" type="rotate" values="360 .5 .5;0 .5 .5" class="ignore"
            dur="10s" repeatCount="indefinite" />
      </linearGradient>
   <style>.cls-1{fill:#fff;}.cls-2{fill:#aaa;}</style>
  </defs>
  <path class="circle" fill='url(#a)' stroke="url(#a)" d="m140,280c-37.39,0-72.55-14.56-98.99-41.01C14.57,212.55,0,177.39,0,140S14.56,67.45,41.01,41.01C67.45,14.57,102.6,0,140,0s72.55,14.56,98.99,41.01c26.44,26.45,41.01,61.6,41.01,98.99s-14.56,72.55-41.01,98.99c-26.45,26.44-61.6,41.01-98.99,41.01"/>
  <path class="circle" fill='url(#b)' stroke="url(#b)" d="m140,280c-37.39,0-72.55-14.56-98.99-41.01C14.57,212.55,0,177.39,0,140S14.56,67.45,41.01,41.01C67.45,14.57,102.6,0,140,0s72.55,14.56,98.99,41.01c26.44,26.45,41.01,61.6,41.01,98.99s-14.56,72.55-41.01,98.99c-26.45,26.44-61.6,41.01-98.99,41.01"/>
  <path fill="#000000" d="m95.86,220.87h4.15v9.4c0,1.29-.28,2.5-.84,3.58-.56,1.08-1.35,1.96-2.35,2.6-1,.64-2.16.96-3.43.96h.01c-1.27.01-2.42-.31-3.43-.95-1-.63-1.8-1.51-2.36-2.6-.56-1.08-.84-2.29-.84-3.58v-9.4h4.15v9.4c0,.56.1,1.07.31,1.52.2.44.48.78.86,1.04.37.26.79.37,1.31.37s.95-.12,1.31-.37c.37-.26.64-.59.84-1.03.2-.45.3-.97.3-1.54v-9.4Zm121.26,0v8.21l-4.84-8.21h-4.22v16.27h4.15v-8.21l4.84,8.21h4.22v-16.27h-4.15Zm-37.25,16.27h10.58v-4.21h-6.42v-2.37h4.95v-4.21h-4.95v-1.28h6.42v-4.21h-10.58v16.27Zm-18.58-12.22c.72,1.24,1.09,2.61,1.09,4.07s-.36,2.84-1.09,4.07c-.72,1.24-1.7,2.23-2.93,2.96-1.23.73-2.58,1.1-4.03,1.1h-5.48v-16.26h5.48c1.45,0,2.8.37,4.03,1.1,1.22.73,2.21,1.72,2.93,2.96m-3.07,4.09c0-.71-.18-1.36-.53-1.96-.35-.6-.83-1.09-1.43-1.44-.6-.36-1.23-.53-1.93-.53h-1.33v7.86h1.33c.69,0,1.34-.18,1.93-.53.59-.35,1.07-.83,1.43-1.43.35-.59.53-1.26.53-1.97m-27.95-4.09c.72,1.24,1.09,2.61,1.09,4.07s-.36,2.84-1.09,4.07c-.72,1.24-1.7,2.23-2.93,2.96-1.22.73-2.58,1.1-4.03,1.1h-5.48s0-16.26,0-16.26h5.48c1.45,0,2.8.37,4.03,1.1,1.22.73,2.2,1.72,2.93,2.96m-3.07,4.09c0-.71-.18-1.36-.53-1.96-.35-.6-.83-1.09-1.43-1.44-.59-.35-1.24-.53-1.93-.53h-1.33v7.86h1.33c.69,0,1.34-.18,1.93-.53.59-.35,1.07-.83,1.42-1.43.35-.59.53-1.26.53-1.97m-63.56-8.14h-4.15v16.27h10.12v-4.2h-5.96v-12.07Zm35.81-8.09h33.44l7.49-10.39h-33.49l10.46-14.62h33.56l41.16-57.13v82.15h29.2V42.57l-121.83,170.21Zm63.94-10.39v-14.62h-12.48l-10.53,14.62h23.02Z"/>
  <path fill="#ffffff" d="m140,280c-37.4,0-72.55-14.56-98.99-41.01C14.56,212.54,0,177.39,0,140S14.56,67.45,41.01,41.01C67.46,14.56,102.61,0,140,0s72.55,14.56,98.99,41.01c26.44,26.45,41.01,61.61,41.01,98.99s-14.56,72.55-41.01,98.99c-26.45,26.44-61.61,41.01-98.99,41.01m0-275.84c-36.28,0-70.39,14.13-96.05,39.79C18.29,69.6,4.16,103.71,4.16,140s14.13,70.39,39.79,96.05c25.65,25.66,59.77,39.79,96.05,39.79s70.39-14.13,96.05-39.79c25.66-25.65,39.79-59.76,39.79-96.05s-14.13-70.39-39.79-96.05c-25.65-25.66-59.77-39.79-96.05-39.79m-75.84,216.19h-5.21v17.32h11.17v-5.26h-5.96v-12.06Zm4.91,13.12v3.15h-9.06v-15.21h3.1v12.06h5.96Zm26.26-3.2c0,.51-.09.95-.25,1.33-.16.35-.36.61-.65.81-.56.38-1.47.38-2.03,0-.3-.2-.51-.46-.67-.82-.18-.38-.26-.82-.26-1.3v-9.93h-5.21v9.93c0,1.38.3,2.67.9,3.82.6,1.17,1.46,2.12,2.55,2.81,1.1.69,2.35,1.04,3.71,1.04h1.3s-.1-.11-.1-.11c.91-.15,1.74-.46,2.5-.95,1.08-.69,1.94-1.64,2.54-2.8.6-1.15.9-2.44.9-3.83v-9.93h-5.21v9.93Zm.71,1.76c.23-.51.35-1.11.35-1.76v-8.87h3.1v8.87c0,1.22-.26,2.34-.78,3.34-.52,1-1.25,1.81-2.17,2.4-.91.58-1.97.88-3.14.88h-.34c-1.02-.05-1.96-.34-2.79-.87-.93-.59-1.66-1.4-2.17-2.4-.52-1.01-.79-2.13-.79-3.34v-8.88h3.1v8.88c0,.64.12,1.22.36,1.74.24.54.58.95,1.04,1.26.46.31.98.46,1.6.46s1.16-.15,1.61-.46c.46-.31.79-.72,1.02-1.25m83.3,5.64h11.64v-5.26h-6.42v-1.32h4.95v-5.26h-4.95v-.22h6.42v-5.26h-11.64v17.32Zm1.06-16.27h9.52v3.15h-6.42v2.34h4.95v3.15h-4.95v3.43h6.42v3.15h-9.52v-15.21Zm-40.03-66.71L58.95,40.92v172.4h30.26v-81.05l33.72,46.79-24.51,34.24h34.74l7.22-10.01,7.22,10.01h34.74l-18.41-25.72v-.35h-.25l-5.85-8.17,33.72-46.8v81.05h30.26V40.92l-81.43,113.76Zm-16.8,25.28l5.24,7.27h-10.44l5.2-7.27Zm9.04,32.28h-32.14l6.68-9.33h32.19l-6.72,9.33Zm-1.74-23.95h19l-9.5,13.19-9.5-13.19Zm31.98,0v13.56h-21.46l9.77-13.56h11.68Zm57.88,23.97h-28.15v-83.26l-35.42,49.16-16.15-22.57,79.72-111.38v168.05Zm-58.99,12.4c-.77-1.31-1.81-2.37-3.11-3.14-1.32-.78-2.76-1.17-4.3-1.17h-6.01v17.31h6.01c1.55,0,3-.39,4.3-1.17,1.3-.77,2.34-1.83,3.11-3.14.77-1.31,1.16-2.78,1.16-4.34s-.39-3.02-1.16-4.34h0Zm-.91,8.15c-.68,1.16-1.6,2.09-2.74,2.77-1.14.68-2.41,1.02-3.76,1.02h-4.95v-15.2h4.95c1.34,0,2.61.34,3.76,1.02,1.14.68,2.06,1.61,2.74,2.77.67,1.16,1.02,2.44,1.02,3.81s-.34,2.66-1.01,3.81m-4.3-7.65c-.68-.41-1.4-.6-2.2-.6h-1.85v8.92h2.38v-.04c.59-.07,1.15-.26,1.67-.57.67-.4,1.22-.94,1.61-1.62.4-.67.6-1.43.6-2.24s-.2-1.55-.6-2.23c-.4-.68-.94-1.23-1.61-1.62m.7,5.55c-.31.52-.73.94-1.24,1.25-.51.3-1.07.45-1.67.45h-.8s0-6.8,0-6.8h.8c.61,0,1.15.15,1.66.46.52.31.94.73,1.24,1.25.31.52.45,1.08.45,1.69s-.15,1.19-.45,1.7m59.34-3.57l-4.01-6.8h-5.05v17.32h5.21v-6.8l4.01,6.8h5.05v-17.32h-5.21v6.8Zm1.06-5.74h3.1v15.21h-3.39l-5.67-9.61v9.61h-3.1v-15.21h3.39l5.67,9.61v-9.61Zm-86.92,3.26c-.77-1.32-1.81-2.37-3.11-3.14-1.32-.78-2.77-1.17-4.3-1.17h-6.01v16.8h.53v.51h5.48c1.56,0,3-.39,4.3-1.17,1.3-.77,2.34-1.83,3.11-3.14.77-1.31,1.16-2.78,1.16-4.34s-.39-3.02-1.16-4.34h0Zm-.91,8.15c-.68,1.16-1.6,2.09-2.74,2.77-1.13.68-2.4,1.02-3.76,1.02h-4.95v-15.2h4.95c1.34,0,2.61.34,3.76,1.02,1.14.68,2.06,1.61,2.74,2.77.67,1.16,1.01,2.44,1.01,3.81s-.34,2.66-1.01,3.81m-4.31-7.65c-.67-.4-1.41-.6-2.2-.6h-1.85v8.92h2.07s0-.01,0-.01c.7-.03,1.37-.23,1.99-.59.68-.4,1.22-.95,1.61-1.62.4-.68.6-1.43.6-2.24s-.2-1.55-.6-2.23c-.4-.68-.94-1.23-1.62-1.63m.7,5.56c-.3.51-.72.93-1.23,1.24-.51.3-1.07.45-1.66.45h-.8s0-6.8,0-6.8h.8c.6,0,1.16.15,1.66.46.52.31.94.73,1.24,1.25.31.52.46,1.08.46,1.7s-.15,1.19-.46,1.7"/>
</svg>
