<?xml version="1.0" encoding="utf-8"?>
<!-- Generator: Adobe Illustrator 28.0.0, SVG Export Plug-In . SVG Version: 6.00 Build 0)  -->
<svg version="1.1" id="Layer_1" xmlns="http://www.w3.org/2000/svg" xmlns:xlink="http://www.w3.org/1999/xlink" x="0px" y="0px"
	 viewBox="0 0 640 640" style="enable-background:new 0 0 640 640;" xml:space="preserve">
	 <defs>
		<linearGradient id='a' gradientUnits='objectBoundingBox' x1='0' y1='0' x2='1' y2='1'>
			<stop offset='0' stop-color='#ff00ff'>
				<animate attributeName="stop-color"
					values="#ff00ff;#af00ff;#5f00ff;0000ff;#0088ff;#00ffff;#00ff00;#ffff00;#ff8800;#ff0000;#ff00ff;" dur="30s" repeatCount="indefinite">
				</animate>
			</stop>
			<stop offset='.5' stop-color='#af00ff'>
				<animate attributeName="stop-color"
					values="#af00ff;#5f00ff;0000ff;#0088ff;#00ffff;#00ff00;#ffff00;#ff8800;#ff0000;#ff00ff;#af00ff;" dur="15s" repeatCount="indefinite">
				</animate>
			</stop>
			<stop offset='1' stop-color='orange'>
				<animate attributeName="stop-color"
					values="#5f00ff;0000ff;#0088ff;#00ffff;#00ff00;#ffff00;#ff8800;#ff0000;#ff00ff;#af00ff;#5f00ff;" dur="5s" repeatCount="indefinite">
				</animate>
			</stop>
			<animateTransform attributeName="gradientTransform" type="rotate" from="0 .5 .5" to="360 .5 .5"
				dur="20s" repeatCount="indefinite" />
		</linearGradient>
		<linearGradient id='b' gradientUnits='objectBoundingBox' x1='0' y1='1' x2='1' y2='1'>
		   <stop offset='0' stop-color='#ff00ff'>
			  <animate attributeName="stop-color"
				 values="#ff00ff;#af00ff;#5f00ff;0000ff;#0088ff;#00ffff;#00ff00;#ffff00;#ff8800;#ff0000;#ff00ff;" dur="30s" repeatCount="indefinite">
			  </animate>
		   </stop>
		   <stop offset='1' stop-color='#af00ff' stop-opacity="0">
			  <animate attributeName="stop-color"
				 values="#af00ff;#5f00ff;0000ff;#0088ff;#00ffff;#00ff00;#ffff00;#ff8800;#ff0000;#ff00ff;#af00ff" dur="15s" repeatCount="indefinite">
			  </animate>
		   </stop>
		  <animateTransform attributeName="gradientTransform" type="rotate" values="360 .5 .5;0 .5 .5" class="ignore"
			 dur="10s" repeatCount="indefinite" />
		</linearGradient>
	<style>
		.white {
			stroke-width: 0px;
			fill: #fff;
		}
	</style>
	</defs>
	<path id="gradient" fill="url(#a)" d="M608.8,627.5H31.2c-10.3,0-18.7-8.4-18.7-18.7V31.2c0-10.3,8.4-18.7,18.7-18.7h577.6
		c10.3,0,18.7,8.4,18.7,18.7v577.6C627.5,619.1,619.1,627.5,608.8,627.5z"/>
	<path id="black" d="M481.9,89.7h1.4L320.5,317.2l-0.6-0.8l0.6,0.8L483.3,89.7v344.7h-60.4v-162L356,365.3l-1.2-1.8l70.4-97.5v166.5
		h56.4v-336L471.2,111l-149,207.2l-36.9,47.2l-67.1-93.1v162h-60.4V434h-1V87.1l163.8,228.7l-0.6,0.8L191.1,136.4l-33.5-46.6
		l33.5,46.6l128.8,180.1l0.6,0.8l0.6-0.8l-0.6-0.8L481.9,89.7z M318.3,413.6H254l-13.4,18.7h64.3L318.3,413.6z M365.3,384.4
		L365.3,384.4v27.2h-43l-2-0.8l-2,2.8l-13.4,18.7l-68.3,2h69.5l14.4-20.1l14.4,20.1h69.5L365.3,384.4z M339.4,384.4h-21.3h20.5
		l-18.2,24.7l-18.2-24.7h-0.6l19.1,26.4L339.4,384.4z M276.5,382.3h20.9l-10.5-14.6L276.5,382.3z M302.3,384.4L302.3,384.4h16H302.3z
		M365.3,384.4H342l-19.5,27.2h43v-27.2H365.3z M404.4,434.4L404.4,434.4l0.6-0.8l-49-68.5l-0.6,0.8L404.4,434.4z M285.2,365.5
		L236,434l0.6,0.4l49.1-68.5L285.2,365.5z M354,364.1l0.6-0.8l70.4-97.5v166.5h56.4V96.4L471,111L322.3,318.3l-0.4,0.6L354,364.1z
		M225,471.3l6.9,11.8H221l-4.5-7.7v7.7H207v-29.6h12.4c1.8,0,3.4,0.4,4.9,1.4c1.4,0.8,2.6,2,3.4,3.6c0.8,1.4,1.2,3,1.2,4.9
		c0,2-0.6,3.9-1.4,5.5C226.6,469.7,225.8,470.5,225,471.3 M219.3,462.8v-0.4c0-0.2-0.2-0.2-0.2-0.2h-0.2h-2.6v1.4h2.2h0.2
		c0.2,0,0.2-0.2,0.2-0.2C219.3,463.2,219.3,463,219.3,462.8 M186.9,465.5h-13.8v8.5h-0.6c-0.8,0-1.8-0.2-2.4-0.8
		c-0.8-0.4-1.4-1.2-1.8-2s-0.8-1.8-0.8-2.8c0-1.2,0.2-2.2,0.8-3c0.4-0.8,1.2-1.6,2-2s1.6-0.6,2.4-0.6c0.6,0,1.2,0.2,1.8,0.4
		s1.2,0.8,1.8,1.4l1,1.2l8.3-4.5l-1.4-1.8c-1.6-2-3.2-3.6-5.3-4.5c-2-1-4.1-1.4-6.3-1.4c-2.4,0-4.9,0.6-7.3,2c-2.2,1.2-4.1,3-5.5,5.5
		c-1.4,2.2-2,4.9-2,7.9c0,2.6,0.6,5.3,1.8,7.7c1.2,2.4,3,4.3,5.3,5.7c2.2,1.4,4.7,2,7.5,2c2.6,0,5.1-0.6,7.5-2
		c2.2-1.4,4.1-3.2,5.3-5.7c1.2-2.2,2-4.9,2-7.7v-0.8L186.9,465.5z M319.1,460.8c1.4,2.2,2,4.7,2,7.5s-0.6,5.1-2,7.5
		c-1.2,2.2-3,4.1-5.3,5.3c-2.2,1.4-4.7,2-7.5,2h-10.5v-29.6h10.5c2.6,0,5.1,0.6,7.5,2C315.8,456.7,317.7,458.6,319.1,460.8
		M311.6,468.3c0-1-0.2-1.8-0.8-2.6c-0.4-0.8-1.2-1.4-2-2c-0.8-0.4-1.6-0.6-2.6-0.6h-1v10.5h1c1,0,1.8-0.2,2.6-0.6s1.4-1,2-2
		C311.2,470.1,311.6,469.3,311.6,468.3 M428,463.8l-6.1-10.3h-9.1v29.6h9.5v-10.3l6.1,10.3h9.1v-29.6H428V463.8z M267,453.5
		l10.7,29.6h-10.1l-1.4-4.1h-7.3l-1.4,4.1h-10.1l10.7-29.6H267z M262.5,469.5l-0.2-0.6l-0.2,0.6H262.5z M457.2,463h7.3v20.1h9.5V463
		h7.3v-9.5h-24.1V463z M372.2,483.1h20.3v-9.5h-10.7v-1.4h8.3V463h2.4v-9.5h-20.3V483.1z M341.4,483.1h9.5v-29.6h-9.5V483.1z"/>
	<path id="white" class="white" d="M612.1,0H27.9C12.5,0,0,12.5,0,27.9v584.3C0,627.5,12.5,640,27.9,640h584.3
		c15.4,0,27.9-12.5,27.9-27.9V27.9C640,12.5,627.5,0,612.1,0z M627.5,608.6c0,10.4-8.5,18.9-18.9,18.9H31.4
		c-10.4,0-18.9-8.5-18.9-18.9V31.4c0-10.4,8.5-18.9,18.9-18.9h577.2c10.4,0,18.9,8.5,18.9,18.9V608.6z M320.5,317.2L320.5,317.2
		L157.7,89.7v344.7h60.4v-162l67.5,93.5l-49.1,68.5H306l14.4-20.1l14.4,20.1h69.5l-49.1-68.5l67.5-93.5v162h60.4V89.7L320.5,317.2z
		M286.8,367.7l10.5,14.6h-20.9L286.8,367.7z M304.9,432.2L304.9,432.2h-64.3l13.4-18.7h64.3L304.9,432.2z M320.5,410.7l-19.1-26.4
		h37.9L320.5,410.7z M365.3,384.4v27.2h-43l19.5-27.2H365.3z M481.1,96.4v336h-56.4V265.9L354,364.3l-32.2-45.2L481.1,96.4z
		M259.3,455.5L250,481h5.9l1.4-4.1h10.1l1.4,4.1h5.9l-9.3-25.5H259.3z M259.3,471.5l3-8.5l3,8.5H259.3z M184.9,467.5v0.6
		c0,2.4-0.6,4.7-1.6,6.7c-1.2,2-2.6,3.6-4.5,4.9c-1.8,1.2-4.1,1.8-6.3,1.8c-2.4,0-4.5-0.6-6.3-1.8c-1.8-1.2-3.4-2.8-4.5-4.9
		c-1-2-1.6-4.3-1.6-6.7c0-2.4,0.6-4.9,1.8-6.7c1.2-1.8,2.8-3.6,4.7-4.7c1.8-1,4.1-1.6,6.3-1.6c1.8,0,3.6,0.4,5.3,1.2
		c1.6,0.8,3.2,2.2,4.7,4.1L178,463c-0.8-0.8-1.6-1.4-2.4-1.8s-1.8-0.6-2.6-0.6c-1.2,0-2.4,0.4-3.4,1s-2,1.6-2.6,2.8
		c-0.6,1.2-1,2.6-1,4.1c0,1.4,0.4,2.6,1,3.9c0.6,1.2,1.4,2,2.6,2.8s2.2,1,3.6,1c1.2,0,2.2-0.4,3.4-1c1-0.6,2-1.6,2.6-2.8h-3.4v-4.7
		h9.1L184.9,467.5L184.9,467.5z M225.6,467.7c0.8-1.2,1.2-2.8,1.2-4.5c0-1.4-0.4-2.6-1-3.9s-1.6-2.2-2.6-2.8c-1.2-0.6-2.4-1-3.9-1
		H209V481h5.3v-9.9h2l5.7,9.9h6.3l-6.1-10.3C223.6,469.9,224.8,468.9,225.6,467.7 M221,464.2c-0.2,0.4-0.6,0.8-1,1s-0.8,0.4-1.4,0.4
		h-4.3v-5.5h4.3c0.4,0,1,0.2,1.4,0.4s0.8,0.6,1,1s0.4,0.8,0.4,1.4C221.4,463.4,221.2,463.8,221,464.2 M430,455.5h5.5V481h-5.9
		l-9.3-15.6V481h-5.5v-25.5h5.9l9.3,15.6V455.5z M459.2,455.5h20.1v5.5H472v20.1h-5.5V461h-7.3V455.5z M374.2,455.5h16.2v5.5h-10.7
		v3.6h8.3v5.5h-8.3v5.5h10.7v5.5h-16.2V455.5z M312.6,457.1c-2-1.2-4.1-1.8-6.5-1.8h-8.5v25.5h8.5c2.2,0,4.5-0.6,6.5-1.8
		s3.4-2.6,4.7-4.7c1.2-2,1.6-4.1,1.6-6.5s-0.6-4.5-1.6-6.5C316,460,314.6,458.4,312.6,457.1 M312.6,472c-0.6,1.2-1.6,2-2.6,2.6
		c-1.2,0.6-2.2,1-3.6,1h-3V461h3c1.2,0,2.4,0.4,3.6,1c1.2,0.6,2,1.6,2.6,2.6c0.6,1.2,1,2.4,1,3.6C313.6,469.5,313.2,470.7,312.6,472
		M343.4,455.5h5.5V481h-5.5V455.5z"/>
</svg>
