<?xml version="1.0" encoding="utf-8"?>
<!-- Generator: Adobe Illustrator 27.9.0, SVG Export Plug-In . SVG Version: 6.00 Build 0)  -->
<svg version="1.1" id="Layer_1" xmlns="http://www.w3.org/2000/svg"
	xmlns:xlink="http://www.w3.org/1999/xlink" x="0px" y="0px"
	viewBox="0 0 280 280" style="enable-background:new 0 0 280 280;" xml:space="preserve">
	<defs>
		<linearGradient id='a' gradientUnits='objectBoundingBox' x1='0' y1='0' x2='1' y2='1'>
			<stop offset='0' stop-color='#ff00ff'>
				<animate attributeName="stop-color"
					values="#ff00ff;#af00ff;#5f00ff;0000ff;#0088ff;#00ffff;#00ff00;#ffff00;#ff8800;#ff0000;#ff00ff;" dur="30s" repeatCount="indefinite">
				</animate>
			</stop>
			<stop offset='.5' stop-color='#af00ff'>
				<animate attributeName="stop-color"
					values="#af00ff;#5f00ff;0000ff;#0088ff;#00ffff;#00ff00;#ffff00;#ff8800;#ff0000;#ff00ff;#af00ff;" dur="15s" repeatCount="indefinite">
				</animate>
			</stop>
			<stop offset='1' stop-color='orange'>
				<animate attributeName="stop-color"
					values="#5f00ff;0000ff;#0088ff;#00ffff;#00ff00;#ffff00;#ff8800;#ff0000;#ff00ff;#af00ff;#5f00ff;" dur="5s" repeatCount="indefinite">
				</animate>
			</stop>
			<animateTransform attributeName="gradientTransform" type="rotate" from="0 .5 .5" to="360 .5 .5"
				dur="20s" repeatCount="indefinite" />
		</linearGradient>
		<linearGradient id='b' gradientUnits='objectBoundingBox' x1='0' y1='1' x2='1' y2='1'>
			<stop offset='0' stop-color='#ff00ff'>
				<animate attributeName="stop-color"
					values="#ff00ff;#af00ff;#5f00ff;0000ff;#0088ff;#00ffff;#00ff00;#ffff00;#ff8800;#ff0000;#ff00ff;" dur="30s" repeatCount="indefinite">
				</animate>
			</stop>
			<stop offset='1' stop-color='#af00ff' stop-opacity="0">
				<animate attributeName="stop-color"
					values="#af00ff;#5f00ff;0000ff;#0088ff;#00ffff;#00ff00;#ffff00;#ff8800;#ff0000;#ff00ff;#af00ff" dur="15s" repeatCount="indefinite">
				</animate>
			</stop>
			<animateTransform attributeName="gradientTransform" type="rotate" values="360 .5 .5;0 .5 .5" class="ignore"
				dur="10s" repeatCount="indefinite" />
		</linearGradient>
	</defs>
	<style type="text/css">
		.white{fill:#FFFFFF;}
		.black{fill:#000000;}
	</style>
	<circle cx="140" cy="140" r="140"/>
	<circle class="circle" fill="url(#a)" cx="140" cy="140" r="138"/>
	<circle class="circle" fill="url(#b)" cx="140" cy="140" r="140"/>
	<path id="black" class="black" d="M220,42.3h0.7l-80.3,112.2l0,0l-0.3-0.4l0.3,0.4l0,0l0,0l0,0l80.3-112.2v170h-29.8v-79.9l-33,45.8l-0.6-0.9
		l34.7-48.1v82.1h0v0h27.8v0V45.6l0,0v0l-5.1,7.2L141.2,155L123,178.3l0,0l-33.1-45.9v79.9H60.1v-0.2h-0.5V41l80.8,112.8l-0.3,0.4
		L76.6,65.3l-16.5-23v0l16.5,23l63.5,88.8l0,0l0.3,0.4l0.3-0.4l-0.3-0.4L220,42.3z M278,140L278,140c0,76.1-61.9,138-138,138
		S2,216.1,2,140S63.9,2,140,2S278,63.9,278,140z M274,140c0-35.8-13.9-69.4-39.2-94.7C209.4,20,175.8,6,140,6S70.6,20,45.3,45.3
		C20,70.6,6,104.2,6,140s13.9,69.4,39.2,94.7C70.6,260,104.2,274,140,274s69.4-13.9,94.7-39.2C260,209.4,274,175.8,274,140z
		M93.4,237.4L93.4,237.4C93.4,237.4,93.4,237.4,93.4,237.4C93.4,237.4,93.4,237.4,93.4,237.4z M139.3,202h-31.7l-6.6,9.2h31.7l0,0
		L139.3,202z M280,140c0,77.2-62.8,140-140,140S0,217.2,0,140S62.8,0,140,0S280,62.8,280,140L280,140z M278.1,140
		c0-36.9-14.4-71.5-40.4-97.6S176.9,1.9,140,1.9c-36.9,0-71.5,14.4-97.6,40.4C16.3,68.5,1.9,103.1,1.9,140
		c0,36.9,14.4,71.5,40.4,97.6c26.1,26.1,60.7,40.4,97.6,40.4c36.9,0,71.5-14.4,97.6-40.4S278.1,176.9,278.1,140z M162.5,187.6
		L162.5,187.6l0,13.4h-21.2l0,0h0l-1-0.4l0,0l0,0h0l-1,1.4l0,0h0l-6.6,9.2h0h0l-33.7,1l0,0h34.3l7.1-9.9l7.1,9.9h34.3l0,0
		L162.5,187.6L162.5,187.6z M149.7,187.6h-10.5l10.1,0h0l-9,12.2l-9-12.2H131h0l9.4,13l0,0L149.7,187.6z M118.7,186.6H129l-5.2-7.2
		L118.7,186.6z M131.4,187.6L131.4,187.6l7.9,0L131.4,187.6z M162.5,187.6H151l-9.6,13.4h21.2V187.6z M181.8,212.3L181.8,212.3
		l0.3-0.4l-24.2-33.8l-0.3,0.4L181.8,212.3z M123,178.3l-24.3,33.8l0.3,0.2h0l24.2-33.8L123,178.3z M156.9,177.6l0.3-0.4l0,0
		l34.7-48.1v0l0,0v82.1h27.8V45.6l-5.1,7.2L141.3,155l0,0l-0.2,0.3L156.9,177.6z M93.3,230.5l3.4,5.8h-5.4l-2.2-3.8v3.8h-4.7v-14.6
		h6.1c0.9,0,1.7,0.2,2.4,0.7c0.7,0.4,1.3,1,1.7,1.8c0.4,0.7,0.6,1.5,0.6,2.4c0,1-0.3,1.9-0.7,2.7C94.1,229.7,93.7,230.1,93.3,230.5z
		M90.5,226.3c0-0.1,0-0.1,0-0.2c0-0.1-0.1-0.1-0.1-0.1c0,0-0.1,0-0.1,0H89v0.7h1.1c0,0,0.1,0,0.1,0c0.1,0,0.1-0.1,0.1-0.1
		C90.5,226.5,90.5,226.4,90.5,226.3z M74.5,227.6h-6.8v4.2c-0.1,0-0.2,0-0.3,0c-0.4,0-0.9-0.1-1.2-0.4c-0.4-0.2-0.7-0.6-0.9-1
		c-0.2-0.4-0.4-0.9-0.4-1.4c0-0.6,0.1-1.1,0.4-1.5c0.2-0.4,0.6-0.8,1-1c0.4-0.2,0.8-0.3,1.2-0.3c0.3,0,0.6,0.1,0.9,0.2
		c0.3,0.1,0.6,0.4,0.9,0.7l0.5,0.6l4.1-2.2l-0.7-0.9c-0.8-1-1.6-1.8-2.6-2.2c-1-0.5-2-0.7-3.1-0.7c-1.2,0-2.4,0.3-3.6,1
		c-1.1,0.6-2,1.5-2.7,2.7c-0.7,1.1-1,2.4-1,3.9c0,1.3,0.3,2.6,0.9,3.8c0.6,1.2,1.5,2.1,2.6,2.8c1.1,0.7,2.3,1,3.7,1
		c1.3,0,2.5-0.3,3.7-1c1.1-0.7,2-1.6,2.6-2.8c0.6-1.1,1-2.4,1-3.8c0-0.2,0-0.3,0-0.4L74.5,227.6z M139.7,225.3c0.7,1.1,1,2.3,1,3.7
		s-0.3,2.5-1,3.7c-0.6,1.1-1.5,2-2.6,2.6c-1.1,0.7-2.3,1-3.7,1h-5.2v-14.6h5.2c1.3,0,2.5,0.3,3.7,1
		C138.1,223.3,139,224.2,139.7,225.3z M136,229c0-0.5-0.1-0.9-0.4-1.3c-0.2-0.4-0.6-0.7-1-1c-0.4-0.2-0.8-0.3-1.3-0.3h-0.5v5.2h0.5
		c0.5,0,0.9-0.1,1.3-0.3c0.4-0.2,0.7-0.5,1-1C135.8,229.9,136,229.5,136,229z M193.4,226.8l-3-5.1h-4.5v14.6h4.7v-5.1l3,5.1h4.5
		v-14.6h-4.7V226.8z M114,221.7l5.3,14.6h-5l-0.7-2h-3.6l-0.7,2h-5l5.3-14.6H114z M111.8,229.6l-0.1-0.3l-0.1,0.3H111.8z
		M207.8,226.4h3.6v9.9h4.7v-9.9h3.6v-4.7h-11.9V226.4z M165.9,236.3h10v-4.7h-5.3v-0.7h4.1v-4.5h1.2v-4.7h-10V236.3z M150.7,236.3
		h4.7v-14.6h-4.7V236.3z"/>
	<path id="white" class="white" d="M237.6,42.4C211.5,16.3,176.9,1.9,140,1.9c-36.9,0-71.5,14.4-97.6,40.4C16.3,68.5,1.9,103.1,1.9,140
		c0,36.9,14.4,71.5,40.4,97.6c26.1,26.1,60.7,40.4,97.6,40.4c36.9,0,71.5-14.4,97.6-40.4s40.4-60.8,40.4-97.6S263.7,68.5,237.6,42.4z
		M234.7,234.7C209.4,260,175.8,274,140,274S70.6,260,45.3,234.7C20,209.4,6,175.8,6,140S20,70.6,45.3,45.3C70.6,20,104.2,6,140,6
		s69.4,13.9,94.7,39.2C260,70.6,274,104.2,274,140S260,209.4,234.7,234.7z M140.4,154.5L140.4,154.5L60.1,42.3v170h29.8v-79.9
		l33.3,46.1L99,212.3h34.3l7.1-9.9l7.1,9.9h34.3l-24.2-33.8l33.3-46.1v79.9h29.8v-170L140.4,154.5L140.4,154.5z M123.8,179.4l5.2,7.2
		h-10.3L123.8,179.4z M132.7,211.2L132.7,211.2H101l6.6-9.2h31.7L132.7,211.2z M140.4,200.6l-9.4-13h0h18.7L140.4,200.6z
		M162.5,187.6V201h-21.2l9.6-13.4H162.5z M219.6,45.6v165.7v0h-27.8v-82.1l-34.9,48.5L141,155.4L219.6,45.6z M110.2,222.7l-4.6,12.6
		h2.9l0.7-2h5l0.7,2h2.9l-4.6-12.6H110.2z M110.2,230.6l1.5-4.2l1.5,4.2H110.2z M73.5,228.6c0,0.1,0,0.2,0,0.3c0,1.2-0.3,2.3-0.8,3.3
		c-0.6,1-1.3,1.8-2.2,2.4c-0.9,0.6-2,0.9-3.1,0.9c-1.2,0-2.2-0.3-3.1-0.9c-0.9-0.6-1.7-1.4-2.2-2.4s-0.8-2.1-0.8-3.3
		c0-1.2,0.3-2.4,0.9-3.3s1.4-1.8,2.3-2.3s2-0.8,3.1-0.8c0.9,0,1.8,0.2,2.6,0.6c0.8,0.4,1.6,1.1,2.3,2l-2.4,1.3
		c-0.4-0.4-0.8-0.7-1.2-0.9c-0.4-0.2-0.9-0.3-1.3-0.3c-0.6,0-1.2,0.2-1.7,0.5c-0.5,0.3-1,0.8-1.3,1.4s-0.5,1.3-0.5,2
		c0,0.7,0.2,1.3,0.5,1.9c0.3,0.6,0.7,1,1.3,1.4s1.1,0.5,1.8,0.5c0.6,0,1.1-0.2,1.7-0.5c0.5-0.3,1-0.8,1.3-1.4h-1.7v-2.3H73.5z
		M93.6,228.7c0.4-0.6,0.6-1.4,0.6-2.2c0-0.7-0.2-1.3-0.5-1.9c-0.3-0.6-0.8-1.1-1.3-1.4c-0.6-0.3-1.2-0.5-1.9-0.5h-5.1v12.6H88v-4.9
		H89l2.8,4.9h3.1l-3-5.1C92.6,229.8,93.2,229.3,93.6,228.7z M91.3,227c-0.1,0.2-0.3,0.4-0.5,0.5c-0.2,0.1-0.4,0.2-0.7,0.2H88V225h2.1
		c0.2,0,0.5,0.1,0.7,0.2c0.2,0.1,0.4,0.3,0.5,0.5s0.2,0.4,0.2,0.7C91.5,226.6,91.4,226.8,91.3,227z M194.4,222.7h2.7v12.6h-2.9
		l-4.6-7.7v7.7h-2.7v-12.6h2.9l4.6,7.7V222.7z M208.8,222.7h9.9v2.7h-3.6v9.9h-2.7v-9.9h-3.6V222.7z M166.9,222.7h8v2.7h-5.3v1.8h4.1
		v2.7h-4.1v2.7h5.3v2.7h-8V222.7z M136.5,223.5c-1-0.6-2-0.9-3.2-0.9h-4.2v12.6h4.2c1.1,0,2.2-0.3,3.2-0.9s1.7-1.3,2.3-2.3
		s0.8-2,0.8-3.2s-0.3-2.2-0.8-3.2C138.2,224.9,137.5,224.1,136.5,223.5z M136.5,230.8c-0.3,0.6-0.8,1-1.3,1.3
		c-0.6,0.3-1.1,0.5-1.8,0.5h-1.5v-7.2h1.5c0.6,0,1.2,0.2,1.8,0.5c0.6,0.3,1,0.8,1.3,1.3c0.3,0.6,0.5,1.2,0.5,1.8
		C137,229.6,136.8,230.2,136.5,230.8z M151.7,222.7h2.7v12.6h-2.7V222.7z"/>
</svg>
