<?xml version="1.0" encoding="UTF-8"?>
<svg id="maxgradient" xmlns="http://www.w3.org/2000/svg" viewBox="0 0 280 280">
    <defs>
        <linearGradient id='a' gradientUnits='objectBoundingBox' x1='0' y1='0' x2='1' y2='1'>
         <stop offset='0' stop-color='red'>
            <animate attributeName="stop-color"
               values="red;purple;blue;green;yellow;orange;red;" dur="20s" repeatCount="indefinite">
            </animate>
         </stop>
         <stop offset='.5' stop-color='purple'>
            <animate attributeName="stop-color"
               values="purple;blue;green;yellow;orange;red;purple;" dur="20s" repeatCount="indefinite">
            </animate>
         </stop>
         <stop offset='1' stop-color='blue'>
            <animate attributeName="stop-color"
               values="blue;green;yellow;orange;red;purple;blue;" dur="20s" repeatCount="indefinite">
            </animate>
         </stop>
         <animateTransform attributeName="gradientTransform" type="rotate" from="0 .5 .5" to="360 .5 .5"
            dur="20s" repeatCount="indefinite" />
      </linearGradient>
      <linearGradient id='b' gradientUnits='objectBoundingBox' x1='0' y1='1' x2='1' y2='1'>
         <stop offset='0' stop-color='red'>
            <animate attributeName="stop-color"
               values="red;purple;blue;green;yellow;orange;red;" dur="20s" repeatCount="indefinite">
            </animate>
         </stop>
         <stop offset='1' stop-color='purple' stop-opacity="0">
            <animate attributeName="stop-color"
               values="purple;blue;green;yellow;orange;red;purple;" dur="20s" repeatCount="indefinite">
            </animate>
         </stop>
         <animateTransform attributeName="gradientTransform" type="rotate" values="360 .5 .5;0 .5 .5" class="ignore"
            dur="10s" repeatCount="indefinite" />
      </linearGradient>
   <style>.cls-1{fill:#fff;}.cls-2{fill:#000;}</style>
    </defs>
    <circle class="circle" fill='url(#a)' cx="140.17" cy="140" r="127.97" />
    <circle class="circle" fill='url(#b)' cx="140.17" cy="140" r="127.97" />
    <path id="white" class="cls-2"
        d="m81.41,226.96c-1,0-1.92-.26-2.74-.77-.81-.51-1.47-1.21-1.93-2.07-.47-.86-.7-1.81-.7-2.82,0-1.06.26-2.04.76-2.89.5-.85,1.18-1.53,2.01-2,.83-.48,1.72-.72,2.65-.72.79,0,1.57.19,2.3.56.73.37,1.39.93,1.95,1.68l.35.47-2.76,1.48-.26-.29c-.24-.26-.5-.46-.77-.59-.28-.13-.55-.19-.84-.19-.39,0-.74.1-1.09.32-.35.22-.63.51-.85.9-.22.39-.33.83-.33,1.33,0,.47.1.88.31,1.27.21.38.48.68.84.9.35.22.72.32,1.12.32.37,0,.71-.1,1.04-.3.08-.05.16-.1.23-.16h-.77v-2.84h4.8l.04.46c0,.07,0,.17,0,.31,0,1.02-.24,1.97-.71,2.83-.48.86-1.13,1.55-1.95,2.06-.82.51-1.74.77-2.72.77Zm124.38-.18v-7.79h-2.83v-3.13h8.79v3.13h-2.83v7.79h-3.13Zm-15.66,0l-2.84-4.77v4.77h-3.13v-10.92h3.08l2.84,4.77v-4.77h3.13v10.92h-3.08Zm-23.18,0v-10.92h7.32v3.13h-4.2v.42h3.23v3.13h-3.23v1.13h4.2v3.13h-7.32Zm-13.51,0v-10.92h3.13v10.92h-3.13Zm-19.27,0v-10.92h3.79c.98,0,1.91.25,2.74.74.83.49,1.5,1.16,1.98,1.98.49.83.74,1.75.74,2.74s-.25,1.91-.74,2.74c-.49.83-1.16,1.5-1.98,1.98-.83.49-1.75.74-2.74.74h-3.79Zm3.79-3.13c.42,0,.8-.1,1.16-.31.36-.21.64-.49.86-.85.21-.36.32-.74.32-1.17s-.1-.8-.32-1.16c-.22-.36-.5-.64-.86-.86-.36-.21-.74-.31-1.16-.31h-.66v4.67h.66Zm-16.35,3.13l-.57-1.56h-3.25l-.57,1.56h-3.32l3.96-10.92h3.1l3.96,10.92h-3.32Zm-1.71-4.68l-.49-1.33-.48,1.33h.97Zm-17.98,4.68l-2.19-3.77v3.77h-3.13v-10.92h4.54c.63,0,1.21.16,1.73.49.52.32.93.75,1.23,1.29.3.54.45,1.13.45,1.76,0,.73-.18,1.39-.54,1.96-.27.42-.61.78-1.02,1.05l2.54,4.37h-3.61Zm-1.03-6.98c.09,0,.17-.02.25-.07.09-.05.15-.12.21-.21.05-.09.08-.18.08-.28s-.02-.19-.07-.28c-.05-.09-.12-.16-.21-.21-.08-.05-.16-.07-.25-.07h-1.16v1.13h1.16Zm42.66-61.89L76.11,63.67v142.8h25.06v-67.13l27.93,38.76-20.3,28.36h28.77l5.98-8.29,5.98,8.29h28.77l-20.3-28.36,27.93-38.76v67.13h25.06V63.67l-67.45,94.23Zm0,39.51l-9.06-12.11h17.79l-8.73,12.11Z" />
    <path id="black" class="cls-1"
        d="m140.17,12.03c-70.68,0-127.97,57.3-127.97,127.97s57.3,127.97,127.97,127.97,127.97-57.3,127.97-127.97S210.84,12.03,140.17,12.03Zm0,248.34c-66.47,0-120.36-53.89-120.36-120.36S73.69,19.64,140.17,19.64s120.36,53.89,120.36,120.36-53.89,120.36-120.36,120.36Zm22.45-75.06v12.11h-19.07l8.73-12.11h10.34Zm-38.14,0h27.8l34.1-47.32v68.05h24.19V65.03l-86.08,120.27Zm12.87,20.72l6.2-8.61h-27.74l-6.16,8.61h27.7Zm-58.42,19.74c-.74-.47-1.33-1.09-1.76-1.88s-.64-1.65-.64-2.58c0-.98.23-1.86.69-2.64.46-.78,1.07-1.39,1.82-1.82.76-.44,1.56-.66,2.4-.66.72,0,1.41.17,2.08.5.67.33,1.26.85,1.78,1.54l-1.9,1.02c-.28-.32-.6-.55-.94-.71s-.69-.24-1.05-.24c-.48,0-.93.13-1.35.39s-.76.62-1.02,1.08c-.26.46-.39.99-.39,1.57,0,.55.12,1.05.38,1.51s.59.82,1.01,1.08c.43.26.89.4,1.39.4.45,0,.89-.12,1.3-.37.41-.25.76-.61,1.04-1.09h-1.33v-1.84h3.84c0,.06,0,.15,0,.27,0,.94-.22,1.8-.65,2.59-.44.79-1.03,1.42-1.77,1.88-.75.46-1.57.69-2.46.69s-1.73-.23-2.48-.7Zm22.21-9.41c.53,0,1.02.14,1.47.41.44.27.79.64,1.05,1.11.26.46.39.97.39,1.52,0,.63-.16,1.2-.47,1.7-.31.5-.74.88-1.28,1.14l2.35,4.05h-2.45l-2.24-3.86h-.74v3.86h-2.13v-9.92h4.04Zm.26,3.79c.16-.1.28-.23.38-.39.09-.16.14-.34.14-.53s-.05-.37-.14-.53c-.09-.16-.22-.29-.38-.39s-.33-.15-.51-.15h-1.66v2.13h1.66c.18,0,.36-.05.51-.14Zm19.21-3.79l3.6,9.92h-2.25l-.57-1.56h-3.95l-.57,1.56h-2.25l3.6-9.92h2.4Zm0,6.24l-1.2-3.29-1.19,3.29h2.4Zm17.35-6.24c.9,0,1.73.22,2.48.67.76.45,1.36,1.05,1.81,1.81.45.76.67,1.59.67,2.48s-.22,1.73-.67,2.48c-.45.76-1.05,1.36-1.81,1.81-.76.45-1.59.67-2.48.67h-3.29v-9.92h3.29Zm1.41,7.42c.43-.25.78-.6,1.04-1.03s.39-.91.39-1.42-.13-.98-.39-1.42-.6-.78-1.04-1.04c-.43-.25-.9-.38-1.41-.38h-1.16v5.67h1.16c.51,0,.98-.13,1.41-.38Zm14.58-7.42h2.13v9.92h-2.13v-9.92Zm13.51,0h6.32v2.13h-4.2v1.42h3.23v2.13h-3.23v2.13h4.2v2.13h-6.32v-9.92Zm17.21,0h2.3l3.63,6.08v-6.08h2.13v9.92h-2.3l-3.63-6.08v6.08h-2.13v-9.92Zm26.59,2.13h-2.83v7.79h-2.13v-7.79h-2.83v-2.13h7.79v2.13Z" />
</svg>