<svg version="1.1" id="Layer_1" xmlns="http://www.w3.org/2000/svg"
  xmlns:xlink="http://www.w3.org/1999/xlink" x="0px" y="0px"
  viewBox="0 0 1280 640" style="enable-background:new 0 0 1280 1280;" xml:space="preserve">
	 <defs>
		<linearGradient id='a' gradientUnits='objectBoundingBox' x1='0' y1='0' x2='1' y2='1'>
		   <stop offset='0' stop-color='#0000ff'>
			  <animate attributeName="stop-color"
				  values="#0000ff;#0088ff;#00ffff;#00ff00;#ffff00;#ff8800;#ff0000;#ff00ff;#af00ff;#5f00ff;#0000ff;" dur="30s" repeatCount="indefinite">
			  </animate>
		   </stop>
		   <stop offset='.5' stop-color='#0088ff'>
			  <animate attributeName="stop-color"
				 values="#0088ff;#00ffff;#00ff00;#ffff00;#ff8800;#ff0000;#ff00ff;#af00ff;#5f00ff;#0000ff;#0088ff;" dur="15s" repeatCount="indefinite">
			  </animate>
		   </stop>
		   <stop offset='1' stop-color='#00ffff'>
			  <animate attributeName="stop-color"
				 values="#00ffff;#00ff00;#ffff00;#ff8800;#ff0000;#ff00ff;#af00ff;#5f00ff;#0000ff;#0088ff;#00ffff;" dur="5s" repeatCount="indefinite">
			  </animate>
		   </stop>
		   <animateTransform attributeName="gradientTransform" type="rotate" from="0 .5 .5" to="360 .5 .5"
			 dur="20s" repeatCount="indefinite" />
		</linearGradient>
		<linearGradient id='b' gradientUnits='objectBoundingBox' x1='0' y1='1' x2='1' y2='1'>
		   <stop offset='0' stop-color='#0000ff'>
			  <animate attributeName="stop-color"
				 values="#0000ff;#0088ff;#00ffff;#00ff00;#ffff00;#ff8800;#ff0000;#ff00ff;#af00ff;#5f00ff;#0000ff;" dur="30s" repeatCount="indefinite">
			  </animate>
		   </stop>
		   <stop offset='1' stop-color='#0088ff' stop-opacity="0">
			  <animate attributeName="stop-color"
				 values="#0088ff;#00ffff;#00ff00;#ffff00;#ff8800;#ff0000;#ff00ff;#af00ff;#5f00ff;#0000ff;#0088ff;" dur="15s" repeatCount="indefinite">
			  </animate>
		   </stop>
		  <animateTransform attributeName="gradientTransform" type="rotate" values="360 .5 .5;0 .5 .5" class="ignore"
			 dur="10s" repeatCount="indefinite" />
		</linearGradient>
<style type="text/css">
	.st0{fill:#000000;}
	.white{fill:#FFFFFF;}
</style>
</defs>
<rect id="border" class="white" width="1280" height="640" rx="34.99" ry="34.99" />
<rect id="gb" fill="url(#a)" x="13.96" y="13.23" width="1252.08" height="613.53" rx="25.75"
  ry="25.75" />
<rect id="gb" fill="url(#b)" x="13.96" y="13.23" width="1252.08" height="613.53" rx="25.75"
  ry="25.75" />
<path id="black" class="black"
  d="m801.9,89.75h1.42l-162.82,227.5-.61-.81.61.81,162.82-227.5v344.69h-60.42v-162.01l-66.91,92.86-1.22-1.82,70.36-97.53v166.47h56.37V96.44l-10.34,14.6-149.03,207.22-36.9,47.24-67.11-93.07v162.01h-60.42v-.41h-1.01V87.11l163.83,228.71-.61.81-128.75-180.25-33.46-46.63,33.46,46.63,128.75,180.05.61.81.61-.81-.61-.81,161.4-225.88Zm-163.63,323.81h-64.28l-13.38,18.65h64.28l13.38-18.65Zm47.04-29.2h0v27.17h-42.99l-2.03-.81-2.03,2.84-13.38,18.65-68.33,2.03h69.55l14.4-20.07,14.4,20.07h69.55l-39.13-49.88Zm-25.95,0h-21.29,20.48l-18.25,24.74-18.25-24.74h-.61l19.06,26.36,18.86-26.36Zm-62.86-2.03h20.88l-10.54-14.6-10.34,14.6Zm25.75,2.03h16.02-16.02Zm63.06,0h-23.32l-19.46,27.17h42.99v-27.17h-.2Zm39.13,50.08h0l.61-.81-49.07-68.53-.61.81,49.07,68.53Zm-119.22-68.94l-49.27,68.53.61.41,49.07-68.53-.41-.41Zm68.74-1.42l.61-.81,70.36-97.53v166.47h56.37V96.44l-10.34,14.6-148.62,207.22-.41.61,32.04,45.22Zm-128.96,107.26l6.89,11.76h-10.95l-4.46-7.7v7.7h-9.53v-29.6h12.37c1.82,0,3.45.41,4.87,1.42,1.42.81,2.64,2.03,3.45,3.65.81,1.42,1.22,3.04,1.22,4.87,0,2.03-.61,3.85-1.42,5.47-.81.81-1.62,1.62-2.43,2.43m-5.68-8.52v-.41c0-.2-.2-.2-.2-.2h-2.84v1.42h2.43c.2,0,.2-.2.2-.2.41-.2.41-.41.41-.61m-32.44,2.64h-13.79v8.52h-.61c-.81,0-1.82-.2-2.43-.81-.81-.41-1.42-1.22-1.82-2.03-.41-.81-.81-1.82-.81-2.84,0-1.22.2-2.23.81-3.04.41-.81,1.22-1.62,2.03-2.03.81-.41,1.62-.61,2.43-.61.61,0,1.22.2,1.82.41s1.22.81,1.82,1.42l1.01,1.22,8.31-4.46-1.42-1.82c-1.62-2.03-3.24-3.65-5.27-4.46-2.03-1.01-4.06-1.42-6.29-1.42-2.43,0-4.87.61-7.3,2.03-2.23,1.22-4.06,3.04-5.47,5.47-1.42,2.23-2.03,4.87-2.03,7.91,0,2.64.61,5.27,1.82,7.7,1.22,2.43,3.04,4.26,5.27,5.68,2.23,1.42,4.66,2.03,7.5,2.03,2.64,0,5.07-.61,7.5-2.03,2.23-1.42,4.06-3.24,5.27-5.68,1.22-2.23,2.03-4.87,2.03-7.7v-.81l-.41-2.64Zm132.2-4.66c1.42,2.23,2.03,4.66,2.03,7.5s-.61,5.07-2.03,7.5c-1.22,2.23-3.04,4.06-5.27,5.27-2.23,1.42-4.66,2.03-7.5,2.03h-10.54v-29.6h10.54c2.64,0,5.07.61,7.5,2.03,2.03,1.22,3.85,3.04,5.27,5.27m-7.5,7.5c0-1.01-.2-1.82-.81-2.64-.41-.81-1.22-1.42-2.03-2.03-.81-.41-1.62-.61-2.64-.61h-1.01v10.54h1.01c1.01,0,1.82-.2,2.64-.61.81-.41,1.42-1.01,2.03-2.03.41-.81.81-1.62.81-2.64m116.38-4.46l-6.08-10.34h-9.12v29.6h9.53v-10.34l6.08,10.34h9.12v-29.6h-9.53v10.34Zm-160.99-10.34l10.75,29.6h-10.14l-1.42-4.06h-7.3l-1.42,4.06h-10.14l10.75-29.6h8.92Zm-4.46,16.02l-.2-.61-.2.61h.41Zm194.65-6.49h7.3v20.07h9.53v-20.07h7.3v-9.53h-24.13v9.53Zm-84.96,20.07h20.28v-9.53h-10.75v-1.42h8.31v-9.12h2.43v-9.53h-20.28v29.6Zm-30.82,0h9.53v-29.6h-9.53v29.6Z" />
<path id="white" class="white"
  d="m640.51,317.24h0l-162.82-227.5v344.69h60.42v-162.01l67.52,93.47-49.07,68.53h69.55l14.4-20.07,14.4,20.07h69.55l-49.07-68.53,67.52-93.47v162.01h60.42V89.75l-162.82,227.5Zm-33.66,50.49l10.54,14.6h-20.88l10.34-14.6Zm18.05,64.48h-64.28l13.38-18.65h64.28l-13.38,18.65Zm15.61-21.49l-19.06-26.36h37.92l-18.86,26.36Zm44.81-26.36v27.17h-42.99l19.47-27.17h23.52Zm115.78-287.92v335.97h-56.37v-166.47l-70.76,98.34-32.24-45.22,159.37-222.63Zm-221.82,359.09l-9.33,25.55h5.88l1.42-4.06h10.14l1.42,4.06h5.88l-9.33-25.55h-6.08Zm0,16.02l3.04-8.52,3.04,8.52h-6.08Zm-74.41-4.06v.61c0,2.43-.61,4.66-1.62,6.69-1.22,2.03-2.64,3.65-4.46,4.87-1.82,1.22-4.06,1.82-6.29,1.82-2.43,0-4.46-.61-6.29-1.82-1.82-1.22-3.45-2.84-4.46-4.87s-1.62-4.26-1.62-6.69.61-4.87,1.82-6.69c1.22-1.82,2.84-3.65,4.66-4.66s4.06-1.62,6.29-1.62c1.82,0,3.65.41,5.27,1.22,1.62.81,3.24,2.23,4.66,4.06l-4.87,2.64c-.81-.81-1.62-1.42-2.43-1.82-.81-.41-1.82-.61-2.64-.61-1.22,0-2.43.41-3.45,1.01s-2.03,1.62-2.64,2.84c-.61,1.22-1.01,2.64-1.01,4.06s.41,2.64,1.01,3.85,1.42,2.03,2.64,2.84c1.22.81,2.23,1.01,3.65,1.01,1.22,0,2.23-.41,3.45-1.01,1.01-.61,2.03-1.62,2.64-2.84h-3.45v-4.66h9.12v-.2Zm40.75.2c.81-1.22,1.22-2.84,1.22-4.46,0-1.42-.41-2.64-1.01-3.85-.61-1.22-1.62-2.23-2.64-2.84-1.22-.61-2.43-1.01-3.85-1.01h-10.34v25.55h5.27v-9.94h2.03l5.68,9.94h6.29l-6.08-10.34c1.42-.81,2.64-1.82,3.45-3.04m-4.66-3.45c-.2.41-.61.81-1.01,1.01-.41.2-.81.41-1.42.41h-4.26v-5.47h4.26c.41,0,1.01.2,1.42.41s.81.61,1.01,1.01c.2.41.41.81.41,1.42,0,.41-.2.81-.41,1.22m209.05-8.72h5.47v25.55h-5.88l-9.33-15.61v15.61h-5.47v-25.55h5.88l9.33,15.61v-15.61Zm29.2,0h20.07v5.47h-7.3v20.07h-5.47v-20.07h-7.3v-5.47Zm-84.96,0h16.22v5.47h-10.75v3.65h8.31v5.47h-8.31v5.47h10.75v5.47h-16.22v-25.55Zm-61.64,1.62c-2.03-1.22-4.06-1.82-6.49-1.82h-8.52v25.55h8.52c2.23,0,4.46-.61,6.49-1.82,2.03-1.22,3.45-2.64,4.66-4.66,1.22-2.03,1.62-4.06,1.62-6.49s-.61-4.46-1.62-6.49c-1.22-1.42-2.64-3.04-4.66-4.26m0,14.8c-.61,1.22-1.62,2.03-2.64,2.64-1.22.61-2.23,1.01-3.65,1.01h-3.04v-14.6h3.04c1.22,0,2.43.41,3.65,1.01s2.03,1.62,2.64,2.64c.61,1.22,1.01,2.43,1.01,3.65s-.41,2.43-1.01,3.65m30.82-16.42h5.47v25.55h-5.47v-25.55Z" />
</svg>
