<?xml version="1.0" encoding="utf-8"?>
<!-- Generator: Adobe Illustrator 28.0.0, SVG Export Plug-In . SVG Version: 6.00 Build 0)  -->
<svg version="1.1" id="Layer_1" xmlns="http://www.w3.org/2000/svg" xmlns:xlink="http://www.w3.org/1999/xlink" x="0px" y="0px"
	 viewBox="0 0 1280 640" style="enable-background:new 0 0 1280 640;" xml:space="preserve">
<style type="text/css">
	.st0{fill:#FFFFFF;}
	.st1{fill:url(#background_00000037688249229126396350000010579303297542111405_);}
	.st2{fill:url(#background_00000088113601517885864790000011240684770032877458_);}
	.st3{fill:#1C1C1C;stroke:#7F7F7F;stroke-width:11;stroke-miterlimit:10;}
	.st4{fill:url(#SVGID_1_);}
	.st5{fill:url(#SVGID_00000143618796532389264560000008676169385141988788_);}
	.st6{fill:url(#SVGID_00000020372440549987658990000000331409375285733285_);}
	.st7{fill:url(#SVGID_00000006704512811978008630000003667141630139161487_);}
	.st8{fill:url(#SVGID_00000099620943255544602560000014939380373054190783_);}
	.st9{fill:url(#SVGID_00000006670620824547609560000012241984994044206510_);}
	.st10{fill:url(#SVGID_00000038384461063079402480000003439107340019040177_);}
	.st11{fill:url(#SVGID_00000083054271876171283550000010122822329470224283_);}
	.st12{fill:url(#SVGID_00000031168377495476242840000003121025542569175690_);}
	.st13{fill:url(#SVGID_00000111148932867739114060000000204623797679052699_);}
</style>
<path id="border" class="st0" d="M35.9,0h1208.2c19.8,0,35.9,16.1,35.9,35.9v568.2c0,19.8-16.1,35.9-35.9,35.9H35.9
	C16.1,640,0,623.9,0,604.1V35.9C0,16.1,16.1,0,35.9,0z"/>
<linearGradient id="background_00000161609736296698486960000004441832464557691027_" gradientUnits="userSpaceOnUse" x1="324.3826" y1="129.1229" x2="1191.0475" y2="653.1219">
	<stop  offset="3.370098e-04" style="stop-color:#9400FF"/>
	<stop  offset="0.2357" style="stop-color:#4C00FF"/>
	<stop  offset="0.5981" style="stop-color:#2C61F0"/>
	<stop  offset="0.6509" style="stop-color:#2A68F1"/>
	<stop  offset="0.7301" style="stop-color:#237DF3"/>
	<stop  offset="0.8261" style="stop-color:#199FF7"/>
	<stop  offset="0.9341" style="stop-color:#0ACDFC"/>
	<stop  offset="1" style="stop-color:#00EDFF"/>
</linearGradient>
<path id="background_00000109014636975948246110000009879412096305263274_" style="fill:url(#background_00000161609736296698486960000004441832464557691027_);" d="
	M1240.3,626.8H39.7C25.5,626.8,14,615.2,14,601V39c0-14.2,11.5-25.8,25.8-25.8h1200.6c14.2,0,25.8,11.5,25.8,25.8v562
	C1266,615.2,1254.5,626.8,1240.3,626.8z"/>
<radialGradient id="background_00000083780908685254610480000017105895096116284850_" cx="624.0304" cy="27.5466" r="665.7621" gradientUnits="userSpaceOnUse">
	<stop  offset="0" style="stop-color:#30F353"/>
	<stop  offset="0.4952" style="stop-color:#97CC2A;stop-opacity:0.505"/>
	<stop  offset="0.9992" style="stop-color:#FFA500;stop-opacity:0"/>
</radialGradient>
<path id="background" style="fill:url(#background_00000083780908685254610480000017105895096116284850_);" d="M1240.3,626.8H39.7
	C25.5,626.8,14,615.2,14,601V39c0-14.2,11.5-25.8,25.8-25.8h1200.6c14.2,0,25.8,11.5,25.8,25.8v562
	C1266,615.2,1254.5,626.8,1240.3,626.8z"/>
<g>
	<path id="black" d="M443.1,122h1.4L281.7,349.5l-0.6-0.8l0.6,0.8L444.5,122v344.7h-60.4v-162l-66.9,92.9l-1.2-1.8l70.4-97.5v166.5
		h56.4v-336l-10.4,14.5l-149,207.2l-36.9,47.2l-67.1-93.1v162H119v-0.3h-1V119.4l163.8,228.7l-0.6,0.8L152.3,168.7l-33.5-46.6
		l33.5,46.6l128.8,180.1l0.6,0.8l0.6-0.8l-0.6-0.8L443.1,122z M279.5,445.9h-64.3l-13.4,18.7h64.3L279.5,445.9z M326.5,416.7
		L326.5,416.7v27.2h-43l-2-0.8l-2,2.8l-13.4,18.7l-68.3,2h69.5l14.4-20.1l14.4,20.1h69.5L326.5,416.7z M300.6,416.7h-21.3h20.5
		l-18.2,24.7l-18.2-24.7h-0.6l19.1,26.4L300.6,416.7z M237.7,414.6h20.9L248.1,400L237.7,414.6z M263.5,416.7L263.5,416.7h16H263.5z
		 M326.5,416.7h-23.3l-19.5,27.2h43v-27.2H326.5z M365.6,466.7L365.6,466.7l0.6-0.8l-49-68.5l-0.6,0.8L365.6,466.7z M246.4,397.8
		l-49.2,68.5l0.6,0.4l49.1-68.5L246.4,397.8z M315.2,396.4l0.6-0.8l70.4-97.5v166.5h56.4V128.7l-10.4,14.6L283.5,350.6l-0.4,0.6
		L315.2,396.4z M186.2,503.6l6.9,11.8h-10.9l-4.5-7.7v7.7h-9.5v-29.6h12.4c1.8,0,3.4,0.4,4.9,1.4c1.4,0.8,2.6,2,3.4,3.6
		c0.8,1.4,1.2,3,1.2,4.9c0,2-0.6,3.9-1.4,5.5C187.8,502,187,502.8,186.2,503.6 M180.5,495.1v-0.4c0-0.2-0.2-0.2-0.2-0.2h-0.2h-2.6
		v1.4h2.2h0.2c0.2,0,0.2-0.2,0.2-0.2C180.5,495.5,180.5,495.3,180.5,495.1 M148.1,497.8h-13.8v8.5h-0.6c-0.8,0-1.8-0.2-2.4-0.8
		c-0.8-0.4-1.4-1.2-1.8-2s-0.8-1.8-0.8-2.8c0-1.2,0.2-2.2,0.8-3c0.4-0.8,1.2-1.6,2-2s1.6-0.6,2.4-0.6c0.6,0,1.2,0.2,1.8,0.4
		s1.2,0.8,1.8,1.4l1,1.2l8.3-4.5l-1.4-1.8c-1.6-2-3.2-3.6-5.3-4.5c-2-1-4.1-1.4-6.3-1.4c-2.4,0-4.9,0.6-7.3,2
		c-2.2,1.2-4.1,3-5.5,5.5c-1.4,2.2-2,4.9-2,7.9c0,2.6,0.6,5.3,1.8,7.7c1.2,2.4,3,4.3,5.3,5.7c2.2,1.4,4.7,2,7.5,2
		c2.6,0,5.1-0.6,7.5-2c2.2-1.4,4.1-3.2,5.3-5.7c1.2-2.2,2-4.9,2-7.7v-0.8L148.1,497.8z M280.3,493.1c1.4,2.2,2,4.7,2,7.5
		s-0.6,5.1-2,7.5c-1.2,2.2-3,4.1-5.3,5.3c-2.2,1.4-4.7,2-7.5,2H257v-29.6h10.5c2.6,0,5.1,0.6,7.5,2C277,489,278.9,490.9,280.3,493.1
		 M272.8,500.6c0-1-0.2-1.8-0.8-2.6c-0.4-0.8-1.2-1.4-2-2c-0.8-0.4-1.6-0.6-2.6-0.6h-1v10.5h1c1,0,1.8-0.2,2.6-0.6s1.4-1,2-2
		C272.4,502.4,272.8,501.6,272.8,500.6 M389.2,496.1l-6.1-10.3H374v29.6h9.5v-10.3l6.1,10.3h9.1v-29.6h-9.5V496.1z M228.2,485.8
		l10.7,29.6h-10.1l-1.4-4.1h-7.3l-1.4,4.1h-10.1l10.7-29.6H228.2z M223.7,501.8l-0.2-0.6l-0.2,0.6H223.7z M418.4,495.3h7.3v20.1h9.5
		v-20.1h7.3v-9.5h-24.1V495.3z M333.4,515.4h20.3v-9.5H343v-1.4h8.3v-9.2h2.4v-9.5h-20.3V515.4z M302.6,515.4h9.5v-29.6h-9.5V515.4z
		"/>
	<path id="white" class="st0" d="M281.7,349.5L281.7,349.5L118.9,122v344.7h60.4v-162l67.5,93.5l-49.1,68.5h69.5l14.4-20.1
		l14.4,20.1h69.5l-49.1-68.5l67.5-93.5v162h60.4V122L281.7,349.5z M248,400l10.5,14.6h-20.9L248,400z M266.1,464.5L266.1,464.5
		h-64.3l13.4-18.7h64.3L266.1,464.5z M281.7,443l-19.1-26.4h37.9L281.7,443z M326.5,416.7v27.2h-43l19.5-27.2H326.5z M442.3,128.7
		v336h-56.4V298.2l-70.7,98.4L283,351.4L442.3,128.7z M220.5,487.8l-9.3,25.5h5.9l1.4-4.1h10.1l1.4,4.1h5.9l-9.3-25.5H220.5z
		 M220.5,503.8l3-8.5l3,8.5H220.5z M146.1,499.8v0.6c0,2.4-0.6,4.7-1.6,6.7c-1.2,2-2.6,3.6-4.5,4.9c-1.8,1.2-4.1,1.8-6.3,1.8
		c-2.4,0-4.5-0.6-6.3-1.8c-1.8-1.2-3.4-2.8-4.5-4.9c-1-2-1.6-4.3-1.6-6.7c0-2.4,0.6-4.9,1.8-6.7c1.2-1.8,2.8-3.6,4.7-4.7
		c1.8-1,4.1-1.6,6.3-1.6c1.8,0,3.6,0.4,5.3,1.2c1.6,0.8,3.2,2.2,4.7,4.1l-4.9,2.6c-0.8-0.8-1.6-1.4-2.4-1.8s-1.8-0.6-2.6-0.6
		c-1.2,0-2.4,0.4-3.4,1s-2,1.6-2.6,2.8c-0.6,1.2-1,2.6-1,4.1c0,1.4,0.4,2.6,1,3.9c0.6,1.2,1.4,2,2.6,2.8s2.2,1,3.6,1
		c1.2,0,2.2-0.4,3.4-1c1-0.6,2-1.6,2.6-2.8H137V500h9.1L146.1,499.8L146.1,499.8z M186.8,500c0.8-1.2,1.2-2.8,1.2-4.5
		c0-1.4-0.4-2.6-1-3.9s-1.6-2.2-2.6-2.8c-1.2-0.6-2.4-1-3.9-1h-10.3v25.5h5.3v-9.9h2l5.7,9.9h6.3l-6.1-10.3
		C184.8,502.2,186,501.2,186.8,500 M182.2,496.5c-0.2,0.4-0.6,0.8-1,1s-0.8,0.4-1.4,0.4h-4.3v-5.5h4.3c0.4,0,1,0.2,1.4,0.4
		s0.8,0.6,1,1s0.4,0.8,0.4,1.4C182.6,495.7,182.4,496.1,182.2,496.5 M391.2,487.8h5.5v25.5h-5.9l-9.3-15.6v15.6H376v-25.5h5.9
		l9.3,15.6V487.8z M420.4,487.8h20.1v5.5h-7.3v20.1h-5.5v-20.1h-7.3V487.8z M335.4,487.8h16.2v5.5h-10.7v3.6h8.3v5.5h-8.3v5.5h10.7
		v5.5h-16.2V487.8z M273.8,489.4c-2-1.2-4.1-1.8-6.5-1.8h-8.5v25.5h8.5c2.2,0,4.5-0.6,6.5-1.8c2-1.2,3.4-2.6,4.7-4.7
		c1.2-2,1.6-4.1,1.6-6.5s-0.6-4.5-1.6-6.5C277.2,492.3,275.8,490.7,273.8,489.4 M273.8,504.3c-0.6,1.2-1.6,2-2.6,2.6
		c-1.2,0.6-2.2,1-3.6,1h-3v-14.6h3c1.2,0,2.4,0.4,3.6,1c1.2,0.6,2,1.6,2.6,2.6c0.6,1.2,1,2.4,1,3.6
		C274.8,501.8,274.4,503,273.8,504.3 M304.6,487.8h5.5v25.5h-5.5V487.8z"/>
</g>
<path class="st3" d="M1196.2,569.8H574.5c-11.2,0-20.2-9.1-20.2-20.2v-463c0-11.2,9.1-20.2,20.2-20.2h621.7
	c11.2,0,20.2,9.1,20.2,20.2v463C1216.4,560.7,1207.3,569.8,1196.2,569.8z"/>
<linearGradient id="SVGID_1_" gradientUnits="userSpaceOnUse" x1="589.2314" y1="114.9556" x2="1171.4365" y2="114.9556">
	<stop  offset="0" style="stop-color:#FC00FC"/>
	<stop  offset="0" style="stop-color:#FC00F8"/>
	<stop  offset="0.5" style="stop-color:#F400A5"/>
	<stop  offset="1" style="stop-color:#F70053"/>
</linearGradient>
<path class="st4" d="M589.2,103.1h6.2l3.1,11.5l3.1-11.5h6.2v26.2h-4.5v-21l-2.8,11.5h-4.1l-2.8-11.5v21h-4.5V103.1z M628.9,118.1
	v11.2h-5.1v-2.2c-0.6,0.9-1.4,1.5-2.4,2s-2,0.7-3.2,0.7c-2.2,0-4-0.6-5.2-1.8s-1.9-2.8-1.9-5c0-2.3,0.7-4,2.2-5.1s3.8-1.6,6.9-1.6
	h3.6v-0.9c0-0.8-0.3-1.5-0.9-1.9s-1.5-0.6-2.7-0.6c-1.2,0-2.4,0.2-3.6,0.5s-2.4,0.8-3.6,1.5v-4.4c1.1-0.5,2.3-0.8,3.5-1
	s2.4-0.3,3.7-0.3c3.2,0,5.4,0.7,6.7,2S628.9,114.8,628.9,118.1z M621.7,120.1c-1.9,0-3.3,0.2-4,0.7s-1.1,1.3-1.1,2.5
	c0,0.9,0.3,1.6,0.8,2.1s1.2,0.8,2.1,0.8c1.4,0,2.4-0.5,3.2-1.5s1.1-2.5,1.1-4.3v-0.4H621.7z M651.2,109.6l-6.6,9.4l7.2,10.3h-6
	l-3.9-6.6l-3.8,6.6h-6l7.3-10.3l-6.7-9.4h6l3.3,5.9l3.3-5.9H651.2z M668.1,124.6v-5h-3.6v-4.4h8.1v12c-1,0.9-2.1,1.5-3.3,1.9
	s-2.5,0.7-3.9,0.7c-3.4,0-6-1.2-7.9-3.5s-2.8-5.7-2.8-10.1c0-4.4,0.9-7.8,2.8-10.1s4.6-3.5,8.1-3.5c1.1,0,2.1,0.1,3.1,0.4
	s2,0.7,2.9,1.3v5.7c-0.7-0.9-1.6-1.6-2.5-2.1s-2-0.7-3.1-0.7c-2,0-3.4,0.7-4.4,2.2s-1.5,3.7-1.5,6.7c0,2.9,0.5,5.1,1.4,6.7
	s2.3,2.3,4.1,2.3c0.5,0,1,0,1.4-0.1S667.8,124.8,668.1,124.6z M694.6,115.1c-0.6-0.5-1.2-0.9-2-1.2s-1.6-0.4-2.5-0.4
	c-1.1,0-2,0.2-2.9,0.6s-1.4,0.9-1.9,1.7c-0.3,0.4-0.5,1-0.6,1.6s-0.2,1.6-0.2,2.9v9.1h-5.2v-19.7h5.2v3.1c0.5-1.1,1.3-2,2.3-2.6
	s2.3-0.9,3.7-0.9c0.7,0,1.4,0.1,2.1,0.3s1.3,0.4,1.9,0.7V115.1z M715.6,118.1v11.2h-5.1v-2.2c-0.6,0.9-1.4,1.5-2.4,2s-2,0.7-3.2,0.7
	c-2.2,0-4-0.6-5.2-1.8s-1.9-2.8-1.9-5c0-2.3,0.7-4,2.2-5.1s3.8-1.6,6.9-1.6h3.6v-0.9c0-0.8-0.3-1.5-0.9-1.9s-1.5-0.6-2.7-0.6
	c-1.2,0-2.4,0.2-3.6,0.5s-2.4,0.8-3.6,1.5v-4.4c1.1-0.5,2.3-0.8,3.5-1s2.4-0.3,3.7-0.3c3.2,0,5.4,0.7,6.7,2S715.6,114.8,715.6,118.1
	z M708.4,120.1c-1.9,0-3.3,0.2-4,0.7s-1.1,1.3-1.1,2.5c0,0.9,0.3,1.6,0.8,2.1s1.2,0.8,2.1,0.8c1.4,0,2.4-0.5,3.2-1.5
	s1.1-2.5,1.1-4.3v-0.4H708.4z M731.7,112.4V102h5.1v27.4h-5.1v-2.9c-0.6,1.1-1.3,2-2.1,2.6s-1.9,0.9-3.1,0.9c-2.2,0-4-0.9-5.2-2.7
	s-1.9-4.3-1.9-7.6c0-3.3,0.6-5.9,1.9-7.7s3.1-2.7,5.4-2.7c1.1,0,2,0.3,2.8,0.8S731,111.4,731.7,112.4z M724.5,119.5
	c0,1.9,0.3,3.4,0.9,4.5s1.5,1.6,2.6,1.6s2-0.5,2.6-1.6s1-2.6,1-4.5s-0.3-3.4-1-4.5s-1.5-1.6-2.6-1.6s-2,0.5-2.6,1.6
	S724.5,117.6,724.5,119.5z M743.3,109.6h10.2v15.7h6.4v4h-18v-4h6.4v-11.8h-5V109.6z M748.4,100.1h5.2v6h-5.2V100.1z M780.5,128.4
	c-1.2,0.5-2.4,0.9-3.7,1.1s-2.6,0.4-3.9,0.4c-3.3,0-5.8-0.9-7.5-2.6s-2.6-4.3-2.6-7.6c0-3.2,0.8-5.7,2.5-7.6s4-2.8,6.9-2.8
	c2.9,0,5.2,0.9,6.8,2.6s2.4,4.2,2.4,7.3v2.1H768c0,1.5,0.5,2.7,1.4,3.5s2.2,1.1,4,1.1c1.2,0,2.3-0.2,3.5-0.5s2.3-0.9,3.6-1.6V128.4z
	 M776.1,117.3c0-1.4-0.4-2.4-1-3.1s-1.7-1-3-1c-1.2,0-2.1,0.4-2.8,1.1s-1.1,1.7-1.2,3.1L776.1,117.3z M801.6,116.6v12.8h-5.1v-12
	c0-1.4-0.2-2.5-0.6-3.1s-1.1-0.9-2-0.9c-0.9,0-1.7,0.4-2.2,1.2s-0.8,2-0.8,3.5v11.3h-5.1v-19.7h5.1v3c0.4-1.1,1-1.9,1.9-2.5
	s1.9-0.9,3.2-0.9c1.9,0,3.3,0.6,4.2,1.9S801.6,114.1,801.6,116.6z M816.6,104.1v5.6h6.7v4h-6.7v9.3c0,0.9,0.2,1.5,0.6,1.9
	s1.1,0.6,2.1,0.6h4v4H819c-3,0-5-0.5-6-1.4s-1.6-2.7-1.6-5.2v-9.1h-5v-4h5v-5.6H816.6z M851.7,109.6h10.2v15.7h6.4v4h-18v-4h6.4
	v-11.8h-5V109.6z M856.7,100.1h5.2v6h-5.2V100.1z M886.9,110.3v4.5c-0.9-0.6-1.9-1.1-3-1.4s-2.1-0.5-3.1-0.5c-1.1,0-2,0.2-2.6,0.5
	s-0.9,0.8-0.9,1.5c0,0.9,1.3,1.7,3.8,2.3l0.2,0.1l1.5,0.4c1.9,0.4,3.2,1.2,4.1,2.2s1.3,2.3,1.3,4c0,2-0.7,3.5-2,4.6s-3.3,1.5-6,1.5
	c-1.2,0-2.4-0.1-3.6-0.3s-2.5-0.5-3.8-0.9v-4.5c1.1,0.6,2.3,1.1,3.5,1.5s2.3,0.5,3.4,0.5c1.2,0,2.1-0.2,2.7-0.5s0.9-0.9,0.9-1.5
	c0-0.7-0.2-1.2-0.7-1.5s-1.5-0.7-3.1-1.1l-1.4-0.3c-2-0.4-3.4-1.1-4.3-2.1s-1.4-2.2-1.4-3.8c0-1.9,0.7-3.4,2.1-4.4s3.3-1.6,5.8-1.6
	c1.1,0,2.2,0.1,3.3,0.3S885.9,109.9,886.9,110.3z M920.6,112.4c0.6-1.1,1.4-1.9,2.2-2.5s1.8-0.8,2.8-0.8c2.3,0,4.1,0.9,5.4,2.7
	s1.9,4.3,1.9,7.7c0,3.3-0.6,5.8-1.9,7.6s-3,2.7-5.2,2.7c-1.2,0-2.2-0.3-3.1-0.9s-1.6-1.4-2.1-2.6v2.9h-5.1V102h5.1V112.4z
	 M927.8,119.5c0-1.9-0.3-3.4-0.9-4.5s-1.5-1.6-2.6-1.6s-2,0.5-2.6,1.6s-1,2.6-1,4.5s0.3,3.4,1,4.5s1.5,1.6,2.6,1.6s2-0.5,2.6-1.6
	S927.8,121.4,927.8,119.5z M937.3,122.5v-12.8h5.2v12c0,1.4,0.2,2.4,0.6,3s1.1,0.9,2,0.9s1.6-0.4,2.2-1.2s0.8-2,0.8-3.4v-11.3h5.2
	v19.7H948v-2.9c-0.4,1.1-1,1.9-1.9,2.5s-1.9,0.9-3.2,0.9c-1.9,0-3.3-0.6-4.2-1.9S937.3,124.9,937.3,122.5z M960.1,109.6h10.2v15.7
	h6.4v4h-18v-4h6.4v-11.8h-5V109.6z M965.1,100.1h5.2v6h-5.2V100.1z M984.7,121.1v-15.2h-5.2v-4h10.4v19.1c0,1.5,0.2,2.6,0.7,3.3
	s1.3,1,2.4,1h4.1v4h-5.6c-2.4,0-4.2-0.6-5.3-1.9S984.7,124.1,984.7,121.1z M1011.7,104.1v5.6h6.7v4h-6.7v9.3c0,0.9,0.2,1.5,0.6,1.9
	s1.1,0.6,2.1,0.6h4v4h-4.3c-3,0-5-0.5-6-1.4s-1.6-2.7-1.6-5.2v-9.1h-5v-4h5v-5.6H1011.7z M1044.6,119.5c0-3.2,0.8-5.7,2.5-7.5
	s3.9-2.8,6.6-2.8c2.8,0,5,0.9,6.7,2.8s2.5,4.4,2.5,7.5s-0.8,5.7-2.5,7.5s-3.9,2.8-6.7,2.8c-2.8,0-5-0.9-6.6-2.8
	S1044.6,122.7,1044.6,119.5z M1053.7,113.4c-1.2,0-2.2,0.5-2.9,1.6s-1.1,2.6-1.1,4.5s0.4,3.4,1.1,4.5s1.7,1.6,2.9,1.6
	c1.2,0,2.2-0.5,2.9-1.6s1.1-2.6,1.1-4.5s-0.4-3.4-1.1-4.5S1054.9,113.4,1053.7,113.4z M1083.4,116.6v12.8h-5.1v-12
	c0-1.4-0.2-2.5-0.6-3.1s-1.1-0.9-2-0.9c-0.9,0-1.7,0.4-2.2,1.2s-0.8,2-0.8,3.5v11.3h-5.1v-19.7h5.1v3c0.4-1.1,1-1.9,1.9-2.5
	s1.9-0.9,3.2-0.9c1.9,0,3.3,0.6,4.2,1.9S1083.4,114.1,1083.4,116.6z M1120,104.1v5.6h6.7v4h-6.7v9.3c0,0.9,0.2,1.5,0.6,1.9
	s1.1,0.6,2.1,0.6h4v4h-4.3c-3,0-5-0.5-6-1.4s-1.6-2.7-1.6-5.2v-9.1h-5v-4h5v-5.6H1120z M1148.4,116.6v12.8h-5.1v-12
	c0-1.4-0.2-2.4-0.6-3s-1.1-0.9-2-0.9c-0.9,0-1.7,0.4-2.2,1.2s-0.8,2-0.8,3.4v11.3h-5.1V102h5.1v10.6c0.4-1.1,1-1.9,1.9-2.5
	s1.9-0.9,3.2-0.9c1.9,0,3.3,0.6,4.2,1.9S1148.4,114.1,1148.4,116.6z M1170.6,128.4c-1.2,0.5-2.4,0.9-3.7,1.1s-2.6,0.4-3.9,0.4
	c-3.3,0-5.8-0.9-7.5-2.6s-2.6-4.3-2.6-7.6c0-3.2,0.8-5.7,2.5-7.6s4-2.8,6.9-2.8c2.9,0,5.2,0.9,6.8,2.6s2.4,4.2,2.4,7.3v2.1h-13.3
	c0,1.5,0.5,2.7,1.4,3.5s2.2,1.1,4,1.1c1.2,0,2.3-0.2,3.5-0.5s2.3-0.9,3.6-1.6V128.4z M1166.3,117.3c0-1.4-0.4-2.4-1-3.1s-1.7-1-3-1
	c-1.2,0-2.1,0.4-2.8,1.1s-1.1,1.7-1.2,3.1L1166.3,117.3z"/>
<linearGradient id="SVGID_00000007424839834930810930000008615421256767780773_" gradientUnits="userSpaceOnUse" x1="576.8179" y1="162.2346" x2="1170.5945" y2="164.0124">
	<stop  offset="2.102095e-03" style="stop-color:#E30043"/>
	<stop  offset="1" style="stop-color:#EA2B00"/>
</linearGradient>
<path style="fill:url(#SVGID_00000007424839834930810930000008615421256767780773_);" d="M608,154.6l-6.3,19.7h-6.3l-6.3-19.7h5.2
	l4.2,15.4l4.2-15.4H608z M628.8,173.4c-1.2,0.5-2.4,0.9-3.7,1.1s-2.6,0.4-3.9,0.4c-3.3,0-5.8-0.9-7.5-2.6s-2.6-4.3-2.6-7.6
	c0-3.2,0.8-5.7,2.5-7.6s4-2.8,6.9-2.8c2.9,0,5.2,0.9,6.8,2.6s2.4,4.2,2.4,7.3v2.1h-13.3c0,1.5,0.5,2.7,1.4,3.5s2.2,1.1,4,1.1
	c1.2,0,2.3-0.2,3.5-0.5s2.3-0.9,3.6-1.6V173.4z M624.4,162.3c0-1.4-0.4-2.4-1-3.1s-1.7-1-3-1c-1.2,0-2.1,0.4-2.8,1.1
	s-1.1,1.7-1.2,3.1L624.4,162.3z M651.3,160.1c-0.6-0.5-1.2-0.9-2-1.2s-1.6-0.4-2.5-0.4c-1.1,0-2,0.2-2.9,0.6s-1.4,0.9-1.9,1.7
	c-0.3,0.4-0.5,1-0.6,1.6s-0.2,1.6-0.2,2.9v9.1h-5.2v-19.7h5.2v3.1c0.5-1.1,1.3-2,2.3-2.6s2.3-0.9,3.7-0.9c0.7,0,1.4,0.1,2.1,0.3
	s1.3,0.4,1.9,0.7V160.1z M670.2,155.3v4.5c-0.9-0.6-1.9-1.1-3-1.4s-2.1-0.5-3.1-0.5c-1.1,0-2,0.2-2.6,0.5s-0.9,0.8-0.9,1.5
	c0,0.9,1.3,1.7,3.8,2.3l0.2,0.1l1.5,0.4c1.9,0.4,3.2,1.2,4.1,2.2s1.3,2.3,1.3,4c0,2-0.7,3.5-2,4.6s-3.3,1.5-6,1.5
	c-1.2,0-2.4-0.1-3.6-0.3s-2.5-0.5-3.8-0.9v-4.5c1.1,0.6,2.3,1.1,3.5,1.5s2.3,0.5,3.4,0.5c1.2,0,2.1-0.2,2.7-0.5s0.9-0.9,0.9-1.5
	c0-0.7-0.2-1.2-0.7-1.5s-1.5-0.7-3.1-1.1l-1.4-0.3c-2-0.4-3.4-1.1-4.3-2.1s-1.4-2.2-1.4-3.8c0-1.9,0.7-3.4,2.1-4.4s3.3-1.6,5.8-1.6
	c1.1,0,2.2,0.1,3.3,0.3S669.1,154.9,670.2,155.3z M678.3,154.6h10.2v15.7h6.4v4h-18v-4h6.4v-11.8h-5V154.6z M683.3,145.1h5.2v6h-5.2
	V145.1z M708.2,149.1v5.6h6.7v4h-6.7v9.3c0,0.9,0.2,1.5,0.6,1.9s1.1,0.6,2.1,0.6h4v4h-4.3c-3,0-5-0.5-6-1.4s-1.6-2.7-1.6-5.2v-9.1
	h-5v-4h5v-5.6H708.2z M724.6,166.1v-15.2h-5.2v-4h10.4v19.1c0,1.5,0.2,2.6,0.7,3.3s1.3,1,2.4,1h4.1v4h-5.6c-2.4,0-4.2-0.6-5.3-1.9
	S724.6,169.1,724.6,166.1z M758.8,173.4c-1.2,0.5-2.4,0.9-3.7,1.1s-2.6,0.4-3.9,0.4c-3.3,0-5.8-0.9-7.5-2.6s-2.6-4.3-2.6-7.6
	c0-3.2,0.8-5.7,2.5-7.6s4-2.8,6.9-2.8c2.9,0,5.2,0.9,6.8,2.6s2.4,4.2,2.4,7.3v2.1h-13.3c0,1.5,0.5,2.7,1.4,3.5s2.2,1.1,4,1.1
	c1.2,0,2.3-0.2,3.5-0.5s2.3-0.9,3.6-1.6V173.4z M754.4,162.3c0-1.4-0.4-2.4-1-3.1s-1.7-1-3-1c-1.2,0-2.1,0.4-2.8,1.1
	s-1.1,1.7-1.2,3.1L754.4,162.3z M803,160.1c-0.6-0.5-1.2-0.9-2-1.2s-1.6-0.4-2.5-0.4c-1.1,0-2,0.2-2.9,0.6s-1.4,0.9-1.9,1.7
	c-0.3,0.4-0.5,1-0.6,1.6s-0.2,1.6-0.2,2.9v9.1h-5.2v-19.7h5.2v3.1c0.5-1.1,1.3-2,2.3-2.6s2.3-0.9,3.7-0.9c0.7,0,1.4,0.1,2.1,0.3
	s1.3,0.4,1.9,0.7V160.1z M808.3,154.6h10.2v15.7h6.4v4h-18v-4h6.4v-11.8h-5V154.6z M813.4,145.1h5.2v6h-5.2V145.1z M844.8,173.3
	c-0.9,0.5-1.8,0.9-2.8,1.1s-2.1,0.4-3.2,0.4c-3,0-5.4-0.9-7.1-2.7s-2.6-4.4-2.6-7.6c0-3.2,0.9-5.8,2.6-7.6s4.1-2.8,7.1-2.8
	c1.1,0,2.1,0.1,3,0.4s2,0.6,2.9,1.1v4.7c-0.8-0.6-1.6-1.1-2.5-1.5s-1.8-0.5-2.8-0.5c-1.7,0-3,0.5-3.9,1.6s-1.4,2.6-1.4,4.6
	s0.5,3.5,1.4,4.5s2.2,1.6,3.9,1.6c1,0,1.9-0.2,2.8-0.5s1.7-0.8,2.5-1.5V173.3z M866.6,161.6v12.8h-5.1v-12c0-1.4-0.2-2.4-0.6-3
	s-1.1-0.9-2-0.9c-0.9,0-1.7,0.4-2.2,1.2s-0.8,2-0.8,3.4v11.3h-5.1V147h5.1v10.6c0.4-1.1,1-1.9,1.9-2.5s1.9-0.9,3.2-0.9
	c1.9,0,3.3,0.6,4.2,1.9S866.6,159.1,866.6,161.6z M898,166.1v-15.2h-5.2v-4h10.4v19.1c0,1.5,0.2,2.6,0.7,3.3s1.3,1,2.4,1h4.1v4h-5.6
	c-2.4,0-4.2-0.6-5.3-1.9S898,169.1,898,166.1z M916.7,154.6h10.2v15.7h6.4v4h-18v-4h6.4v-11.8h-5V154.6z M921.8,145.1h5.2v6h-5.2
	V145.1z M942.3,157.4c0.6-1.1,1.4-1.9,2.2-2.5s1.8-0.8,2.8-0.8c2.3,0,4.1,0.9,5.4,2.7s1.9,4.3,1.9,7.7c0,3.3-0.6,5.8-1.9,7.6
	s-3,2.7-5.2,2.7c-1.2,0-2.2-0.3-3.1-0.9s-1.6-1.4-2.1-2.6v2.9h-5.1V147h5.1V157.4z M949.4,164.5c0-1.9-0.3-3.4-0.9-4.5
	s-1.5-1.6-2.6-1.6s-2,0.5-2.6,1.6s-1,2.6-1,4.5s0.3,3.4,1,4.5s1.5,1.6,2.6,1.6s2-0.5,2.6-1.6S949.4,166.4,949.4,164.5z M976.4,160.1
	c-0.6-0.5-1.2-0.9-2-1.2s-1.6-0.4-2.5-0.4c-1.1,0-2,0.2-2.9,0.6s-1.4,0.9-1.9,1.7c-0.3,0.4-0.5,1-0.6,1.6s-0.2,1.6-0.2,2.9v9.1h-5.2
	v-19.7h5.2v3.1c0.5-1.1,1.3-2,2.3-2.6s2.3-0.9,3.7-0.9c0.7,0,1.4,0.1,2.1,0.3s1.3,0.4,1.9,0.7V160.1z M997.3,163.1v11.2h-5.1v-2.2
	c-0.6,0.9-1.4,1.5-2.4,2s-2,0.7-3.2,0.7c-2.2,0-4-0.6-5.2-1.8s-1.9-2.8-1.9-5c0-2.3,0.7-4,2.2-5.1s3.8-1.6,6.9-1.6h3.6v-0.9
	c0-0.8-0.3-1.5-0.9-1.9s-1.5-0.6-2.7-0.6c-1.2,0-2.4,0.2-3.6,0.5s-2.4,0.8-3.6,1.5v-4.4c1.1-0.5,2.3-0.8,3.5-1s2.4-0.3,3.7-0.3
	c3.2,0,5.4,0.7,6.7,2S997.3,159.8,997.3,163.1z M990.2,165.1c-1.9,0-3.3,0.2-4,0.7s-1.1,1.3-1.1,2.5c0,0.9,0.3,1.6,0.8,2.1
	s1.2,0.8,2.1,0.8c1.4,0,2.4-0.5,3.2-1.5s1.1-2.5,1.1-4.3v-0.4H990.2z M1019.8,160.1c-0.6-0.5-1.2-0.9-2-1.2s-1.6-0.4-2.5-0.4
	c-1.1,0-2,0.2-2.9,0.6s-1.4,0.9-1.9,1.7c-0.3,0.4-0.5,1-0.6,1.6s-0.2,1.6-0.2,2.9v9.1h-5.2v-19.7h5.2v3.1c0.5-1.1,1.3-2,2.3-2.6
	s2.3-0.9,3.7-0.9c0.7,0,1.4,0.1,2.1,0.3s1.3,0.4,1.9,0.7V160.1z M1033.7,176.5c-0.7,1.9-1.5,3.2-2.5,4.1s-2.1,1.3-3.5,1.3h-4.3v-3.9
	h2.1c1.1,0,1.8-0.2,2.3-0.5s1-1.2,1.5-2.5l0.4-1.1l-7.5-19.1h5.4l4.5,12.8l4.3-12.8h5.4L1033.7,176.5z M1050.8,167.9h5.9v6.5h-5.9
	V167.9z M1089.2,152.7v-4.6h15.6v4.6h-5.2v17.1h5.2v4.6h-15.6v-4.6h5.2v-17.1H1089.2z M1120,149.1v5.6h6.7v4h-6.7v9.3
	c0,0.9,0.2,1.5,0.6,1.9s1.1,0.6,2.1,0.6h4v4h-4.3c-3,0-5-0.5-6-1.4s-1.6-2.7-1.6-5.2v-9.1h-5v-4h5v-5.6H1120z M1142.6,148.1v9.8
	h-4.5v-9.8H1142.6z M1168.7,155.3v4.5c-0.9-0.6-1.9-1.1-3-1.4s-2.1-0.5-3.1-0.5c-1.1,0-2,0.2-2.6,0.5s-0.9,0.8-0.9,1.5
	c0,0.9,1.3,1.7,3.8,2.3l0.2,0.1l1.5,0.4c1.9,0.4,3.2,1.2,4.1,2.2s1.3,2.3,1.3,4c0,2-0.7,3.5-2,4.6s-3.3,1.5-6,1.5
	c-1.2,0-2.4-0.1-3.6-0.3s-2.5-0.5-3.8-0.9v-4.5c1.1,0.6,2.3,1.1,3.5,1.5s2.3,0.5,3.4,0.5c1.2,0,2.1-0.2,2.7-0.5s0.9-0.9,0.9-1.5
	c0-0.7-0.2-1.2-0.7-1.5s-1.5-0.7-3.1-1.1l-1.4-0.3c-2-0.4-3.4-1.1-4.3-2.1s-1.4-2.2-1.4-3.8c0-1.9,0.7-3.4,2.1-4.4s3.3-1.6,5.8-1.6
	c1.1,0,2.2,0.1,3.3,0.3S1167.6,154.9,1168.7,155.3z"/>
<linearGradient id="SVGID_00000160172008959254484920000008490921996296392124_" gradientUnits="userSpaceOnUse" x1="601.2285" y1="209.4028" x2="1159.2637" y2="209.4028">
	<stop  offset="0" style="stop-color:#EA2B00"/>
	<stop  offset="0.9979" style="stop-color:#EF7A00"/>
</linearGradient>
<path style="fill:url(#SVGID_00000160172008959254484920000008490921996296392124_);" d="M617.6,218.6c-0.8,0.4-1.7,0.7-2.6,0.9
	s-1.9,0.3-2.8,0.3c-3.5,0-6.2-1.2-8.1-3.5s-2.8-5.7-2.8-10.1c0-4.4,0.9-7.8,2.8-10.1s4.6-3.5,8.1-3.5c1,0,2,0.1,2.9,0.3
	s1.8,0.5,2.6,0.9v5.8c-0.9-0.8-1.8-1.4-2.6-1.8s-1.7-0.6-2.6-0.6c-1.9,0-3.3,0.8-4.3,2.3s-1.5,3.7-1.5,6.7c0,3,0.5,5.2,1.5,6.7
	s2.4,2.3,4.3,2.3c0.9,0,1.8-0.2,2.6-0.6s1.7-1,2.6-1.8V218.6z M622,209.5c0-3.2,0.8-5.7,2.5-7.5s3.9-2.8,6.6-2.8
	c2.8,0,5,0.9,6.7,2.8s2.5,4.4,2.5,7.5s-0.8,5.7-2.5,7.5s-3.9,2.8-6.7,2.8c-2.8,0-5-0.9-6.6-2.8S622,212.7,622,209.5z M631.1,203.4
	c-1.2,0-2.2,0.5-2.9,1.6s-1.1,2.6-1.1,4.5s0.4,3.4,1.1,4.5s1.7,1.6,2.9,1.6c1.2,0,2.2-0.5,2.9-1.6s1.1-2.6,1.1-4.5s-0.4-3.4-1.1-4.5
	S632.3,203.4,631.1,203.4z M648.7,211.1v-15.2h-5.2v-4h10.4v19.1c0,1.5,0.2,2.6,0.7,3.3s1.3,1,2.4,1h4.1v4h-5.6
	c-2.4,0-4.2-0.6-5.3-1.9S648.7,214.1,648.7,211.1z M665.3,209.5c0-3.2,0.8-5.7,2.5-7.5s3.9-2.8,6.6-2.8c2.8,0,5,0.9,6.7,2.8
	s2.5,4.4,2.5,7.5s-0.8,5.7-2.5,7.5s-3.9,2.8-6.7,2.8c-2.8,0-5-0.9-6.6-2.8S665.3,212.7,665.3,209.5z M674.4,203.4
	c-1.2,0-2.2,0.5-2.9,1.6s-1.1,2.6-1.1,4.5s0.4,3.4,1.1,4.5s1.7,1.6,2.9,1.6c1.2,0,2.2-0.5,2.9-1.6s1.1-2.6,1.1-4.5s-0.4-3.4-1.1-4.5
	S675.6,203.4,674.4,203.4z M705.5,205.1c-0.6-0.5-1.2-0.9-2-1.2s-1.6-0.4-2.5-0.4c-1.1,0-2,0.2-2.9,0.6s-1.4,0.9-1.9,1.7
	c-0.3,0.4-0.5,1-0.6,1.6s-0.2,1.6-0.2,2.9v9.1h-5.2v-19.7h5.2v3.1c0.5-1.1,1.3-2,2.3-2.6s2.3-0.9,3.7-0.9c0.7,0,1.4,0.1,2.1,0.3
	s1.3,0.4,1.9,0.7V205.1z M747.2,218.3c-0.9,0.5-1.8,0.9-2.8,1.1s-2.1,0.4-3.2,0.4c-3,0-5.4-0.9-7.1-2.7s-2.6-4.4-2.6-7.6
	c0-3.2,0.9-5.8,2.6-7.6s4.1-2.8,7.1-2.8c1.1,0,2.1,0.1,3,0.4s2,0.6,2.9,1.1v4.7c-0.8-0.6-1.6-1.1-2.5-1.5s-1.8-0.5-2.8-0.5
	c-1.7,0-3,0.5-3.9,1.6s-1.4,2.6-1.4,4.6s0.5,3.5,1.4,4.5s2.2,1.6,3.9,1.6c1,0,1.9-0.2,2.8-0.5s1.7-0.8,2.5-1.5V218.3z M757.1,211.1
	v-15.2h-5.2v-4h10.4v19.1c0,1.5,0.2,2.6,0.7,3.3s1.3,1,2.4,1h4.1v4h-5.6c-2.4,0-4.2-0.6-5.3-1.9S757.1,214.1,757.1,211.1z
	 M791.4,208.1v11.2h-5.1v-2.2c-0.6,0.9-1.4,1.5-2.4,2s-2,0.7-3.2,0.7c-2.2,0-4-0.6-5.2-1.8s-1.9-2.8-1.9-5c0-2.3,0.7-4,2.2-5.1
	s3.8-1.6,6.9-1.6h3.6v-0.9c0-0.8-0.3-1.5-0.9-1.9s-1.5-0.6-2.7-0.6c-1.2,0-2.4,0.2-3.6,0.5s-2.4,0.8-3.6,1.5v-4.4
	c1.1-0.5,2.3-0.8,3.5-1s2.4-0.3,3.7-0.3c3.2,0,5.4,0.7,6.7,2S791.4,204.8,791.4,208.1z M784.3,210.1c-1.9,0-3.3,0.2-4,0.7
	s-1.1,1.3-1.1,2.5c0,0.9,0.3,1.6,0.8,2.1s1.2,0.8,2.1,0.8c1.4,0,2.4-0.5,3.2-1.5s1.1-2.5,1.1-4.3v-0.4H784.3z M811,200.3v4.5
	c-0.9-0.6-1.9-1.1-3-1.4s-2.1-0.5-3.1-0.5c-1.1,0-2,0.2-2.6,0.5s-0.9,0.8-0.9,1.5c0,0.9,1.3,1.7,3.8,2.3l0.2,0.1l1.5,0.4
	c1.9,0.4,3.2,1.2,4.1,2.2s1.3,2.3,1.3,4c0,2-0.7,3.5-2,4.6s-3.3,1.5-6,1.5c-1.2,0-2.4-0.1-3.6-0.3s-2.5-0.5-3.8-0.9v-4.5
	c1.1,0.6,2.3,1.1,3.5,1.5s2.3,0.5,3.4,0.5c1.2,0,2.1-0.2,2.7-0.5s0.9-0.9,0.9-1.5c0-0.7-0.2-1.2-0.7-1.5s-1.5-0.7-3.1-1.1l-1.4-0.3
	c-2-0.4-3.4-1.1-4.3-2.1s-1.4-2.2-1.4-3.8c0-1.9,0.7-3.4,2.1-4.4s3.3-1.6,5.8-1.6c1.1,0,2.2,0.1,3.3,0.3S810,199.9,811,200.3z
	 M832.7,200.3v4.5c-0.9-0.6-1.9-1.1-3-1.4s-2.1-0.5-3.1-0.5c-1.1,0-2,0.2-2.6,0.5s-0.9,0.8-0.9,1.5c0,0.9,1.3,1.7,3.8,2.3l0.2,0.1
	l1.5,0.4c1.9,0.4,3.2,1.2,4.1,2.2s1.3,2.3,1.3,4c0,2-0.7,3.5-2,4.6s-3.3,1.5-6,1.5c-1.2,0-2.4-0.1-3.6-0.3s-2.5-0.5-3.8-0.9v-4.5
	c1.1,0.6,2.3,1.1,3.5,1.5s2.3,0.5,3.4,0.5c1.2,0,2.1-0.2,2.7-0.5s0.9-0.9,0.9-1.5c0-0.7-0.2-1.2-0.7-1.5s-1.5-0.7-3.1-1.1l-1.4-0.3
	c-2-0.4-3.4-1.1-4.3-2.1s-1.4-2.2-1.4-3.8c0-1.9,0.7-3.4,2.1-4.4s3.3-1.6,5.8-1.6c1.1,0,2.2,0.1,3.3,0.3S831.7,199.9,832.7,200.3z
	 M877.3,218.3c-0.9,0.5-1.8,0.9-2.8,1.1s-2.1,0.4-3.2,0.4c-3,0-5.4-0.9-7.1-2.7s-2.6-4.4-2.6-7.6c0-3.2,0.9-5.8,2.6-7.6
	s4.1-2.8,7.1-2.8c1.1,0,2.1,0.1,3,0.4s2,0.6,2.9,1.1v4.7c-0.8-0.6-1.6-1.1-2.5-1.5s-1.8-0.5-2.8-0.5c-1.7,0-3,0.5-3.9,1.6
	s-1.4,2.6-1.4,4.6s0.5,3.5,1.4,4.5s2.2,1.6,3.9,1.6c1,0,1.9-0.2,2.8-0.5s1.7-0.8,2.5-1.5V218.3z M899.8,208.1v11.2h-5.1v-2.2
	c-0.6,0.9-1.4,1.5-2.4,2s-2,0.7-3.2,0.7c-2.2,0-4-0.6-5.2-1.8s-1.9-2.8-1.9-5c0-2.3,0.7-4,2.2-5.1s3.8-1.6,6.9-1.6h3.6v-0.9
	c0-0.8-0.3-1.5-0.9-1.9s-1.5-0.6-2.7-0.6c-1.2,0-2.4,0.2-3.6,0.5s-2.4,0.8-3.6,1.5v-4.4c1.1-0.5,2.3-0.8,3.5-1s2.4-0.3,3.7-0.3
	c3.2,0,5.4,0.7,6.7,2S899.8,204.8,899.8,208.1z M892.6,210.1c-1.9,0-3.3,0.2-4,0.7s-1.1,1.3-1.1,2.5c0,0.9,0.3,1.6,0.8,2.1
	s1.2,0.8,2.1,0.8c1.4,0,2.4-0.5,3.2-1.5s1.1-2.5,1.1-4.3v-0.4H892.6z M920.8,206.6v12.8h-5.1v-12c0-1.4-0.2-2.5-0.6-3.1
	s-1.1-0.9-2-0.9c-0.9,0-1.7,0.4-2.2,1.2s-0.8,2-0.8,3.5v11.3H905v-19.7h5.1v3c0.4-1.1,1-1.9,1.9-2.5s1.9-0.9,3.2-0.9
	c1.9,0,3.3,0.6,4.2,1.9S920.8,204.1,920.8,206.6z M964.8,208.1v11.2h-5.1v-2.2c-0.6,0.9-1.4,1.5-2.4,2s-2,0.7-3.2,0.7
	c-2.2,0-4-0.6-5.2-1.8s-1.9-2.8-1.9-5c0-2.3,0.7-4,2.2-5.1s3.8-1.6,6.9-1.6h3.6v-0.9c0-0.8-0.3-1.5-0.9-1.9s-1.5-0.6-2.7-0.6
	c-1.2,0-2.4,0.2-3.6,0.5s-2.4,0.8-3.6,1.5v-4.4c1.1-0.5,2.3-0.8,3.5-1s2.4-0.3,3.7-0.3c3.2,0,5.4,0.7,6.7,2S964.8,204.8,964.8,208.1
	z M957.6,210.1c-1.9,0-3.3,0.2-4,0.7s-1.1,1.3-1.1,2.5c0,0.9,0.3,1.6,0.8,2.1s1.2,0.8,2.1,0.8c1.4,0,2.4-0.5,3.2-1.5
	s1.1-2.5,1.1-4.3v-0.4H957.6z M985.7,218.3c-0.9,0.5-1.8,0.9-2.8,1.1s-2.1,0.4-3.2,0.4c-3,0-5.4-0.9-7.1-2.7s-2.6-4.4-2.6-7.6
	c0-3.2,0.9-5.8,2.6-7.6s4.1-2.8,7.1-2.8c1.1,0,2.1,0.1,3,0.4s2,0.6,2.9,1.1v4.7c-0.8-0.6-1.6-1.1-2.5-1.5s-1.8-0.5-2.8-0.5
	c-1.7,0-3,0.5-3.9,1.6s-1.4,2.6-1.4,4.6s0.5,3.5,1.4,4.5s2.2,1.6,3.9,1.6c1,0,1.9-0.2,2.8-0.5s1.7-0.8,2.5-1.5V218.3z M1007.3,218.3
	c-0.9,0.5-1.8,0.9-2.8,1.1s-2.1,0.4-3.2,0.4c-3,0-5.4-0.9-7.1-2.7s-2.6-4.4-2.6-7.6c0-3.2,0.9-5.8,2.6-7.6s4.1-2.8,7.1-2.8
	c1.1,0,2.1,0.1,3,0.4s2,0.6,2.9,1.1v4.7c-0.8-0.6-1.6-1.1-2.5-1.5s-1.8-0.5-2.8-0.5c-1.7,0-3,0.5-3.9,1.6s-1.4,2.6-1.4,4.6
	s0.5,3.5,1.4,4.5s2.2,1.6,3.9,1.6c1,0,1.9-0.2,2.8-0.5s1.7-0.8,2.5-1.5V218.3z M1029.7,218.4c-1.2,0.5-2.4,0.9-3.7,1.1
	s-2.6,0.4-3.9,0.4c-3.3,0-5.8-0.9-7.5-2.6s-2.6-4.3-2.6-7.6c0-3.2,0.8-5.7,2.5-7.6s4-2.8,6.9-2.8c2.9,0,5.2,0.9,6.8,2.6
	s2.4,4.2,2.4,7.3v2.1h-13.3c0,1.5,0.5,2.7,1.4,3.5s2.2,1.1,4,1.1c1.2,0,2.3-0.2,3.5-0.5s2.3-0.9,3.6-1.6V218.4z M1025.4,207.3
	c0-1.4-0.4-2.4-1-3.1s-1.7-1-3-1c-1.2,0-2.1,0.4-2.8,1.1s-1.1,1.7-1.2,3.1L1025.4,207.3z M1039.8,216.6v10.3h-5.1v-27.2h5.1v3
	c0.5-1.1,1.2-2,2.1-2.6s1.9-0.9,3.1-0.9c2.2,0,4,0.9,5.2,2.7s1.9,4.3,1.9,7.6c0,3.3-0.6,5.9-1.9,7.7s-3.1,2.7-5.4,2.7
	c-1.1,0-2-0.3-2.8-0.8S1040.4,217.7,1039.8,216.6z M1047,209.5c0-1.9-0.3-3.4-0.9-4.5s-1.5-1.6-2.6-1.6s-2,0.5-2.6,1.6s-1,2.6-1,4.5
	s0.3,3.4,1,4.5s1.5,1.6,2.6,1.6s2-0.5,2.6-1.6S1047,211.4,1047,209.5z M1065.8,194.1v5.6h6.7v4h-6.7v9.3c0,0.9,0.2,1.5,0.6,1.9
	s1.1,0.6,2.1,0.6h4v4h-4.3c-3,0-5-0.5-6-1.4s-1.6-2.7-1.6-5.2v-9.1h-5v-4h5v-5.6H1065.8z M1115.9,206.6v12.8h-5.1v-12
	c0-1.4-0.2-2.5-0.6-3.1s-1.1-0.9-2-0.9c-0.9,0-1.7,0.4-2.2,1.2s-0.8,2-0.8,3.5v11.3h-5.1v-19.7h5.1v3c0.4-1.1,1-1.9,1.9-2.5
	s1.9-0.9,3.2-0.9c1.9,0,3.3,0.6,4.2,1.9S1115.9,204.1,1115.9,206.6z M1120.5,209.5c0-3.2,0.8-5.7,2.5-7.5s3.9-2.8,6.6-2.8
	c2.8,0,5,0.9,6.7,2.8s2.5,4.4,2.5,7.5s-0.8,5.7-2.5,7.5s-3.9,2.8-6.7,2.8c-2.8,0-5-0.9-6.6-2.8S1120.5,212.7,1120.5,209.5z
	 M1129.6,203.4c-1.2,0-2.2,0.5-2.9,1.6s-1.1,2.6-1.1,4.5s0.4,3.4,1.1,4.5s1.7,1.6,2.9,1.6c1.2,0,2.2-0.5,2.9-1.6s1.1-2.6,1.1-4.5
	s-0.4-3.4-1.1-4.5S1130.8,203.4,1129.6,203.4z M1152.5,194.1v5.6h6.7v4h-6.7v9.3c0,0.9,0.2,1.5,0.6,1.9s1.1,0.6,2.1,0.6h4v4h-4.3
	c-3,0-5-0.5-6-1.4s-1.6-2.7-1.6-5.2v-9.1h-5v-4h5v-5.6H1152.5z"/>
<linearGradient id="SVGID_00000161605931393828408440000015752028803642785671_" gradientUnits="userSpaceOnUse" x1="589.4424" y1="253.4272" x2="1169.9951" y2="253.4272">
	<stop  offset="2.117415e-03" style="stop-color:#ED7E00"/>
	<stop  offset="0.9995" style="stop-color:#E9BF00"/>
</linearGradient>
<path style="fill:url(#SVGID_00000161605931393828408440000015752028803642785671_);" d="M589.4,254.5c0-3.2,0.8-5.7,2.5-7.5
	s3.9-2.8,6.6-2.8c2.8,0,5,0.9,6.7,2.8s2.5,4.4,2.5,7.5s-0.8,5.7-2.5,7.5s-3.9,2.8-6.7,2.8c-2.8,0-5-0.9-6.6-2.8
	S589.4,257.7,589.4,254.5z M598.5,248.4c-1.2,0-2.2,0.5-2.9,1.6s-1.1,2.6-1.1,4.5s0.4,3.4,1.1,4.5s1.7,1.6,2.9,1.6
	c1.2,0,2.2-0.5,2.9-1.6s1.1-2.6,1.1-4.5s-0.4-3.4-1.1-4.5S599.8,248.4,598.5,248.4z M628.2,251.6v12.8h-5.1v-12
	c0-1.4-0.2-2.5-0.6-3.1s-1.1-0.9-2-0.9c-0.9,0-1.7,0.4-2.2,1.2s-0.8,2-0.8,3.5v11.3h-5.1v-19.7h5.1v3c0.4-1.1,1-1.9,1.9-2.5
	s1.9-0.9,3.2-0.9c1.9,0,3.3,0.6,4.2,1.9S628.2,249.1,628.2,251.6z M637.9,256.1v-15.2h-5.2v-4H643v19.1c0,1.5,0.2,2.6,0.7,3.3
	s1.3,1,2.4,1h4.1v4h-5.6c-2.4,0-4.2-0.6-5.3-1.9S637.9,259.1,637.9,256.1z M665.2,266.5c-0.7,1.9-1.5,3.2-2.5,4.1s-2.1,1.3-3.5,1.3
	H655v-3.9h2.1c1.1,0,1.8-0.2,2.3-0.5s1-1.2,1.5-2.5l0.4-1.1l-7.5-19.1h5.4l4.5,12.8l4.3-12.8h5.4L665.2,266.5z M710.3,251.9
	c0.5,0.1,1,0.3,1.3,0.7s0.8,1.1,1.4,2.2l4.7,9.4h-5.7l-3.2-6.6c-0.1-0.2-0.2-0.4-0.4-0.8c-0.9-2-2-3-3.3-3h-1.7v10.4h-5.2v-26.2h7.5
	c3.4,0,5.8,0.6,7.3,1.8s2.2,3.1,2.2,5.8c0,1.8-0.4,3.2-1.3,4.3S711.9,251.7,710.3,251.9z M703.6,242.4v7.2h2.4c1.4,0,2.4-0.3,3-0.8
	s0.9-1.5,0.9-2.8s-0.3-2.2-0.9-2.7s-1.6-0.8-3.1-0.8H703.6z M721.6,244.6h10.2v15.7h6.4v4h-18v-4h6.4v-11.8h-5V244.6z M726.7,235.1
	h5.2v6h-5.2V235.1z M758.1,263.3c-0.9,0.5-1.8,0.9-2.8,1.1s-2.1,0.4-3.2,0.4c-3,0-5.4-0.9-7.1-2.7s-2.6-4.4-2.6-7.6
	c0-3.2,0.9-5.8,2.6-7.6s4.1-2.8,7.1-2.8c1.1,0,2.1,0.1,3,0.4s2,0.6,2.9,1.1v4.7c-0.8-0.6-1.6-1.1-2.5-1.5s-1.8-0.5-2.8-0.5
	c-1.7,0-3,0.5-3.9,1.6s-1.4,2.6-1.4,4.6s0.5,3.5,1.4,4.5s2.2,1.6,3.9,1.6c1,0,1.9-0.2,2.8-0.5s1.7-0.8,2.5-1.5V263.3z M779.9,251.6
	v12.8h-5.1v-12c0-1.4-0.2-2.4-0.6-3s-1.1-0.9-2-0.9c-0.9,0-1.7,0.4-2.2,1.2s-0.8,2-0.8,3.4v11.3h-5.1V237h5.1v10.6
	c0.4-1.1,1-1.9,1.9-2.5s1.9-0.9,3.2-0.9c1.9,0,3.3,0.6,4.2,1.9S779.9,249.1,779.9,251.6z M795.8,238.1v9.8h-4.5v-9.8H795.8z
	 M821.9,245.3v4.5c-0.9-0.6-1.9-1.1-3-1.4s-2.1-0.5-3.1-0.5c-1.1,0-2,0.2-2.6,0.5s-0.9,0.8-0.9,1.5c0,0.9,1.3,1.7,3.8,2.3l0.2,0.1
	l1.5,0.4c1.9,0.4,3.2,1.2,4.1,2.2s1.3,2.3,1.3,4c0,2-0.7,3.5-2,4.6s-3.3,1.5-6,1.5c-1.2,0-2.4-0.1-3.6-0.3s-2.5-0.5-3.8-0.9v-4.5
	c1.1,0.6,2.3,1.1,3.5,1.5s2.3,0.5,3.4,0.5c1.2,0,2.1-0.2,2.7-0.5s0.9-0.9,0.9-1.5c0-0.7-0.2-1.2-0.7-1.5s-1.5-0.7-3.1-1.1l-1.4-0.3
	c-2-0.4-3.4-1.1-4.3-2.1s-1.4-2.2-1.4-3.8c0-1.9,0.7-3.4,2.1-4.4s3.3-1.6,5.8-1.6c1.1,0,2.2,0.1,3.3,0.3S820.8,244.9,821.9,245.3z
	 M856.8,252.8c-2.6-1-4.4-2-5.3-3.1s-1.4-2.6-1.4-4.4c0-2.4,0.8-4.2,2.3-5.6s3.6-2,6.3-2c1.2,0,2.4,0.1,3.6,0.4s2.4,0.7,3.6,1.2v5.1
	c-1.1-0.8-2.2-1.4-3.4-1.8s-2.3-0.6-3.4-0.6c-1.3,0-2.2,0.3-2.9,0.8s-1,1.2-1,2.2c0,0.7,0.2,1.3,0.7,1.8s1.5,1,3,1.6l2.2,0.8
	c2.1,0.8,3.7,1.8,4.7,3.1s1.5,2.9,1.5,4.8c0,2.6-0.8,4.6-2.3,5.9s-3.9,2-7.1,2c-1.3,0-2.6-0.2-3.9-0.5s-2.6-0.8-3.8-1.4v-5.4
	c1.4,1,2.7,1.7,4,2.2s2.6,0.7,3.8,0.7c1.3,0,2.3-0.3,3-0.9s1.1-1.4,1.1-2.4c0-0.8-0.2-1.5-0.7-2.1s-1.1-1.1-2-1.4L856.8,252.8z
	 M881.6,239.1v5.6h6.7v4h-6.7v9.3c0,0.9,0.2,1.5,0.6,1.9s1.1,0.6,2.1,0.6h4v4H884c-3,0-5-0.5-6-1.4s-1.6-2.7-1.6-5.2v-9.1h-5v-4h5
	v-5.6H881.6z M910.6,253.1v11.2h-5.1v-2.2c-0.6,0.9-1.4,1.5-2.4,2s-2,0.7-3.2,0.7c-2.2,0-4-0.6-5.2-1.8s-1.9-2.8-1.9-5
	c0-2.3,0.7-4,2.2-5.1s3.8-1.6,6.9-1.6h3.6v-0.9c0-0.8-0.3-1.5-0.9-1.9s-1.5-0.6-2.7-0.6c-1.2,0-2.4,0.2-3.6,0.5s-2.4,0.8-3.6,1.5
	v-4.4c1.1-0.5,2.3-0.8,3.5-1s2.4-0.3,3.7-0.3c3.2,0,5.4,0.7,6.7,2S910.6,249.8,910.6,253.1z M903.5,255.1c-1.9,0-3.3,0.2-4,0.7
	s-1.1,1.3-1.1,2.5c0,0.9,0.3,1.6,0.8,2.1s1.2,0.8,2.1,0.8c1.4,0,2.4-0.5,3.2-1.5s1.1-2.5,1.1-4.3v-0.4H903.5z M931.7,251.6v12.8
	h-5.1v-12c0-1.4-0.2-2.5-0.6-3.1s-1.1-0.9-2-0.9c-0.9,0-1.7,0.4-2.2,1.2s-0.8,2-0.8,3.5v11.3h-5.1v-19.7h5.1v3
	c0.4-1.1,1-1.9,1.9-2.5s1.9-0.9,3.2-0.9c1.9,0,3.3,0.6,4.2,1.9S931.7,249.1,931.7,251.6z M948.4,247.4V237h5.1v27.4h-5.1v-2.9
	c-0.6,1.1-1.3,2-2.1,2.6s-1.9,0.9-3.1,0.9c-2.2,0-4-0.9-5.2-2.7s-1.9-4.3-1.9-7.6c0-3.3,0.6-5.9,1.9-7.7s3.1-2.7,5.4-2.7
	c1.1,0,2,0.3,2.8,0.8S947.8,246.4,948.4,247.4z M941.2,254.5c0,1.9,0.3,3.4,0.9,4.5s1.5,1.6,2.6,1.6s2-0.5,2.6-1.6s1-2.6,1-4.5
	s-0.3-3.4-1-4.5s-1.5-1.6-2.6-1.6s-2,0.5-2.6,1.6S941.2,252.6,941.2,254.5z M975.7,253.1v11.2h-5.1v-2.2c-0.6,0.9-1.4,1.5-2.4,2
	s-2,0.7-3.2,0.7c-2.2,0-4-0.6-5.2-1.8s-1.9-2.8-1.9-5c0-2.3,0.7-4,2.2-5.1s3.8-1.6,6.9-1.6h3.6v-0.9c0-0.8-0.3-1.5-0.9-1.9
	s-1.5-0.6-2.7-0.6c-1.2,0-2.4,0.2-3.6,0.5s-2.4,0.8-3.6,1.5v-4.4c1.1-0.5,2.3-0.8,3.5-1s2.4-0.3,3.7-0.3c3.2,0,5.4,0.7,6.7,2
	S975.7,249.8,975.7,253.1z M968.5,255.1c-1.9,0-3.3,0.2-4,0.7s-1.1,1.3-1.1,2.5c0,0.9,0.3,1.6,0.8,2.1s1.2,0.8,2.1,0.8
	c1.4,0,2.4-0.5,3.2-1.5s1.1-2.5,1.1-4.3v-0.4H968.5z M998.1,250.1c-0.6-0.5-1.2-0.9-2-1.2s-1.6-0.4-2.5-0.4c-1.1,0-2,0.2-2.9,0.6
	s-1.4,0.9-1.9,1.7c-0.3,0.4-0.5,1-0.6,1.6s-0.2,1.6-0.2,2.9v9.1H983v-19.7h5.2v3.1c0.5-1.1,1.3-2,2.3-2.6s2.3-0.9,3.7-0.9
	c0.7,0,1.4,0.1,2.1,0.3s1.3,0.4,1.9,0.7V250.1z M1013.4,247.4V237h5.1v27.4h-5.1v-2.9c-0.6,1.1-1.3,2-2.1,2.6s-1.9,0.9-3.1,0.9
	c-2.2,0-4-0.9-5.2-2.7s-1.9-4.3-1.9-7.6c0-3.3,0.6-5.9,1.9-7.7s3.1-2.7,5.4-2.7c1.1,0,2,0.3,2.8,0.8S1012.8,246.4,1013.4,247.4z
	 M1006.3,254.5c0,1.9,0.3,3.4,0.9,4.5s1.5,1.6,2.6,1.6s2-0.5,2.6-1.6s1-2.6,1-4.5s-0.3-3.4-1-4.5s-1.5-1.6-2.6-1.6s-2,0.5-2.6,1.6
	S1006.3,252.6,1006.3,254.5z M1061.9,263.6c-0.8,0.4-1.7,0.7-2.6,0.9s-1.9,0.3-2.8,0.3c-3.5,0-6.2-1.2-8.1-3.5s-2.8-5.7-2.8-10.1
	c0-4.4,0.9-7.8,2.8-10.1s4.6-3.5,8.1-3.5c1,0,2,0.1,2.9,0.3s1.8,0.5,2.6,0.9v5.8c-0.9-0.8-1.8-1.4-2.6-1.8s-1.7-0.6-2.6-0.6
	c-1.9,0-3.3,0.8-4.3,2.3s-1.5,3.7-1.5,6.7c0,3,0.5,5.2,1.5,6.7s2.4,2.3,4.3,2.3c0.9,0,1.8-0.2,2.6-0.6s1.7-1,2.6-1.8V263.6z
	 M1066.3,254.5c0-3.2,0.8-5.7,2.5-7.5s3.9-2.8,6.6-2.8c2.8,0,5,0.9,6.7,2.8s2.5,4.4,2.5,7.5s-0.8,5.7-2.5,7.5s-3.9,2.8-6.7,2.8
	c-2.8,0-5-0.9-6.6-2.8S1066.3,257.7,1066.3,254.5z M1075.4,248.4c-1.2,0-2.2,0.5-2.9,1.6s-1.1,2.6-1.1,4.5s0.4,3.4,1.1,4.5
	s1.7,1.6,2.9,1.6c1.2,0,2.2-0.5,2.9-1.6s1.1-2.6,1.1-4.5s-0.4-3.4-1.1-4.5S1076.6,248.4,1075.4,248.4z M1093,256.1v-15.2h-5.2v-4
	h10.4v19.1c0,1.5,0.2,2.6,0.7,3.3s1.3,1,2.4,1h4.1v4h-5.6c-2.4,0-4.2-0.6-5.3-1.9S1093,259.1,1093,256.1z M1109.6,254.5
	c0-3.2,0.8-5.7,2.5-7.5s3.9-2.8,6.6-2.8c2.8,0,5,0.9,6.7,2.8s2.5,4.4,2.5,7.5s-0.8,5.7-2.5,7.5s-3.9,2.8-6.7,2.8
	c-2.8,0-5-0.9-6.6-2.8S1109.6,257.7,1109.6,254.5z M1118.7,248.4c-1.2,0-2.2,0.5-2.9,1.6s-1.1,2.6-1.1,4.5s0.4,3.4,1.1,4.5
	s1.7,1.6,2.9,1.6c1.2,0,2.2-0.5,2.9-1.6s1.1-2.6,1.1-4.5s-0.4-3.4-1.1-4.5S1120,248.4,1118.7,248.4z M1149.8,250.1
	c-0.6-0.5-1.2-0.9-2-1.2s-1.6-0.4-2.5-0.4c-1.1,0-2,0.2-2.9,0.6s-1.4,0.9-1.9,1.7c-0.3,0.4-0.5,1-0.6,1.6s-0.2,1.6-0.2,2.9v9.1h-5.2
	v-19.7h5.2v3.1c0.5-1.1,1.3-2,2.3-2.6s2.3-0.9,3.7-0.9c0.7,0,1.4,0.1,2.1,0.3s1.3,0.4,1.9,0.7V250.1z M1168.7,245.3v4.5
	c-0.9-0.6-1.9-1.1-3-1.4s-2.1-0.5-3.1-0.5c-1.1,0-2,0.2-2.6,0.5s-0.9,0.8-0.9,1.5c0,0.9,1.3,1.7,3.8,2.3l0.2,0.1l1.5,0.4
	c1.9,0.4,3.2,1.2,4.1,2.2s1.3,2.3,1.3,4c0,2-0.7,3.5-2,4.6s-3.3,1.5-6,1.5c-1.2,0-2.4-0.1-3.6-0.3s-2.5-0.5-3.8-0.9v-4.5
	c1.1,0.6,2.3,1.1,3.5,1.5s2.3,0.5,3.4,0.5c1.2,0,2.1-0.2,2.7-0.5s0.9-0.9,0.9-1.5c0-0.7-0.2-1.2-0.7-1.5s-1.5-0.7-3.1-1.1l-1.4-0.3
	c-2-0.4-3.4-1.1-4.3-2.1s-1.4-2.2-1.4-3.8c0-1.9,0.7-3.4,2.1-4.4s3.3-1.6,5.8-1.6c1.1,0,2.2,0.1,3.3,0.3S1167.6,244.9,1168.7,245.3z
	"/>
<linearGradient id="SVGID_00000060005849689918649690000007484569938038319549_" gradientUnits="userSpaceOnUse" x1="600.209" y1="294.9556" x2="1160.6348" y2="294.9556">
	<stop  offset="2.117411e-03" style="stop-color:#E8C100"/>
	<stop  offset="1" style="stop-color:#A0E900"/>
</linearGradient>
<path style="fill:url(#SVGID_00000060005849689918649690000007484569938038319549_);" d="M618,298.1v11.2h-5.1v-2.2
	c-0.6,0.9-1.4,1.5-2.4,2s-2,0.7-3.2,0.7c-2.2,0-4-0.6-5.2-1.8s-1.9-2.8-1.9-5c0-2.3,0.7-4,2.2-5.1s3.8-1.6,6.9-1.6h3.6v-0.9
	c0-0.8-0.3-1.5-0.9-1.9s-1.5-0.6-2.7-0.6c-1.2,0-2.4,0.2-3.6,0.5s-2.4,0.8-3.6,1.5v-4.4c1.1-0.5,2.3-0.8,3.5-1s2.4-0.3,3.7-0.3
	c3.2,0,5.4,0.7,6.7,2S618,294.8,618,298.1z M610.9,300.1c-1.9,0-3.3,0.2-4,0.7s-1.1,1.3-1.1,2.5c0,0.9,0.3,1.6,0.8,2.1
	s1.2,0.8,2.1,0.8c1.4,0,2.4-0.5,3.2-1.5s1.1-2.5,1.1-4.3v-0.4H610.9z M639.1,296.6v12.8h-5.1v-12c0-1.4-0.2-2.5-0.6-3.1
	s-1.1-0.9-2-0.9c-0.9,0-1.7,0.4-2.2,1.2s-0.8,2-0.8,3.5v11.3h-5.1v-19.7h5.1v3c0.4-1.1,1-1.9,1.9-2.5s1.9-0.9,3.2-0.9
	c1.9,0,3.3,0.6,4.2,1.9S639.1,294.1,639.1,296.6z M655.8,292.4V282h5.1v27.4h-5.1v-2.9c-0.6,1.1-1.3,2-2.1,2.6s-1.9,0.9-3.1,0.9
	c-2.2,0-4-0.9-5.2-2.7s-1.9-4.3-1.9-7.6c0-3.3,0.6-5.9,1.9-7.7s3.1-2.7,5.4-2.7c1.1,0,2,0.3,2.8,0.8S655.2,291.4,655.8,292.4z
	 M648.6,299.5c0,1.9,0.3,3.4,0.9,4.5s1.5,1.6,2.6,1.6s2-0.5,2.6-1.6s1-2.6,1-4.5s-0.3-3.4-1-4.5s-1.5-1.6-2.6-1.6s-2,0.5-2.6,1.6
	S648.6,297.6,648.6,299.5z M697.4,284.1v5.6h6.7v4h-6.7v9.3c0,0.9,0.2,1.5,0.6,1.9s1.1,0.6,2.1,0.6h4v4h-4.3c-3,0-5-0.5-6-1.4
	s-1.6-2.7-1.6-5.2v-9.1h-5v-4h5v-5.6H697.4z M725.8,296.6v12.8h-5.1v-12c0-1.4-0.2-2.4-0.6-3s-1.1-0.9-2-0.9c-0.9,0-1.7,0.4-2.2,1.2
	s-0.8,2-0.8,3.4v11.3h-5.1V282h5.1v10.6c0.4-1.1,1-1.9,1.9-2.5s1.9-0.9,3.2-0.9c1.9,0,3.3,0.6,4.2,1.9S725.8,294.1,725.8,296.6z
	 M748,308.4c-1.2,0.5-2.4,0.9-3.7,1.1s-2.6,0.4-3.9,0.4c-3.3,0-5.8-0.9-7.5-2.6s-2.6-4.3-2.6-7.6c0-3.2,0.8-5.7,2.5-7.6
	s4-2.8,6.9-2.8c2.9,0,5.2,0.9,6.8,2.6s2.4,4.2,2.4,7.3v2.1h-13.3c0,1.5,0.5,2.7,1.4,3.5s2.2,1.1,4,1.1c1.2,0,2.3-0.2,3.5-0.5
	s2.3-0.9,3.6-1.6V308.4z M743.6,297.3c0-1.4-0.4-2.4-1-3.1s-1.7-1-3-1c-1.2,0-2.1,0.4-2.8,1.1s-1.1,1.7-1.2,3.1L743.6,297.3z
	 M754.2,289.6h10.2v15.7h6.4v4h-18v-4h6.4v-11.8h-5V289.6z M759.2,280.1h5.2v6h-5.2V280.1z M792.2,295.1c-0.6-0.5-1.2-0.9-2-1.2
	s-1.6-0.4-2.5-0.4c-1.1,0-2,0.2-2.9,0.6s-1.4,0.9-1.9,1.7c-0.3,0.4-0.5,1-0.6,1.6s-0.2,1.6-0.2,2.9v9.1h-5.2v-19.7h5.2v3.1
	c0.5-1.1,1.3-2,2.3-2.6s2.3-0.9,3.7-0.9c0.7,0,1.4,0.1,2.1,0.3s1.3,0.4,1.9,0.7V295.1z M817.7,283.1h5.2v10h6.5v-10h5.2v26.2h-5.2
	v-11.7h-6.5v11.7h-5.2V283.1z M856.3,309.3h-16.3v-26.2h16.3v4.6h-11.2v5.7h10.1v4.6h-10.1v6.9h11.2V309.3z M879.8,309.3h-5.4
	l-5-8.7l-5,8.7h-5.4l7.7-13.3l-7.5-12.9h5.4l4.8,8.3l4.8-8.3h5.4l-7.5,12.9L879.8,309.3z M903.7,299.5c0-3.2,0.8-5.7,2.5-7.5
	s3.9-2.8,6.6-2.8c2.8,0,5,0.9,6.7,2.8s2.5,4.4,2.5,7.5s-0.8,5.7-2.5,7.5s-3.9,2.8-6.7,2.8c-2.8,0-5-0.9-6.6-2.8
	S903.7,302.7,903.7,299.5z M912.8,293.4c-1.2,0-2.2,0.5-2.9,1.6s-1.1,2.6-1.1,4.5s0.4,3.4,1.1,4.5s1.7,1.6,2.9,1.6
	c1.2,0,2.2-0.5,2.9-1.6s1.1-2.6,1.1-4.5s-0.4-3.4-1.1-4.5S914.1,293.4,912.8,293.4z M943.9,295.1c-0.6-0.5-1.2-0.9-2-1.2
	s-1.6-0.4-2.5-0.4c-1.1,0-2,0.2-2.9,0.6s-1.4,0.9-1.9,1.7c-0.3,0.4-0.5,1-0.6,1.6s-0.2,1.6-0.2,2.9v9.1h-5.2v-19.7h5.2v3.1
	c0.5-1.1,1.3-2,2.3-2.6s2.3-0.9,3.7-0.9c0.7,0,1.4,0.1,2.1,0.3s1.3,0.4,1.9,0.7V295.1z M981.2,296.9c0.5,0.1,1,0.3,1.3,0.7
	s0.8,1.1,1.4,2.2l4.7,9.4H983l-3.2-6.6c-0.1-0.2-0.2-0.4-0.4-0.8c-0.9-2-2-3-3.3-3h-1.7v10.4h-5.2v-26.2h7.5c3.4,0,5.8,0.6,7.3,1.8
	s2.2,3.1,2.2,5.8c0,1.8-0.4,3.2-1.3,4.3S982.8,296.7,981.2,296.9z M974.5,287.4v7.2h2.4c1.4,0,2.4-0.3,3-0.8s0.9-1.5,0.9-2.8
	s-0.3-2.2-0.9-2.7s-1.6-0.8-3.1-0.8H974.5z M1004,304.6v-5h-3.6v-4.4h8.1v12c-1,0.9-2.1,1.5-3.3,1.9s-2.5,0.7-3.9,0.7
	c-3.4,0-6-1.2-7.9-3.5s-2.8-5.7-2.8-10.1c0-4.4,0.9-7.8,2.8-10.1s4.6-3.5,8.1-3.5c1.1,0,2.1,0.1,3.1,0.4s2,0.7,2.9,1.3v5.7
	c-0.7-0.9-1.6-1.6-2.5-2.1s-2-0.7-3.1-0.7c-2,0-3.4,0.7-4.4,2.2s-1.5,3.7-1.5,6.7c0,2.9,0.5,5.1,1.4,6.7s2.3,2.3,4.1,2.3
	c0.5,0,1,0,1.4-0.1S1003.8,304.8,1004,304.6z M1012.6,283.1h8.5c2.9,0,5.1,0.6,6.6,1.7s2.2,2.8,2.2,5c0,1.7-0.4,3-1.3,4
	s-2.1,1.5-3.8,1.7c2,0.2,3.5,0.9,4.5,2s1.5,2.8,1.5,4.8c0,2.5-0.8,4.4-2.3,5.5s-4,1.7-7.4,1.7h-8.5V283.1z M1017.6,287.2v6.1h3.4
	c1.3,0,2.2-0.2,2.8-0.7s0.8-1.2,0.8-2.3s-0.3-1.9-0.9-2.3s-1.5-0.7-2.8-0.7H1017.6z M1017.6,297.4v7.8h3.4c1.7,0,2.8-0.3,3.5-0.8
	s1-1.5,1-2.9c0-1.4-0.3-2.4-1-3.1s-1.8-0.9-3.4-0.9H1017.6z M1072.4,308.3c-0.9,0.5-1.8,0.9-2.8,1.1s-2.1,0.4-3.2,0.4
	c-3,0-5.4-0.9-7.1-2.7s-2.6-4.4-2.6-7.6c0-3.2,0.9-5.8,2.6-7.6s4.1-2.8,7.1-2.8c1.1,0,2.1,0.1,3,0.4s2,0.6,2.9,1.1v4.7
	c-0.8-0.6-1.6-1.1-2.5-1.5s-1.8-0.5-2.8-0.5c-1.7,0-3,0.5-3.9,1.6s-1.4,2.6-1.4,4.6s0.5,3.5,1.4,4.5s2.2,1.6,3.9,1.6
	c1,0,1.9-0.2,2.8-0.5s1.7-0.8,2.5-1.5V308.3z M1077.1,299.5c0-3.2,0.8-5.7,2.5-7.5s3.9-2.8,6.6-2.8c2.8,0,5,0.9,6.7,2.8
	s2.5,4.4,2.5,7.5s-0.8,5.7-2.5,7.5s-3.9,2.8-6.7,2.8c-2.8,0-5-0.9-6.6-2.8S1077.1,302.7,1077.1,299.5z M1086.2,293.4
	c-1.2,0-2.2,0.5-2.9,1.6s-1.1,2.6-1.1,4.5s0.4,3.4,1.1,4.5s1.7,1.6,2.9,1.6c1.2,0,2.2-0.5,2.9-1.6s1.1-2.6,1.1-4.5s-0.4-3.4-1.1-4.5
	S1087.5,293.4,1086.2,293.4z M1103.9,301.1v-15.2h-5.2v-4h10.4v19.1c0,1.5,0.2,2.6,0.7,3.3s1.3,1,2.4,1h4.1v4h-5.6
	c-2.4,0-4.2-0.6-5.3-1.9S1103.9,304.1,1103.9,301.1z M1120.5,299.5c0-3.2,0.8-5.7,2.5-7.5s3.9-2.8,6.6-2.8c2.8,0,5,0.9,6.7,2.8
	s2.5,4.4,2.5,7.5s-0.8,5.7-2.5,7.5s-3.9,2.8-6.7,2.8c-2.8,0-5-0.9-6.6-2.8S1120.5,302.7,1120.5,299.5z M1129.6,293.4
	c-1.2,0-2.2,0.5-2.9,1.6s-1.1,2.6-1.1,4.5s0.4,3.4,1.1,4.5s1.7,1.6,2.9,1.6c1.2,0,2.2-0.5,2.9-1.6s1.1-2.6,1.1-4.5s-0.4-3.4-1.1-4.5
	S1130.8,293.4,1129.6,293.4z M1160.6,295.1c-0.6-0.5-1.2-0.9-2-1.2s-1.6-0.4-2.5-0.4c-1.1,0-2,0.2-2.9,0.6s-1.4,0.9-1.9,1.7
	c-0.3,0.4-0.5,1-0.6,1.6s-0.2,1.6-0.2,2.9v9.1h-5.2v-19.7h5.2v3.1c0.5-1.1,1.3-2,2.3-2.6s2.3-0.9,3.7-0.9c0.7,0,1.4,0.1,2.1,0.3
	s1.3,0.4,1.9,0.7V295.1z"/>
<linearGradient id="SVGID_00000102506439134585848880000018140239493421372836_" gradientUnits="userSpaceOnUse" x1="644.8574" y1="340.9131" x2="1117.0059" y2="340.9131">
	<stop  offset="1.673175e-03" style="stop-color:#96E800"/>
	<stop  offset="1" style="stop-color:#06E700"/>
</linearGradient>
<path style="fill:url(#SVGID_00000102506439134585848880000018140239493421372836_);" d="M660.6,353.3c-0.9,0.5-1.8,0.9-2.8,1.1
	s-2.1,0.4-3.2,0.4c-3,0-5.4-0.9-7.1-2.7s-2.6-4.4-2.6-7.6c0-3.2,0.9-5.8,2.6-7.6s4.1-2.8,7.1-2.8c1.1,0,2.1,0.1,3,0.4s2,0.6,2.9,1.1
	v4.7c-0.8-0.6-1.6-1.1-2.5-1.5s-1.8-0.5-2.8-0.5c-1.7,0-3,0.5-3.9,1.6s-1.4,2.6-1.4,4.6s0.5,3.5,1.4,4.5s2.2,1.6,3.9,1.6
	c1,0,1.9-0.2,2.8-0.5s1.7-0.8,2.5-1.5V353.3z M665.3,344.5c0-3.2,0.8-5.7,2.5-7.5s3.9-2.8,6.6-2.8c2.8,0,5,0.9,6.7,2.8
	s2.5,4.4,2.5,7.5s-0.8,5.7-2.5,7.5s-3.9,2.8-6.7,2.8c-2.8,0-5-0.9-6.6-2.8S665.3,347.7,665.3,344.5z M674.4,338.4
	c-1.2,0-2.2,0.5-2.9,1.6s-1.1,2.6-1.1,4.5s0.4,3.4,1.1,4.5s1.7,1.6,2.9,1.6c1.2,0,2.2-0.5,2.9-1.6s1.1-2.6,1.1-4.5s-0.4-3.4-1.1-4.5
	S675.6,338.4,674.4,338.4z M699.2,337.4V327h5.1v27.4h-5.1v-2.9c-0.6,1.1-1.3,2-2.1,2.6s-1.9,0.9-3.1,0.9c-2.2,0-4-0.9-5.2-2.7
	s-1.9-4.3-1.9-7.6c0-3.3,0.6-5.9,1.9-7.7s3.1-2.7,5.4-2.7c1.1,0,2,0.3,2.8,0.8S698.5,336.4,699.2,337.4z M692,344.5
	c0,1.9,0.3,3.4,0.9,4.5s1.5,1.6,2.6,1.6s2-0.5,2.6-1.6s1-2.6,1-4.5s-0.3-3.4-1-4.5s-1.5-1.6-2.6-1.6s-2,0.5-2.6,1.6
	S692,342.6,692,344.5z M726.3,353.4c-1.2,0.5-2.4,0.9-3.7,1.1s-2.6,0.4-3.9,0.4c-3.3,0-5.8-0.9-7.5-2.6s-2.6-4.3-2.6-7.6
	c0-3.2,0.8-5.7,2.5-7.6s4-2.8,6.9-2.8c2.9,0,5.2,0.9,6.8,2.6s2.4,4.2,2.4,7.3v2.1h-13.3c0,1.5,0.5,2.7,1.4,3.5s2.2,1.1,4,1.1
	c1.2,0,2.3-0.2,3.5-0.5s2.3-0.9,3.6-1.6V353.4z M721.9,342.3c0-1.4-0.4-2.4-1-3.1s-1.7-1-3-1c-1.2,0-2.1,0.4-2.8,1.1
	s-1.1,1.7-1.2,3.1L721.9,342.3z M746,335.3v4.5c-0.9-0.6-1.9-1.1-3-1.4s-2.1-0.5-3.1-0.5c-1.1,0-2,0.2-2.6,0.5s-0.9,0.8-0.9,1.5
	c0,0.9,1.3,1.7,3.8,2.3l0.2,0.1l1.5,0.4c1.9,0.4,3.2,1.2,4.1,2.2s1.3,2.3,1.3,4c0,2-0.7,3.5-2,4.6s-3.3,1.5-6,1.5
	c-1.2,0-2.4-0.1-3.6-0.3s-2.5-0.5-3.8-0.9v-4.5c1.1,0.6,2.3,1.1,3.5,1.5s2.3,0.5,3.4,0.5c1.2,0,2.1-0.2,2.7-0.5s0.9-0.9,0.9-1.5
	c0-0.7-0.2-1.2-0.7-1.5s-1.5-0.7-3.1-1.1l-1.4-0.3c-2-0.4-3.4-1.1-4.3-2.1s-1.4-2.2-1.4-3.8c0-1.9,0.7-3.4,2.1-4.4s3.3-1.6,5.8-1.6
	c1.1,0,2.2,0.1,3.3,0.3S745,334.9,746,335.3z M779.7,337.4c0.6-1.1,1.4-1.9,2.2-2.5s1.8-0.8,2.8-0.8c2.3,0,4.1,0.9,5.4,2.7
	s1.9,4.3,1.9,7.7c0,3.3-0.6,5.8-1.9,7.6s-3,2.7-5.2,2.7c-1.2,0-2.2-0.3-3.1-0.9s-1.6-1.4-2.1-2.6v2.9h-5.1V327h5.1V337.4z
	 M786.9,344.5c0-1.9-0.3-3.4-0.9-4.5s-1.5-1.6-2.6-1.6s-2,0.5-2.6,1.6s-1,2.6-1,4.5s0.3,3.4,1,4.5s1.5,1.6,2.6,1.6s2-0.5,2.6-1.6
	S786.9,346.4,786.9,344.5z M796.4,347.5v-12.8h5.2v12c0,1.4,0.2,2.4,0.6,3s1.1,0.9,2,0.9s1.6-0.4,2.2-1.2s0.8-2,0.8-3.4v-11.3h5.2
	v19.7h-5.2v-2.9c-0.4,1.1-1,1.9-1.9,2.5s-1.9,0.9-3.2,0.9c-1.9,0-3.3-0.6-4.2-1.9S796.4,349.9,796.4,347.5z M827.4,329.1v5.6h6.7v4
	h-6.7v9.3c0,0.9,0.2,1.5,0.6,1.9s1.1,0.6,2.1,0.6h4v4h-4.3c-3,0-5-0.5-6-1.4s-1.6-2.7-1.6-5.2v-9.1h-5v-4h5v-5.6H827.4z
	 M878.1,343.1v11.2H873v-2.2c-0.6,0.9-1.4,1.5-2.4,2s-2,0.7-3.2,0.7c-2.2,0-4-0.6-5.2-1.8s-1.9-2.8-1.9-5c0-2.3,0.7-4,2.2-5.1
	s3.8-1.6,6.9-1.6h3.6v-0.9c0-0.8-0.3-1.5-0.9-1.9s-1.5-0.6-2.7-0.6c-1.2,0-2.4,0.2-3.6,0.5s-2.4,0.8-3.6,1.5v-4.4
	c1.1-0.5,2.3-0.8,3.5-1s2.4-0.3,3.7-0.3c3.2,0,5.4,0.7,6.7,2S878.1,339.8,878.1,343.1z M870.9,345.1c-1.9,0-3.3,0.2-4,0.7
	s-1.1,1.3-1.1,2.5c0,0.9,0.3,1.6,0.8,2.1s1.2,0.8,2.1,0.8c1.4,0,2.4-0.5,3.2-1.5s1.1-2.5,1.1-4.3v-0.4H870.9z M887.1,346.1v-15.2
	h-5.2v-4h10.4v19.1c0,1.5,0.2,2.6,0.7,3.3s1.3,1,2.4,1h4.1v4H894c-2.4,0-4.2-0.6-5.3-1.9S887.1,349.1,887.1,346.1z M919.4,335.3v4.5
	c-0.9-0.6-1.9-1.1-3-1.4s-2.1-0.5-3.1-0.5c-1.1,0-2,0.2-2.6,0.5s-0.9,0.8-0.9,1.5c0,0.9,1.3,1.7,3.8,2.3l0.2,0.1l1.5,0.4
	c1.9,0.4,3.2,1.2,4.1,2.2s1.3,2.3,1.3,4c0,2-0.7,3.5-2,4.6s-3.3,1.5-6,1.5c-1.2,0-2.4-0.1-3.6-0.3s-2.5-0.5-3.8-0.9v-4.5
	c1.1,0.6,2.3,1.1,3.5,1.5s2.3,0.5,3.4,0.5c1.2,0,2.1-0.2,2.7-0.5s0.9-0.9,0.9-1.5c0-0.7-0.2-1.2-0.7-1.5s-1.5-0.7-3.1-1.1l-1.4-0.3
	c-2-0.4-3.4-1.1-4.3-2.1s-1.4-2.2-1.4-3.8c0-1.9,0.7-3.4,2.1-4.4s3.3-1.6,5.8-1.6c1.1,0,2.2,0.1,3.3,0.3S918.4,334.9,919.4,335.3z
	 M925.4,344.5c0-3.2,0.8-5.7,2.5-7.5s3.9-2.8,6.6-2.8c2.8,0,5,0.9,6.7,2.8s2.5,4.4,2.5,7.5s-0.8,5.7-2.5,7.5s-3.9,2.8-6.7,2.8
	c-2.8,0-5-0.9-6.6-2.8S925.4,347.7,925.4,344.5z M934.5,338.4c-1.2,0-2.2,0.5-2.9,1.6s-1.1,2.6-1.1,4.5s0.4,3.4,1.1,4.5
	s1.7,1.6,2.9,1.6c1.2,0,2.2-0.5,2.9-1.6s1.1-2.6,1.1-4.5s-0.4-3.4-1.1-4.5S935.7,338.4,934.5,338.4z M979.1,329.1v5.6h6.7v4h-6.7
	v9.3c0,0.9,0.2,1.5,0.6,1.9s1.1,0.6,2.1,0.6h4v4h-4.3c-3,0-5-0.5-6-1.4s-1.6-2.7-1.6-5.2v-9.1h-5v-4h5v-5.6H979.1z M1007.5,341.6
	v12.8h-5.1v-12c0-1.4-0.2-2.4-0.6-3s-1.1-0.9-2-0.9c-0.9,0-1.7,0.4-2.2,1.2s-0.8,2-0.8,3.4v11.3h-5.1V327h5.1v10.6
	c0.4-1.1,1-1.9,1.9-2.5s1.9-0.9,3.2-0.9c1.9,0,3.3,0.6,4.2,1.9S1007.5,339.1,1007.5,341.6z M1029.7,353.4c-1.2,0.5-2.4,0.9-3.7,1.1
	s-2.6,0.4-3.9,0.4c-3.3,0-5.8-0.9-7.5-2.6s-2.6-4.3-2.6-7.6c0-3.2,0.8-5.7,2.5-7.6s4-2.8,6.9-2.8c2.9,0,5.2,0.9,6.8,2.6
	s2.4,4.2,2.4,7.3v2.1h-13.3c0,1.5,0.5,2.7,1.4,3.5s2.2,1.1,4,1.1c1.2,0,2.3-0.2,3.5-0.5s2.3-0.9,3.6-1.6V353.4z M1025.4,342.3
	c0-1.4-0.4-2.4-1-3.1s-1.7-1-3-1c-1.2,0-2.1,0.4-2.8,1.1s-1.1,1.7-1.2,3.1L1025.4,342.3z M1074.9,354.3h-5.4l-5-8.7l-5,8.7h-5.4
	l7.7-13.3l-7.5-12.9h5.4l4.8,8.3l4.8-8.3h5.4l-7.5,12.9L1074.9,354.3z M1078.7,349.8h5.8v-17l-5.4,1.3v-4.7l5.4-1.3h5v21.7h5.8v4.6
	h-16.6V349.8z M1100.4,349.8h5.8v-17l-5.4,1.3v-4.7l5.4-1.3h5v21.7h5.8v4.6h-16.6V349.8z"/>
<linearGradient id="SVGID_00000132064142937724343290000004447834545751270814_" gradientUnits="userSpaceOnUse" x1="655.6943" y1="385.9131" x2="1106.3096" y2="385.9131">
	<stop  offset="2.393150e-03" style="stop-color:#00E806"/>
	<stop  offset="1" style="stop-color:#00F9AC"/>
</linearGradient>
<path style="fill:url(#SVGID_00000132064142937724343290000004447834545751270814_);" d="M671.4,398.3c-0.9,0.5-1.8,0.9-2.8,1.1
	s-2.1,0.4-3.2,0.4c-3,0-5.4-0.9-7.1-2.7s-2.6-4.4-2.6-7.6c0-3.2,0.9-5.8,2.6-7.6s4.1-2.8,7.1-2.8c1.1,0,2.1,0.1,3,0.4s2,0.6,2.9,1.1
	v4.7c-0.8-0.6-1.6-1.1-2.5-1.5s-1.8-0.5-2.8-0.5c-1.7,0-3,0.5-3.9,1.6s-1.4,2.6-1.4,4.6s0.5,3.5,1.4,4.5s2.2,1.6,3.9,1.6
	c1,0,1.9-0.2,2.8-0.5s1.7-0.8,2.5-1.5V398.3z M676.1,389.5c0-3.2,0.8-5.7,2.5-7.5s3.9-2.8,6.6-2.8c2.8,0,5,0.9,6.7,2.8
	s2.5,4.4,2.5,7.5s-0.8,5.7-2.5,7.5s-3.9,2.8-6.7,2.8c-2.8,0-5-0.9-6.6-2.8S676.1,392.7,676.1,389.5z M685.2,383.4
	c-1.2,0-2.2,0.5-2.9,1.6s-1.1,2.6-1.1,4.5s0.4,3.4,1.1,4.5s1.7,1.6,2.9,1.6c1.2,0,2.2-0.5,2.9-1.6s1.1-2.6,1.1-4.5s-0.4-3.4-1.1-4.5
	S686.5,383.4,685.2,383.4z M702.9,391.1v-15.2h-5.2v-4H708v19.1c0,1.5,0.2,2.6,0.7,3.3s1.3,1,2.4,1h4.1v4h-5.6
	c-2.4,0-4.2-0.6-5.3-1.9S702.9,394.1,702.9,391.1z M719.5,389.5c0-3.2,0.8-5.7,2.5-7.5s3.9-2.8,6.6-2.8c2.8,0,5,0.9,6.7,2.8
	s2.5,4.4,2.5,7.5s-0.8,5.7-2.5,7.5s-3.9,2.8-6.7,2.8c-2.8,0-5-0.9-6.6-2.8S719.5,392.7,719.5,389.5z M728.6,383.4
	c-1.2,0-2.2,0.5-2.9,1.6s-1.1,2.6-1.1,4.5s0.4,3.4,1.1,4.5s1.7,1.6,2.9,1.6c1.2,0,2.2-0.5,2.9-1.6s1.1-2.6,1.1-4.5s-0.4-3.4-1.1-4.5
	S729.8,383.4,728.6,383.4z M759.7,385.1c-0.6-0.5-1.2-0.9-2-1.2s-1.6-0.4-2.5-0.4c-1.1,0-2,0.2-2.9,0.6s-1.4,0.9-1.9,1.7
	c-0.3,0.4-0.5,1-0.6,1.6s-0.2,1.6-0.2,2.9v9.1h-5.2v-19.7h5.2v3.1c0.5-1.1,1.3-2,2.3-2.6s2.3-0.9,3.7-0.9c0.7,0,1.4,0.1,2.1,0.3
	s1.3,0.4,1.9,0.7V385.1z M778.5,380.3v4.5c-0.9-0.6-1.9-1.1-3-1.4s-2.1-0.5-3.1-0.5c-1.1,0-2,0.2-2.6,0.5s-0.9,0.8-0.9,1.5
	c0,0.9,1.3,1.7,3.8,2.3l0.2,0.1l1.5,0.4c1.9,0.4,3.2,1.2,4.1,2.2s1.3,2.3,1.3,4c0,2-0.7,3.5-2,4.6s-3.3,1.5-6,1.5
	c-1.2,0-2.4-0.1-3.6-0.3s-2.5-0.5-3.8-0.9v-4.5c1.1,0.6,2.3,1.1,3.5,1.5s2.3,0.5,3.4,0.5c1.2,0,2.1-0.2,2.7-0.5s0.9-0.9,0.9-1.5
	c0-0.7-0.2-1.2-0.7-1.5s-1.5-0.7-3.1-1.1l-1.4-0.3c-2-0.4-3.4-1.1-4.3-2.1s-1.4-2.2-1.4-3.8c0-1.9,0.7-3.4,2.1-4.4s3.3-1.6,5.8-1.6
	c1.1,0,2.2,0.1,3.3,0.3S777.5,379.9,778.5,380.3z M823.3,386.6v12.8h-5.1v-12c0-1.4-0.2-2.5-0.6-3.1s-1.1-0.9-2-0.9
	c-0.9,0-1.7,0.4-2.2,1.2s-0.8,2-0.8,3.5v11.3h-5.1v-19.7h5.1v3c0.4-1.1,1-1.9,1.9-2.5s1.9-0.9,3.2-0.9c1.9,0,3.3,0.6,4.2,1.9
	S823.3,384.1,823.3,386.6z M845.6,388.1v11.2h-5.1v-2.2c-0.6,0.9-1.4,1.5-2.4,2s-2,0.7-3.2,0.7c-2.2,0-4-0.6-5.2-1.8s-1.9-2.8-1.9-5
	c0-2.3,0.7-4,2.2-5.1s3.8-1.6,6.9-1.6h3.6v-0.9c0-0.8-0.3-1.5-0.9-1.9s-1.5-0.6-2.7-0.6c-1.2,0-2.4,0.2-3.6,0.5s-2.4,0.8-3.6,1.5
	v-4.4c1.1-0.5,2.3-0.8,3.5-1s2.4-0.3,3.7-0.3c3.2,0,5.4,0.7,6.7,2S845.6,384.8,845.6,388.1z M838.4,390.1c-1.9,0-3.3,0.2-4,0.7
	s-1.1,1.3-1.1,2.5c0,0.9,0.3,1.6,0.8,2.1s1.2,0.8,2.1,0.8c1.4,0,2.4-0.5,3.2-1.5s1.1-2.5,1.1-4.3v-0.4H838.4z M859.9,381.6
	c0.4-0.8,0.9-1.4,1.5-1.8s1.3-0.6,2.2-0.6c1.7,0,2.9,0.6,3.5,1.8s1,3.6,1,7.3v11.1h-4.2v-12.6c0-1.5-0.1-2.4-0.3-2.9
	s-0.6-0.7-1.2-0.7s-1,0.3-1.2,0.8s-0.4,1.5-0.4,2.9v12.6h-4.2v-12.6c0-1.4-0.1-2.4-0.4-2.9s-0.6-0.8-1.2-0.8s-1,0.2-1.2,0.7
	s-0.3,1.5-0.3,2.9v12.6h-4.2v-19.7h3.7v2c0.3-0.8,0.8-1.4,1.4-1.8s1.4-0.7,2.2-0.7s1.5,0.2,2.2,0.7S859.8,380.9,859.9,381.6z
	 M888.9,398.4c-1.2,0.5-2.4,0.9-3.7,1.1s-2.6,0.4-3.9,0.4c-3.3,0-5.8-0.9-7.5-2.6s-2.6-4.3-2.6-7.6c0-3.2,0.8-5.7,2.5-7.6
	s4-2.8,6.9-2.8c2.9,0,5.2,0.9,6.8,2.6s2.4,4.2,2.4,7.3v2.1h-13.3c0,1.5,0.5,2.7,1.4,3.5s2.2,1.1,4,1.1c1.2,0,2.3-0.2,3.5-0.5
	s2.3-0.9,3.6-1.6V398.4z M884.5,387.3c0-1.4-0.4-2.4-1-3.1s-1.7-1-3-1c-1.2,0-2.1,0.4-2.8,1.1s-1.1,1.7-1.2,3.1L884.5,387.3z
	 M908.6,380.3v4.5c-0.9-0.6-1.9-1.1-3-1.4s-2.1-0.5-3.1-0.5c-1.1,0-2,0.2-2.6,0.5s-0.9,0.8-0.9,1.5c0,0.9,1.3,1.7,3.8,2.3l0.2,0.1
	l1.5,0.4c1.9,0.4,3.2,1.2,4.1,2.2s1.3,2.3,1.3,4c0,2-0.7,3.5-2,4.6s-3.3,1.5-6,1.5c-1.2,0-2.4-0.1-3.6-0.3s-2.5-0.5-3.8-0.9v-4.5
	c1.1,0.6,2.3,1.1,3.5,1.5s2.3,0.5,3.4,0.5c1.2,0,2.1-0.2,2.7-0.5s0.9-0.9,0.9-1.5c0-0.7-0.2-1.2-0.7-1.5s-1.5-0.7-3.1-1.1l-1.4-0.3
	c-2-0.4-3.4-1.1-4.3-2.1s-1.4-2.2-1.4-3.8c0-1.9,0.7-3.4,2.1-4.4s3.3-1.6,5.8-1.6c1.1,0,2.2,0.1,3.3,0.3S907.5,379.9,908.6,380.3z
	 M946.6,374.1v5.6h6.7v4h-6.7v9.3c0,0.9,0.2,1.5,0.6,1.9s1.1,0.6,2.1,0.6h4v4H949c-3,0-5-0.5-6-1.4s-1.6-2.7-1.6-5.2v-9.1h-5v-4h5
	v-5.6H946.6z M975,386.6v12.8h-5.1v-12c0-1.4-0.2-2.4-0.6-3s-1.1-0.9-2-0.9c-0.9,0-1.7,0.4-2.2,1.2s-0.8,2-0.8,3.4v11.3h-5.1V372
	h5.1v10.6c0.4-1.1,1-1.9,1.9-2.5s1.9-0.9,3.2-0.9c1.9,0,3.3,0.6,4.2,1.9S975,384.1,975,386.6z M997.3,388.1v11.2h-5.1v-2.2
	c-0.6,0.9-1.4,1.5-2.4,2s-2,0.7-3.2,0.7c-2.2,0-4-0.6-5.2-1.8s-1.9-2.8-1.9-5c0-2.3,0.7-4,2.2-5.1s3.8-1.6,6.9-1.6h3.6v-0.9
	c0-0.8-0.3-1.5-0.9-1.9s-1.5-0.6-2.7-0.6c-1.2,0-2.4,0.2-3.6,0.5s-2.4,0.8-3.6,1.5v-4.4c1.1-0.5,2.3-0.8,3.5-1s2.4-0.3,3.7-0.3
	c3.2,0,5.4,0.7,6.7,2S997.3,384.8,997.3,388.1z M990.2,390.1c-1.9,0-3.3,0.2-4,0.7s-1.1,1.3-1.1,2.5c0,0.9,0.3,1.6,0.8,2.1
	s1.2,0.8,2.1,0.8c1.4,0,2.4-0.5,3.2-1.5s1.1-2.5,1.1-4.3v-0.4H990.2z M1011.7,374.1v5.6h6.7v4h-6.7v9.3c0,0.9,0.2,1.5,0.6,1.9
	s1.1,0.6,2.1,0.6h4v4h-4.3c-3,0-5-0.5-6-1.4s-1.6-2.7-1.6-5.2v-9.1h-5v-4h5v-5.6H1011.7z M1042.9,379.6h4.3l2.3,15.1l2.1-9.9h4.2
	l2.1,9.9l2.4-15.1h4.3l-3.6,19.7h-4.9l-2.4-10.2l-2.4,10.2h-4.9L1042.9,379.6z M1083.9,398.4c-1.2,0.5-2.4,0.9-3.7,1.1
	s-2.6,0.4-3.9,0.4c-3.3,0-5.8-0.9-7.5-2.6s-2.6-4.3-2.6-7.6c0-3.2,0.8-5.7,2.5-7.6s4-2.8,6.9-2.8c2.9,0,5.2,0.9,6.8,2.6
	s2.4,4.2,2.4,7.3v2.1h-13.3c0,1.5,0.5,2.7,1.4,3.5s2.2,1.1,4,1.1c1.2,0,2.3-0.2,3.5-0.5s2.3-0.9,3.6-1.6V398.4z M1079.6,387.3
	c0-1.4-0.4-2.4-1-3.1s-1.7-1-3-1c-1.2,0-2.1,0.4-2.8,1.1s-1.1,1.7-1.2,3.1L1079.6,387.3z M1094,382.4c0.6-1.1,1.4-1.9,2.2-2.5
	s1.8-0.8,2.8-0.8c2.3,0,4.1,0.9,5.4,2.7s1.9,4.3,1.9,7.7c0,3.3-0.6,5.8-1.9,7.6s-3,2.7-5.2,2.7c-1.2,0-2.2-0.3-3.1-0.9
	s-1.6-1.4-2.1-2.6v2.9h-5.1V372h5.1V382.4z M1101.2,389.5c0-1.9-0.3-3.4-0.9-4.5s-1.5-1.6-2.6-1.6s-2,0.5-2.6,1.6s-1,2.6-1,4.5
	s0.3,3.4,1,4.5s1.5,1.6,2.6,1.6s2-0.5,2.6-1.6S1101.2,391.4,1101.2,389.5z"/>
<linearGradient id="SVGID_00000005227445163502228230000000062024134745074581_" gradientUnits="userSpaceOnUse" x1="612.3467" y1="430.9131" x2="1148.2158" y2="430.9131">
	<stop  offset="2.102095e-03" style="stop-color:#00F9AC"/>
	<stop  offset="1" style="stop-color:#0088FF"/>
</linearGradient>
<path style="fill:url(#SVGID_00000005227445163502228230000000062024134745074581_);" d="M628,443.3c-0.9,0.5-1.8,0.9-2.8,1.1
	s-2.1,0.4-3.2,0.4c-3,0-5.4-0.9-7.1-2.7s-2.6-4.4-2.6-7.6c0-3.2,0.9-5.8,2.6-7.6s4.1-2.8,7.1-2.8c1.1,0,2.1,0.1,3,0.4s2,0.6,2.9,1.1
	v4.7c-0.8-0.6-1.6-1.1-2.5-1.5s-1.8-0.5-2.8-0.5c-1.7,0-3,0.5-3.9,1.6s-1.4,2.6-1.4,4.6s0.5,3.5,1.4,4.5s2.2,1.6,3.9,1.6
	c1,0,1.9-0.2,2.8-0.5s1.7-0.8,2.5-1.5V443.3z M632.8,434.5c0-3.2,0.8-5.7,2.5-7.5s3.9-2.8,6.6-2.8c2.8,0,5,0.9,6.7,2.8
	s2.5,4.4,2.5,7.5s-0.8,5.7-2.5,7.5s-3.9,2.8-6.7,2.8c-2.8,0-5-0.9-6.6-2.8S632.8,437.7,632.8,434.5z M641.9,428.4
	c-1.2,0-2.2,0.5-2.9,1.6s-1.1,2.6-1.1,4.5s0.4,3.4,1.1,4.5s1.7,1.6,2.9,1.6c1.2,0,2.2-0.5,2.9-1.6s1.1-2.6,1.1-4.5s-0.4-3.4-1.1-4.5
	S643.1,428.4,641.9,428.4z M659.5,436.1v-15.2h-5.2v-4h10.4v19.1c0,1.5,0.2,2.6,0.7,3.3s1.3,1,2.4,1h4.1v4h-5.6
	c-2.4,0-4.2-0.6-5.3-1.9S659.5,439.1,659.5,436.1z M676.1,434.5c0-3.2,0.8-5.7,2.5-7.5s3.9-2.8,6.6-2.8c2.8,0,5,0.9,6.7,2.8
	s2.5,4.4,2.5,7.5s-0.8,5.7-2.5,7.5s-3.9,2.8-6.7,2.8c-2.8,0-5-0.9-6.6-2.8S676.1,437.7,676.1,434.5z M685.2,428.4
	c-1.2,0-2.2,0.5-2.9,1.6s-1.1,2.6-1.1,4.5s0.4,3.4,1.1,4.5s1.7,1.6,2.9,1.6c1.2,0,2.2-0.5,2.9-1.6s1.1-2.6,1.1-4.5s-0.4-3.4-1.1-4.5
	S686.5,428.4,685.2,428.4z M716.3,430.1c-0.6-0.5-1.2-0.9-2-1.2s-1.6-0.4-2.5-0.4c-1.1,0-2,0.2-2.9,0.6s-1.4,0.9-1.9,1.7
	c-0.3,0.4-0.5,1-0.6,1.6s-0.2,1.6-0.2,2.9v9.1h-5.2v-19.7h5.2v3.1c0.5-1.1,1.3-2,2.3-2.6s2.3-0.9,3.7-0.9c0.7,0,1.4,0.1,2.1,0.3
	s1.3,0.4,1.9,0.7V430.1z M735.2,425.3v4.5c-0.9-0.6-1.9-1.1-3-1.4s-2.1-0.5-3.1-0.5c-1.1,0-2,0.2-2.6,0.5s-0.9,0.8-0.9,1.5
	c0,0.9,1.3,1.7,3.8,2.3l0.2,0.1l1.5,0.4c1.9,0.4,3.2,1.2,4.1,2.2s1.3,2.3,1.3,4c0,2-0.7,3.5-2,4.6s-3.3,1.5-6,1.5
	c-1.2,0-2.4-0.1-3.6-0.3s-2.5-0.5-3.8-0.9v-4.5c1.1,0.6,2.3,1.1,3.5,1.5s2.3,0.5,3.4,0.5c1.2,0,2.1-0.2,2.7-0.5s0.9-0.9,0.9-1.5
	c0-0.7-0.2-1.2-0.7-1.5s-1.5-0.7-3.1-1.1l-1.4-0.3c-2-0.4-3.4-1.1-4.3-2.1s-1.4-2.2-1.4-3.8c0-1.9,0.7-3.4,2.1-4.4s3.3-1.6,5.8-1.6
	c1.1,0,2.2,0.1,3.3,0.3S734.1,424.9,735.2,425.3z M761.1,424.6h4.3l2.3,15.1l2.1-9.9h4.2l2.1,9.9l2.4-15.1h4.3l-3.6,19.7h-4.9
	l-2.4-10.2l-2.4,10.2h-4.9L761.1,424.6z M802.2,443.4c-1.2,0.5-2.4,0.9-3.7,1.1s-2.6,0.4-3.9,0.4c-3.3,0-5.8-0.9-7.5-2.6
	s-2.6-4.3-2.6-7.6c0-3.2,0.8-5.7,2.5-7.6s4-2.8,6.9-2.8c2.9,0,5.2,0.9,6.8,2.6s2.4,4.2,2.4,7.3v2.1h-13.3c0,1.5,0.5,2.7,1.4,3.5
	s2.2,1.1,4,1.1c1.2,0,2.3-0.2,3.5-0.5s2.3-0.9,3.6-1.6V443.4z M797.8,432.3c0-1.4-0.4-2.4-1-3.1s-1.7-1-3-1c-1.2,0-2.1,0.4-2.8,1.1
	s-1.1,1.7-1.2,3.1L797.8,432.3z M824.7,430.1c-0.6-0.5-1.2-0.9-2-1.2s-1.6-0.4-2.5-0.4c-1.1,0-2,0.2-2.9,0.6s-1.4,0.9-1.9,1.7
	c-0.3,0.4-0.5,1-0.6,1.6s-0.2,1.6-0.2,2.9v9.1h-5.2v-19.7h5.2v3.1c0.5-1.1,1.3-2,2.3-2.6s2.3-0.9,3.7-0.9c0.7,0,1.4,0.1,2.1,0.3
	s1.3,0.4,1.9,0.7V430.1z M845.5,443.4c-1.2,0.5-2.4,0.9-3.7,1.1s-2.6,0.4-3.9,0.4c-3.3,0-5.8-0.9-7.5-2.6s-2.6-4.3-2.6-7.6
	c0-3.2,0.8-5.7,2.5-7.6s4-2.8,6.9-2.8c2.9,0,5.2,0.9,6.8,2.6s2.4,4.2,2.4,7.3v2.1H833c0,1.5,0.5,2.7,1.4,3.5s2.2,1.1,4,1.1
	c1.2,0,2.3-0.2,3.5-0.5s2.3-0.9,3.6-1.6V443.4z M841.1,432.3c0-1.4-0.4-2.4-1-3.1s-1.7-1-3-1c-1.2,0-2.1,0.4-2.8,1.1
	s-1.1,1.7-1.2,3.1L841.1,432.3z M877.2,427.4c0.6-1.1,1.4-1.9,2.2-2.5s1.8-0.8,2.8-0.8c2.3,0,4.1,0.9,5.4,2.7s1.9,4.3,1.9,7.7
	c0,3.3-0.6,5.8-1.9,7.6s-3,2.7-5.2,2.7c-1.2,0-2.2-0.3-3.1-0.9s-1.6-1.4-2.1-2.6v2.9h-5.1V417h5.1V427.4z M884.4,434.5
	c0-1.9-0.3-3.4-0.9-4.5s-1.5-1.6-2.6-1.6s-2,0.5-2.6,1.6s-1,2.6-1,4.5s0.3,3.4,1,4.5s1.5,1.6,2.6,1.6s2-0.5,2.6-1.6
	S884.4,436.4,884.4,434.5z M910.6,433.1v11.2h-5.1v-2.2c-0.6,0.9-1.4,1.5-2.4,2s-2,0.7-3.2,0.7c-2.2,0-4-0.6-5.2-1.8s-1.9-2.8-1.9-5
	c0-2.3,0.7-4,2.2-5.1s3.8-1.6,6.9-1.6h3.6v-0.9c0-0.8-0.3-1.5-0.9-1.9s-1.5-0.6-2.7-0.6c-1.2,0-2.4,0.2-3.6,0.5s-2.4,0.8-3.6,1.5
	v-4.4c1.1-0.5,2.3-0.8,3.5-1s2.4-0.3,3.7-0.3c3.2,0,5.4,0.7,6.7,2S910.6,429.8,910.6,433.1z M903.5,435.1c-1.9,0-3.3,0.2-4,0.7
	s-1.1,1.3-1.1,2.5c0,0.9,0.3,1.6,0.8,2.1s1.2,0.8,2.1,0.8c1.4,0,2.4-0.5,3.2-1.5s1.1-2.5,1.1-4.3v-0.4H903.5z M930.2,425.3v4.5
	c-0.9-0.6-1.9-1.1-3-1.4s-2.1-0.5-3.1-0.5c-1.1,0-2,0.2-2.6,0.5s-0.9,0.8-0.9,1.5c0,0.9,1.3,1.7,3.8,2.3l0.2,0.1l1.5,0.4
	c1.9,0.4,3.2,1.2,4.1,2.2s1.3,2.3,1.3,4c0,2-0.7,3.5-2,4.6s-3.3,1.5-6,1.5c-1.2,0-2.4-0.1-3.6-0.3s-2.5-0.5-3.8-0.9v-4.5
	c1.1,0.6,2.3,1.1,3.5,1.5s2.3,0.5,3.4,0.5c1.2,0,2.1-0.2,2.7-0.5s0.9-0.9,0.9-1.5c0-0.7-0.2-1.2-0.7-1.5s-1.5-0.7-3.1-1.1l-1.4-0.3
	c-2-0.4-3.4-1.1-4.3-2.1s-1.4-2.2-1.4-3.8c0-1.9,0.7-3.4,2.1-4.4s3.3-1.6,5.8-1.6c1.1,0,2.2,0.1,3.3,0.3S929.2,424.9,930.2,425.3z
	 M953.9,443.4c-1.2,0.5-2.4,0.9-3.7,1.1s-2.6,0.4-3.9,0.4c-3.3,0-5.8-0.9-7.5-2.6s-2.6-4.3-2.6-7.6c0-3.2,0.8-5.7,2.5-7.6
	s4-2.8,6.9-2.8c2.9,0,5.2,0.9,6.8,2.6s2.4,4.2,2.4,7.3v2.1h-13.3c0,1.5,0.5,2.7,1.4,3.5s2.2,1.1,4,1.1c1.2,0,2.3-0.2,3.5-0.5
	s2.3-0.9,3.6-1.6V443.4z M949.5,432.3c0-1.4-0.4-2.4-1-3.1s-1.7-1-3-1c-1.2,0-2.1,0.4-2.8,1.1s-1.1,1.7-1.2,3.1L949.5,432.3z
	 M970.1,427.4V417h5.1v27.4h-5.1v-2.9c-0.6,1.1-1.3,2-2.1,2.6s-1.9,0.9-3.1,0.9c-2.2,0-4-0.9-5.2-2.7s-1.9-4.3-1.9-7.6
	c0-3.3,0.6-5.9,1.9-7.7s3.1-2.7,5.4-2.7c1.1,0,2,0.3,2.8,0.8S969.4,426.4,970.1,427.4z M962.9,434.5c0,1.9,0.3,3.4,0.9,4.5
	s1.5,1.6,2.6,1.6s2-0.5,2.6-1.6s1-2.6,1-4.5s-0.3-3.4-1-4.5s-1.5-1.6-2.6-1.6s-2,0.5-2.6,1.6S962.9,432.6,962.9,434.5z
	 M1001.2,434.5c0-3.2,0.8-5.7,2.5-7.5s3.9-2.8,6.6-2.8c2.8,0,5,0.9,6.7,2.8s2.5,4.4,2.5,7.5s-0.8,5.7-2.5,7.5s-3.9,2.8-6.7,2.8
	c-2.8,0-5-0.9-6.6-2.8S1001.2,437.7,1001.2,434.5z M1010.4,428.4c-1.2,0-2.2,0.5-2.9,1.6s-1.1,2.6-1.1,4.5s0.4,3.4,1.1,4.5
	s1.7,1.6,2.9,1.6c1.2,0,2.2-0.5,2.9-1.6s1.1-2.6,1.1-4.5s-0.4-3.4-1.1-4.5S1011.6,428.4,1010.4,428.4z M1040,431.6v12.8h-5.1v-12
	c0-1.4-0.2-2.5-0.6-3.1s-1.1-0.9-2-0.9c-0.9,0-1.7,0.4-2.2,1.2s-0.8,2-0.8,3.5v11.3h-5.1v-19.7h5.1v3c0.4-1.1,1-1.9,1.9-2.5
	s1.9-0.9,3.2-0.9c1.9,0,3.3,0.6,4.2,1.9S1040,429.1,1040,431.6z M1050.8,437.9h5.9v6.5h-5.9V437.9z M1086.4,418.1h5.6l5.1,10.5
	l5.1-10.5h5.6l-8.1,15.9v10.3h-5.2V434L1086.4,418.1z M1109.6,434.5c0-3.2,0.8-5.7,2.5-7.5s3.9-2.8,6.6-2.8c2.8,0,5,0.9,6.7,2.8
	s2.5,4.4,2.5,7.5s-0.8,5.7-2.5,7.5s-3.9,2.8-6.7,2.8c-2.8,0-5-0.9-6.6-2.8S1109.6,437.7,1109.6,434.5z M1118.7,428.4
	c-1.2,0-2.2,0.5-2.9,1.6s-1.1,2.6-1.1,4.5s0.4,3.4,1.1,4.5s1.7,1.6,2.9,1.6c1.2,0,2.2-0.5,2.9-1.6s1.1-2.6,1.1-4.5s-0.4-3.4-1.1-4.5
	S1120,428.4,1118.7,428.4z M1132.4,437.5v-12.8h5.2v12c0,1.4,0.2,2.4,0.6,3s1.1,0.9,2,0.9s1.6-0.4,2.2-1.2s0.8-2,0.8-3.4v-11.3h5.2
	v19.7h-5.2v-2.9c-0.4,1.1-1,1.9-1.9,2.5s-1.9,0.9-3.2,0.9c-1.9,0-3.3-0.6-4.2-1.9S1132.4,439.9,1132.4,437.5z"/>
<linearGradient id="SVGID_00000106853567529688547840000009423945196535949215_" gradientUnits="userSpaceOnUse" x1="590.6729" y1="478.4443" x2="1171.1904" y2="478.4443">
	<stop  offset="3.104626e-04" style="stop-color:#0088FF"/>
	<stop  offset="0.9998" style="stop-color:#0000FF"/>
</linearGradient>
<path style="fill:url(#SVGID_00000106853567529688547840000009423945196535949215_);" d="M606.4,488.3c-0.9,0.5-1.8,0.9-2.8,1.1
	s-2.1,0.4-3.2,0.4c-3,0-5.4-0.9-7.1-2.7s-2.6-4.4-2.6-7.6c0-3.2,0.9-5.8,2.6-7.6s4.1-2.8,7.1-2.8c1.1,0,2.1,0.1,3,0.4s2,0.6,2.9,1.1
	v4.7c-0.8-0.6-1.6-1.1-2.5-1.5s-1.8-0.5-2.8-0.5c-1.7,0-3,0.5-3.9,1.6s-1.4,2.6-1.4,4.6s0.5,3.5,1.4,4.5s2.2,1.6,3.9,1.6
	c1,0,1.9-0.2,2.8-0.5s1.7-0.8,2.5-1.5V488.3z M628.9,478.1v11.2h-5.1v-2.2c-0.6,0.9-1.4,1.5-2.4,2s-2,0.7-3.2,0.7
	c-2.2,0-4-0.6-5.2-1.8s-1.9-2.8-1.9-5c0-2.3,0.7-4,2.2-5.1s3.8-1.6,6.9-1.6h3.6v-0.9c0-0.8-0.3-1.5-0.9-1.9s-1.5-0.6-2.7-0.6
	c-1.2,0-2.4,0.2-3.6,0.5s-2.4,0.8-3.6,1.5v-4.4c1.1-0.5,2.3-0.8,3.5-1s2.4-0.3,3.7-0.3c3.2,0,5.4,0.7,6.7,2S628.9,474.8,628.9,478.1
	z M621.7,480.1c-1.9,0-3.3,0.2-4,0.7s-1.1,1.3-1.1,2.5c0,0.9,0.3,1.6,0.8,2.1s1.2,0.8,2.1,0.8c1.4,0,2.4-0.5,3.2-1.5
	s1.1-2.5,1.1-4.3v-0.4H621.7z M649.9,476.6v12.8h-5.1v-12c0-1.4-0.2-2.5-0.6-3.1s-1.1-0.9-2-0.9c-0.9,0-1.7,0.4-2.2,1.2
	s-0.8,2-0.8,3.5v11.3h-5.1v-19.7h5.1v3c0.4-1.1,1-1.9,1.9-2.5s1.9-0.9,3.2-0.9c1.9,0,3.3,0.6,4.2,1.9S649.9,474.1,649.9,476.6z
	 M691.8,470.3v4.5c-0.9-0.6-1.9-1.1-3-1.4s-2.1-0.5-3.1-0.5c-1.1,0-2,0.2-2.6,0.5s-0.9,0.8-0.9,1.5c0,0.9,1.3,1.7,3.8,2.3l0.2,0.1
	l1.5,0.4c1.9,0.4,3.2,1.2,4.1,2.2s1.3,2.3,1.3,4c0,2-0.7,3.5-2,4.6s-3.3,1.5-6,1.5c-1.2,0-2.4-0.1-3.6-0.3s-2.5-0.5-3.8-0.9v-4.5
	c1.1,0.6,2.3,1.1,3.5,1.5s2.3,0.5,3.4,0.5c1.2,0,2.1-0.2,2.7-0.5s0.9-0.9,0.9-1.5c0-0.7-0.2-1.2-0.7-1.5s-1.5-0.7-3.1-1.1l-1.4-0.3
	c-2-0.4-3.4-1.1-4.3-2.1s-1.4-2.2-1.4-3.8c0-1.9,0.7-3.4,2.1-4.4s3.3-1.6,5.8-1.6c1.1,0,2.2,0.1,3.3,0.3S690.8,469.9,691.8,470.3z
	 M703.9,486.6v10.3h-5.1v-27.2h5.1v3c0.5-1.1,1.2-2,2.1-2.6s1.9-0.9,3.1-0.9c2.2,0,4,0.9,5.2,2.7s1.9,4.3,1.9,7.6
	c0,3.3-0.6,5.9-1.9,7.7s-3.1,2.7-5.4,2.7c-1.1,0-2-0.3-2.8-0.8S704.5,487.7,703.9,486.6z M711,479.5c0-1.9-0.3-3.4-0.9-4.5
	s-1.5-1.6-2.6-1.6s-2,0.5-2.6,1.6s-1,2.6-1,4.5s0.3,3.4,1,4.5s1.5,1.6,2.6,1.6s2-0.5,2.6-1.6S711,481.4,711,479.5z M737.1,488.4
	c-1.2,0.5-2.4,0.9-3.7,1.1s-2.6,0.4-3.9,0.4c-3.3,0-5.8-0.9-7.5-2.6s-2.6-4.3-2.6-7.6c0-3.2,0.8-5.7,2.5-7.6s4-2.8,6.9-2.8
	c2.9,0,5.2,0.9,6.8,2.6s2.4,4.2,2.4,7.3v2.1h-13.3c0,1.5,0.5,2.7,1.4,3.5s2.2,1.1,4,1.1c1.2,0,2.3-0.2,3.5-0.5s2.3-0.9,3.6-1.6
	V488.4z M732.8,477.3c0-1.4-0.4-2.4-1-3.1s-1.7-1-3-1c-1.2,0-2.1,0.4-2.8,1.1s-1.1,1.7-1.2,3.1L732.8,477.3z M758.1,488.3
	c-0.9,0.5-1.8,0.9-2.8,1.1s-2.1,0.4-3.2,0.4c-3,0-5.4-0.9-7.1-2.7s-2.6-4.4-2.6-7.6c0-3.2,0.9-5.8,2.6-7.6s4.1-2.8,7.1-2.8
	c1.1,0,2.1,0.1,3,0.4s2,0.6,2.9,1.1v4.7c-0.8-0.6-1.6-1.1-2.5-1.5s-1.8-0.5-2.8-0.5c-1.7,0-3,0.5-3.9,1.6s-1.4,2.6-1.4,4.6
	s0.5,3.5,1.4,4.5s2.2,1.6,3.9,1.6c1,0,1.9-0.2,2.8-0.5s1.7-0.8,2.5-1.5V488.3z M765,469.6h10.2v15.7h6.4v4h-18v-4h6.4v-11.8h-5
	V469.6z M770,460.1h5.2v6H770V460.1z M795.8,467.9v1.7h6v4h-6v15.7h-5.2v-15.7h-4.8v-4h4.8v-1.4c0-2.4,0.5-4,1.5-4.9
	s2.8-1.4,5.5-1.4h4.2v4h-4c-0.8,0-1.3,0.1-1.6,0.4S795.8,467.2,795.8,467.9z M817,491.5c-0.7,1.9-1.5,3.2-2.5,4.1s-2.1,1.3-3.5,1.3
	h-4.3v-3.9h2.1c1.1,0,1.8-0.2,2.3-0.5s1-1.2,1.5-2.5l0.4-1.1l-7.5-19.1h5.4l4.5,12.8l4.3-12.8h5.4L817,491.5z M867.3,478.1v11.2
	h-5.1v-2.2c-0.6,0.9-1.4,1.5-2.4,2s-2,0.7-3.2,0.7c-2.2,0-4-0.6-5.2-1.8s-1.9-2.8-1.9-5c0-2.3,0.7-4,2.2-5.1s3.8-1.6,6.9-1.6h3.6
	v-0.9c0-0.8-0.3-1.5-0.9-1.9s-1.5-0.6-2.7-0.6c-1.2,0-2.4,0.2-3.6,0.5s-2.4,0.8-3.6,1.5v-4.4c1.1-0.5,2.3-0.8,3.5-1s2.4-0.3,3.7-0.3
	c3.2,0,5.4,0.7,6.7,2S867.3,474.8,867.3,478.1z M860.1,480.1c-1.9,0-3.3,0.2-4,0.7s-1.1,1.3-1.1,2.5c0,0.9,0.3,1.6,0.8,2.1
	s1.2,0.8,2.1,0.8c1.4,0,2.4-0.5,3.2-1.5s1.1-2.5,1.1-4.3v-0.4H860.1z M888.3,476.6v12.8h-5.1v-12c0-1.4-0.2-2.5-0.6-3.1
	s-1.1-0.9-2-0.9c-0.9,0-1.7,0.4-2.2,1.2s-0.8,2-0.8,3.5v11.3h-5.1v-19.7h5.1v3c0.4-1.1,1-1.9,1.9-2.5s1.9-0.9,3.2-0.9
	c1.9,0,3.3,0.6,4.2,1.9S888.3,474.1,888.3,476.6z M903.7,491.5c-0.7,1.9-1.5,3.2-2.5,4.1s-2.1,1.3-3.5,1.3h-4.3v-3.9h2.1
	c1.1,0,1.8-0.2,2.3-0.5s1-1.2,1.5-2.5l0.4-1.1l-7.5-19.1h5.4l4.5,12.8l4.3-12.8h5.4L903.7,491.5z M936.2,479.5
	c0-3.2,0.8-5.7,2.5-7.5s3.9-2.8,6.6-2.8c2.8,0,5,0.9,6.7,2.8s2.5,4.4,2.5,7.5s-0.8,5.7-2.5,7.5s-3.9,2.8-6.7,2.8
	c-2.8,0-5-0.9-6.6-2.8S936.2,482.7,936.2,479.5z M945.3,473.4c-1.2,0-2.2,0.5-2.9,1.6s-1.1,2.6-1.1,4.5s0.4,3.4,1.1,4.5
	s1.7,1.6,2.9,1.6c1.2,0,2.2-0.5,2.9-1.6s1.1-2.6,1.1-4.5s-0.4-3.4-1.1-4.5S946.6,473.4,945.3,473.4z M969.2,467.9v1.7h6v4h-6v15.7
	H964v-15.7h-4.8v-4h4.8v-1.4c0-2.4,0.5-4,1.5-4.9s2.8-1.4,5.5-1.4h4.2v4h-4c-0.8,0-1.3,0.1-1.6,0.4S969.2,467.2,969.2,467.9z
	 M1011.7,464.1v5.6h6.7v4h-6.7v9.3c0,0.9,0.2,1.5,0.6,1.9s1.1,0.6,2.1,0.6h4v4h-4.3c-3,0-5-0.5-6-1.4s-1.6-2.7-1.6-5.2v-9.1h-5v-4h5
	v-5.6H1011.7z M1040,476.6v12.8h-5.1v-12c0-1.4-0.2-2.4-0.6-3s-1.1-0.9-2-0.9c-0.9,0-1.7,0.4-2.2,1.2s-0.8,2-0.8,3.4v11.3h-5.1V462
	h5.1v10.6c0.4-1.1,1-1.9,1.9-2.5s1.9-0.9,3.2-0.9c1.9,0,3.3,0.6,4.2,1.9S1040,474.1,1040,476.6z M1044.6,479.5
	c0-3.2,0.8-5.7,2.5-7.5s3.9-2.8,6.6-2.8c2.8,0,5,0.9,6.7,2.8s2.5,4.4,2.5,7.5s-0.8,5.7-2.5,7.5s-3.9,2.8-6.7,2.8
	c-2.8,0-5-0.9-6.6-2.8S1044.6,482.7,1044.6,479.5z M1053.7,473.4c-1.2,0-2.2,0.5-2.9,1.6s-1.1,2.6-1.1,4.5s0.4,3.4,1.1,4.5
	s1.7,1.6,2.9,1.6c1.2,0,2.2-0.5,2.9-1.6s1.1-2.6,1.1-4.5s-0.4-3.4-1.1-4.5S1054.9,473.4,1053.7,473.4z M1082,470.3v4.5
	c-0.9-0.6-1.9-1.1-3-1.4s-2.1-0.5-3.1-0.5c-1.1,0-2,0.2-2.6,0.5s-0.9,0.8-0.9,1.5c0,0.9,1.3,1.7,3.8,2.3l0.2,0.1l1.5,0.4
	c1.9,0.4,3.2,1.2,4.1,2.2s1.3,2.3,1.3,4c0,2-0.7,3.5-2,4.6s-3.3,1.5-6,1.5c-1.2,0-2.4-0.1-3.6-0.3s-2.5-0.5-3.8-0.9v-4.5
	c1.1,0.6,2.3,1.1,3.5,1.5s2.3,0.5,3.4,0.5c1.2,0,2.1-0.2,2.7-0.5s0.9-0.9,0.9-1.5c0-0.7-0.2-1.2-0.7-1.5s-1.5-0.7-3.1-1.1l-1.4-0.3
	c-2-0.4-3.4-1.1-4.3-2.1s-1.4-2.2-1.4-3.8c0-1.9,0.7-3.4,2.1-4.4s3.3-1.6,5.8-1.6c1.1,0,2.2,0.1,3.3,0.3S1080.9,469.9,1082,470.3z
	 M1105.6,488.4c-1.2,0.5-2.4,0.9-3.7,1.1s-2.6,0.4-3.9,0.4c-3.3,0-5.8-0.9-7.5-2.6s-2.6-4.3-2.6-7.6c0-3.2,0.8-5.7,2.5-7.6
	s4-2.8,6.9-2.8c2.9,0,5.2,0.9,6.8,2.6s2.4,4.2,2.4,7.3v2.1h-13.3c0,1.5,0.5,2.7,1.4,3.5s2.2,1.1,4,1.1c1.2,0,2.3-0.2,3.5-0.5
	s2.3-0.9,3.6-1.6V488.4z M1101.2,477.3c0-1.4-0.4-2.4-1-3.1s-1.7-1-3-1c-1.2,0-2.1,0.4-2.8,1.1s-1.1,1.7-1.2,3.1L1101.2,477.3z
	 M1141.7,464.1v5.6h6.7v4h-6.7v9.3c0,0.9,0.2,1.5,0.6,1.9s1.1,0.6,2.1,0.6h4v4h-4.3c-3,0-5-0.5-6-1.4s-1.6-2.7-1.6-5.2v-9.1h-5v-4h5
	v-5.6H1141.7z M1153,479.5c0-3.2,0.8-5.7,2.5-7.5s3.9-2.8,6.6-2.8c2.8,0,5,0.9,6.7,2.8s2.5,4.4,2.5,7.5s-0.8,5.7-2.5,7.5
	s-3.9,2.8-6.7,2.8c-2.8,0-5-0.9-6.6-2.8S1153,482.7,1153,479.5z M1162.1,473.4c-1.2,0-2.2,0.5-2.9,1.6s-1.1,2.6-1.1,4.5
	s0.4,3.4,1.1,4.5s1.7,1.6,2.9,1.6c1.2,0,2.2-0.5,2.9-1.6s1.1-2.6,1.1-4.5s-0.4-3.4-1.1-4.5S1163.3,473.4,1162.1,473.4z"/>
<path d="M1115.8,527.9h5.9v6.5h-5.9V527.9z"/>
<rect x="1408" y="40" style="fill:none;" width="2.7" height="0"/>
<linearGradient id="SVGID_00000148620644257774488360000014369475823022386600_" gradientUnits="userSpaceOnUse" x1="632.79" y1="523.4268" x2="1118.7197" y2="523.4268">
	<stop  offset="0" style="stop-color:#0000FF"/>
	<stop  offset="0.9997" style="stop-color:#5F00FF"/>
</linearGradient>
<path style="fill:url(#SVGID_00000148620644257774488360000014369475823022386600_);" d="M650.3,532.9c0,3.2-0.7,5.4-2.1,6.8
	s-3.7,2.1-6.9,2.1c-1.1,0-2.1-0.1-3.2-0.2s-2.1-0.4-3.2-0.7v-4.7c1,0.5,2,0.9,3,1.2s2,0.4,3.1,0.4c1.5,0,2.5-0.3,3.2-1s1-1.8,1-3.2
	v-2.1c-0.5,0.9-1.2,1.6-2,2.1s-1.8,0.7-3,0.7c-2.2,0-4-0.9-5.4-2.6s-2-4.1-2-7.2c0-3.1,0.7-5.6,2-7.4s3.1-2.7,5.3-2.7
	c1.1,0,2.1,0.3,3,0.8s1.6,1.3,2.1,2.2v-2.5h5.2V532.9z M645.2,524.2c0-1.8-0.3-3.2-1-4.2s-1.5-1.6-2.6-1.6c-1.1,0-1.9,0.5-2.6,1.6
	s-1,2.5-1,4.2c0,1.8,0.3,3.2,1,4.3s1.5,1.6,2.6,1.6c1.1,0,2-0.5,2.6-1.6S645.2,525.9,645.2,524.2z M672.1,533.4
	c-1.2,0.5-2.4,0.9-3.7,1.1s-2.6,0.4-3.9,0.4c-3.3,0-5.8-0.9-7.5-2.6s-2.6-4.3-2.6-7.6c0-3.2,0.8-5.7,2.5-7.6s4-2.8,6.9-2.8
	c2.9,0,5.2,0.9,6.8,2.6s2.4,4.2,2.4,7.3v2.1h-13.3c0,1.5,0.5,2.7,1.4,3.5s2.2,1.1,4,1.1c1.2,0,2.3-0.2,3.5-0.5s2.3-0.9,3.6-1.6
	V533.4z M667.8,522.3c0-1.4-0.4-2.4-1-3.1s-1.7-1-3-1c-1.2,0-2.1,0.4-2.8,1.1s-1.1,1.7-1.2,3.1L667.8,522.3z M693.2,521.6v12.8h-5.1
	v-12c0-1.4-0.2-2.5-0.6-3.1s-1.1-0.9-2-0.9c-0.9,0-1.7,0.4-2.2,1.2s-0.8,2-0.8,3.5v11.3h-5.1v-19.7h5.1v3c0.4-1.1,1-1.9,1.9-2.5
	s1.9-0.9,3.2-0.9c1.9,0,3.3,0.6,4.2,1.9S693.2,519.1,693.2,521.6z M715.5,533.4c-1.2,0.5-2.4,0.9-3.7,1.1s-2.6,0.4-3.9,0.4
	c-3.3,0-5.8-0.9-7.5-2.6s-2.6-4.3-2.6-7.6c0-3.2,0.8-5.7,2.5-7.6s4-2.8,6.9-2.8c2.9,0,5.2,0.9,6.8,2.6s2.4,4.2,2.4,7.3v2.1h-13.3
	c0,1.5,0.5,2.7,1.4,3.5s2.2,1.1,4,1.1c1.2,0,2.3-0.2,3.5-0.5s2.3-0.9,3.6-1.6V533.4z M711.1,522.3c0-1.4-0.4-2.4-1-3.1s-1.7-1-3-1
	c-1.2,0-2.1,0.4-2.8,1.1s-1.1,1.7-1.2,3.1L711.1,522.3z M738,520.1c-0.6-0.5-1.2-0.9-2-1.2s-1.6-0.4-2.5-0.4c-1.1,0-2,0.2-2.9,0.6
	s-1.4,0.9-1.9,1.7c-0.3,0.4-0.5,1-0.6,1.6s-0.2,1.6-0.2,2.9v9.1h-5.2v-19.7h5.2v3.1c0.5-1.1,1.3-2,2.3-2.6s2.3-0.9,3.7-0.9
	c0.7,0,1.4,0.1,2.1,0.3s1.3,0.4,1.9,0.7V520.1z M758.9,523.1v11.2h-5.1v-2.2c-0.6,0.9-1.4,1.5-2.4,2s-2,0.7-3.2,0.7
	c-2.2,0-4-0.6-5.2-1.8s-1.9-2.8-1.9-5c0-2.3,0.7-4,2.2-5.1s3.8-1.6,6.9-1.6h3.6v-0.9c0-0.8-0.3-1.5-0.9-1.9s-1.5-0.6-2.7-0.6
	c-1.2,0-2.4,0.2-3.6,0.5s-2.4,0.8-3.6,1.5v-4.4c1.1-0.5,2.3-0.8,3.5-1s2.4-0.3,3.7-0.3c3.2,0,5.4,0.7,6.7,2S758.9,519.8,758.9,523.1
	z M751.7,525.1c-1.9,0-3.3,0.2-4,0.7s-1.1,1.3-1.1,2.5c0,0.9,0.3,1.6,0.8,2.1s1.2,0.8,2.1,0.8c1.4,0,2.4-0.5,3.2-1.5
	s1.1-2.5,1.1-4.3v-0.4H751.7z M773.2,509.1v5.6h6.7v4h-6.7v9.3c0,0.9,0.2,1.5,0.6,1.9s1.1,0.6,2.1,0.6h4v4h-4.3c-3,0-5-0.5-6-1.4
	s-1.6-2.7-1.6-5.2v-9.1h-5v-4h5v-5.6H773.2z M802.2,533.4c-1.2,0.5-2.4,0.9-3.7,1.1s-2.6,0.4-3.9,0.4c-3.3,0-5.8-0.9-7.5-2.6
	s-2.6-4.3-2.6-7.6c0-3.2,0.8-5.7,2.5-7.6s4-2.8,6.9-2.8c2.9,0,5.2,0.9,6.8,2.6s2.4,4.2,2.4,7.3v2.1h-13.3c0,1.5,0.5,2.7,1.4,3.5
	s2.2,1.1,4,1.1c1.2,0,2.3-0.2,3.5-0.5s2.3-0.9,3.6-1.6V533.4z M797.8,522.3c0-1.4-0.4-2.4-1-3.1s-1.7-1-3-1c-1.2,0-2.1,0.4-2.8,1.1
	s-1.1,1.7-1.2,3.1L797.8,522.3z M845.4,532.9c0,3.2-0.7,5.4-2.1,6.8s-3.7,2.1-6.9,2.1c-1.1,0-2.1-0.1-3.2-0.2s-2.1-0.4-3.2-0.7v-4.7
	c1,0.5,2,0.9,3,1.2s2,0.4,3.1,0.4c1.5,0,2.5-0.3,3.2-1s1-1.8,1-3.2v-2.1c-0.5,0.9-1.2,1.6-2,2.1s-1.8,0.7-3,0.7
	c-2.2,0-4-0.9-5.4-2.6s-2-4.1-2-7.2c0-3.1,0.7-5.6,2-7.4s3.1-2.7,5.3-2.7c1.1,0,2.1,0.3,3,0.8s1.6,1.3,2.1,2.2v-2.5h5.2V532.9z
	 M840.2,524.2c0-1.8-0.3-3.2-1-4.2s-1.5-1.6-2.6-1.6c-1.1,0-1.9,0.5-2.6,1.6s-1,2.5-1,4.2c0,1.8,0.3,3.2,1,4.3s1.5,1.6,2.6,1.6
	c1.1,0,2-0.5,2.6-1.6S840.2,525.9,840.2,524.2z M868,520.1c-0.6-0.5-1.2-0.9-2-1.2s-1.6-0.4-2.5-0.4c-1.1,0-2,0.2-2.9,0.6
	s-1.4,0.9-1.9,1.7c-0.3,0.4-0.5,1-0.6,1.6s-0.2,1.6-0.2,2.9v9.1h-5.2v-19.7h5.2v3.1c0.5-1.1,1.3-2,2.3-2.6s2.3-0.9,3.7-0.9
	c0.7,0,1.4,0.1,2.1,0.3s1.3,0.4,1.9,0.7V520.1z M889,523.1v11.2h-5.1v-2.2c-0.6,0.9-1.4,1.5-2.4,2s-2,0.7-3.2,0.7
	c-2.2,0-4-0.6-5.2-1.8s-1.9-2.8-1.9-5c0-2.3,0.7-4,2.2-5.1s3.8-1.6,6.9-1.6h3.6v-0.9c0-0.8-0.3-1.5-0.9-1.9s-1.5-0.6-2.7-0.6
	c-1.2,0-2.4,0.2-3.6,0.5s-2.4,0.8-3.6,1.5v-4.4c1.1-0.5,2.3-0.8,3.5-1s2.4-0.3,3.7-0.3c3.2,0,5.4,0.7,6.7,2S889,519.8,889,523.1z
	 M881.8,525.1c-1.9,0-3.3,0.2-4,0.7s-1.1,1.3-1.1,2.5c0,0.9,0.3,1.6,0.8,2.1s1.2,0.8,2.1,0.8c1.4,0,2.4-0.5,3.2-1.5s1.1-2.5,1.1-4.3
	v-0.4H881.8z M905.1,517.4V507h5.1v27.4h-5.1v-2.9c-0.6,1.1-1.3,2-2.1,2.6s-1.9,0.9-3.1,0.9c-2.2,0-4-0.9-5.2-2.7s-1.9-4.3-1.9-7.6
	c0-3.3,0.6-5.9,1.9-7.7s3.1-2.7,5.4-2.7c1.1,0,2,0.3,2.8,0.8S904.4,516.4,905.1,517.4z M897.9,524.5c0,1.9,0.3,3.4,0.9,4.5
	s1.5,1.6,2.6,1.6s2-0.5,2.6-1.6s1-2.6,1-4.5s-0.3-3.4-1-4.5s-1.5-1.6-2.6-1.6s-2,0.5-2.6,1.6S897.9,522.6,897.9,524.5z M916.7,514.6
	h10.2v15.7h6.4v4h-18v-4h6.4v-11.8h-5V514.6z M921.8,505.1h5.2v6h-5.2V505.1z M953.9,533.4c-1.2,0.5-2.4,0.9-3.7,1.1
	s-2.6,0.4-3.9,0.4c-3.3,0-5.8-0.9-7.5-2.6s-2.6-4.3-2.6-7.6c0-3.2,0.8-5.7,2.5-7.6s4-2.8,6.9-2.8c2.9,0,5.2,0.9,6.8,2.6
	s2.4,4.2,2.4,7.3v2.1h-13.3c0,1.5,0.5,2.7,1.4,3.5s2.2,1.1,4,1.1c1.2,0,2.3-0.2,3.5-0.5s2.3-0.9,3.6-1.6V533.4z M949.5,522.3
	c0-1.4-0.4-2.4-1-3.1s-1.7-1-3-1c-1.2,0-2.1,0.4-2.8,1.1s-1.1,1.7-1.2,3.1L949.5,522.3z M975,521.6v12.8h-5.1v-12
	c0-1.4-0.2-2.5-0.6-3.1s-1.1-0.9-2-0.9c-0.9,0-1.7,0.4-2.2,1.2s-0.8,2-0.8,3.5v11.3h-5.1v-19.7h5.1v3c0.4-1.1,1-1.9,1.9-2.5
	s1.9-0.9,3.2-0.9c1.9,0,3.3,0.6,4.2,1.9S975,519.1,975,521.6z M990,509.1v5.6h6.7v4H990v9.3c0,0.9,0.2,1.5,0.6,1.9s1.1,0.6,2.1,0.6
	h4v4h-4.3c-3,0-5-0.5-6-1.4s-1.6-2.7-1.6-5.2v-9.1h-5v-4h5v-5.6H990z M1033.3,509.1v5.6h6.7v4h-6.7v9.3c0,0.9,0.2,1.5,0.6,1.9
	s1.1,0.6,2.1,0.6h4v4h-4.3c-3,0-5-0.5-6-1.4s-1.6-2.7-1.6-5.2v-9.1h-5v-4h5v-5.6H1033.3z M1062.2,533.4c-1.2,0.5-2.4,0.9-3.7,1.1
	s-2.6,0.4-3.9,0.4c-3.3,0-5.8-0.9-7.5-2.6s-2.6-4.3-2.6-7.6c0-3.2,0.8-5.7,2.5-7.6s4-2.8,6.9-2.8c2.9,0,5.2,0.9,6.8,2.6
	s2.4,4.2,2.4,7.3v2.1h-13.3c0,1.5,0.5,2.7,1.4,3.5s2.2,1.1,4,1.1c1.2,0,2.3-0.2,3.5-0.5s2.3-0.9,3.6-1.6V533.4z M1057.9,522.3
	c0-1.4-0.4-2.4-1-3.1s-1.7-1-3-1c-1.2,0-2.1,0.4-2.8,1.1s-1.1,1.7-1.2,3.1L1057.9,522.3z M1084.7,514.6l-6.6,9.4l7.2,10.3h-6
	l-3.9-6.6l-3.8,6.6h-6l7.3-10.3l-6.7-9.4h6l3.3,5.9l3.3-5.9H1084.7z M1098.3,509.1v5.6h6.7v4h-6.7v9.3c0,0.9,0.2,1.5,0.6,1.9
	s1.1,0.6,2.1,0.6h4v4h-4.3c-3,0-5-0.5-6-1.4s-1.6-2.7-1.6-5.2v-9.1h-5v-4h5v-5.6H1098.3z M1112.8,527.9h5.9v6.5h-5.9V527.9z"/>
</svg>
