<?xml version="1.0" encoding="UTF-8"?>
<svg id="Layer_1" xmlns="http://www.w3.org/2000/svg" viewBox="0 0 280 280">
   <defs>
      <linearGradient id='a' gradientUnits='objectBoundingBox' x1='0' y1='0' x2='1' y2='1'>
         <stop offset='0' stop-color='red'>
            <animate attributeName="stop-color"
               values="red;purple;blue;green;yellow;orange;red;" dur="20s" repeatCount="indefinite">
            </animate>
         </stop>
         <stop offset='.5' stop-color='purple'>
            <animate attributeName="stop-color"
               values="purple;blue;green;yellow;orange;red;purple;" dur="20s" repeatCount="indefinite">
            </animate>
         </stop>
         <stop offset='1' stop-color='blue'>
            <animate attributeName="stop-color"
               values="blue;green;yellow;orange;red;purple;blue;" dur="20s" repeatCount="indefinite">
            </animate>
         </stop>
         <animateTransform attributeName="gradientTransform" type="rotate" from="0 .5 .5" to="360 .5 .5"
           dur="20s" repeatCount="indefinite" />
      </linearGradient>
      <linearGradient id='b' gradientUnits='objectBoundingBox' x1='0' y1='1' x2='1' y2='1'>
         <stop offset='0' stop-color='red'>
            <animate attributeName="stop-color"
               values="red;purple;blue;green;yellow;orange;red;" dur="20s" repeatCount="indefinite">
            </animate>
         </stop>
         <stop offset='1' stop-color='purple' stop-opacity="0">
            <animate attributeName="stop-color"
               values="purple;blue;green;yellow;orange;red;purple;" dur="20s" repeatCount="indefinite">
            </animate>
         </stop>
        <animateTransform attributeName="gradientTransform" type="rotate" values="360 .5 .5;0 .5 .5" class="ignore"
           dur="10s" repeatCount="indefinite" />
      </linearGradient>
      <style>
         .black_border {
            stroke-width: 1px;
            stroke: #000;
            fill: none;
         }

         .cls-1, .cls-2, .cls-3 {
         stroke-width: 0px;
         }

         .cls-2 {
         fill: #ccc;
         }

         .cls-3 {
         fill: #fff;
         }
      </style>
   </defs>
      <circle cx="140" cy="140" r="140" fill='url(#a)'/>
      <circle cx="140" cy="140" r="140" fill='url(#b)'/>
      <circle cx="140" cy="140" r="140" class="black_border"/>
      <path id="black" class="cls-1" d="m95.4704,220.0818l5.1238-.0005-.0411,10.4993s-.5658,7.0621-7.1718,7.0621c-.0066-.0615.0011-.1287.0042-.194-.0032,0-.0062.0006-.0093.0006-1.2685.0091-2.4171-.3107-3.4261-.9501-1.0004-.6303-1.8007-1.5106-2.361-2.6011-.5602-1.0804-.8403-2.2909-.8403-3.5814v-7.7263l-.4279-2.3029.2062-.2062h5.132v9.9145s.1284,2.455,1.7025,2.455c-.5381.0672-1.0608.1284-1.5571.1845.0878.0815.1647.1727.2664.2423.3702.2601.7903.3702,1.3105.3702s.9504-.1201,1.3105-.3702c.3701-.2601.6403-.5902.8403-1.0304.2001-.4502.3001-.9704.3001-1.5406v-4.6745l-.548-5.3644.1859-.1859Zm36.1984,8.9443c0,2.3594-.9861,4.1119-2.3749,5.3964-.5623.6369-1.208,1.1909-1.9587,1.6365-1.0376.6208-2.1807.9648-3.39,1.059-1.0344.2492-1.9776.362-2.6653.362-.4698,0-.8757-.1252-1.2357-.3205h-2.223v-3.5464c-.0947-.3809-.134-.6353-.134-.6353l-.7078-12.5621.3359-.3359h5.7098c3.2355,0,8.6435,2.4337,8.6435,8.9464Zm-4.9352-.0808c0-3.2418-3.5499-3.7399-4.7606-3.816v7.8178c1.2108-.1234,4.7606-.76,4.7606-4.0018Zm-3.8869,3.1838l-.5112.0024v-6.529h-.2184v6.7054s1.8103.1663,2.566-.5346c-.8057.3888-1.8364.3558-1.8364.3558Zm-57.8916-12.2568h-5.1531l-.3542.3954v17.0791h11.0146l.5213-.6413v-5.1111l-6.0286-.0278v-11.6944Zm28.4264,17.5772c-.0018,0-.0035-.0003-.0052-.0003-.0016,0-.0031.0003-.0048.0003h.01Zm63.6962-8.6689c0,2.4099-1.8721,3.3138-2.7978,3.3138h-1.1302v.2086s4.4404.6747,4.3463-3.5224c0-1.9326-1.0621-2.1558-1.0621-2.1558,0,0,.6438.3171.6438,2.1558Zm58.8491-8.6993v6.7328l.2288.3879,1.0452-1.3679v5.184l-5.5911-9.4763-.1246-.0211-3.0464.02.0061-.5343,3.0403.5143.7241-1.032-.4074-.4074h-4.8931v17.1815l.3129.3129,1.097-5.5535-.0518,4.5181h3.0569v-9.4763l5.5911,9.4763h3.3428v-14.7067l.9771-1.2787-.4735-.4735h-4.8345Zm-24.0781-8.8166v-82.1019l-34.6583,48.1028,24.8121,34.6636-.2513.3512-24.8135-34.6641-.0163.0226,5.6108,9.9891v13.3714h-21.1615l-1.0059-.3648-1.0156,1.4101-6.6364,9.2002-33.7144,1.0355-.3295-.2045,24.335-33.7863,18.0078-22.9218L60.0774,42.3038v169.7531h-.4825V40.98l81.6689,114.0354,78.3433-109.4632v165.7125h-27.7584Zm-42.4623-23.6366l-20.4207-1.0452,2.4249,1.0452,9.0019,12.2432,8.9938-12.2432Zm62.9727,43.4849l3.8096,6.4626h.1447l-3.9542-6.7054v.2427Zm-33.3478-11.0367v17.2405l.4282.269h11.4781v-5.1868l-.2914-.2914h-6.0452l-.4284-.4284v-1.0663h4.6218l.0161-.0161h.2097v-.2097l.4714-.4714v-2.9944l-.2545-.2545h-4.6257v-.9733h6.3262v-5.1868l-.4469-.4254-11.4594-.0051Zm100.9888-80.076c0,77.1961-62.8036,139.9998-139.9998,139.9998S0,217.1964,0,140.0002,62.8036,0,140.0002,0s139.9998,62.8036,139.9998,140.0002Zm-2.0008,0C277.9992,63.9071,216.0934,2.0008,140.0002,2.0008S2.0008,63.9071,2.0008,140.0002s61.9063,137.999,137.9995,137.999,137.999-61.9058,137.999-137.999Zm-116.09,86.3073c.3075.8625.48,1.7689.48,2.7186,0,1.4606-.3602,2.8411-1.0905,4.0717-.7203,1.2405-1.7007,2.2309-2.9312,2.9612-1.2305.7303-2.581,1.1005-4.0316,1.1005h-4.0972c-1.3817.221-2.2907.2912-2.2267.3206l-.3124-.3124v-17.0862h5.7014c.583,0,6.9976.9238,8.5082,6.2262Zm-4.0368,3.0648c0-3.2321-3.5161-4.02-4.8669-4.2037v7.8092h.2931c1.5054-.0712,4.5739-.5859,4.5739-3.6055Z"/>
      <path id="white" class="cls-3" d="m140,278.0527c-36.8798,0-71.5409-14.3575-97.6131-40.4396C16.3048,211.531,1.9473,176.8699,1.9473,140s14.3575-71.5409,40.4396-97.6131C68.469,16.3048,103.1301,1.9473,140,1.9473s71.5409,14.3575,97.6131,40.4396c26.0722,26.0821,40.4396,60.753,40.4396,97.6131s-14.3575,71.5409-40.4396,97.6131c-26.0821,26.0722-60.753,40.4396-97.6131,40.4396m0-272.0032c-35.7754,0-69.4109,13.9335-94.714,39.2365C19.9829,70.5792,6.0495,104.2148,6.0495,140s13.9335,69.4109,39.2365,94.714c25.2932,25.3031,58.9386,39.2365,94.714,39.2365s69.4109-13.9335,94.714-39.2365c25.3031-25.2932,39.2365-58.9288,39.2365-94.714s-13.9335-69.4109-39.2365-94.714c-25.2932-25.3031-58.9386-39.2365-94.714-39.2365m-75.4147,214.2183h-5.1375v17.0791h11.0146v-5.1868h-5.8771v-11.8922h0Zm4.8368,12.702v3.1062h-8.934v-14.9984h3.0569v11.8922h5.8771Zm25.8427-2.9101c0,.5029-.0887.9368-.2465,1.3115-.1578.3451-.355.6015-.641.7987-.5522.3747-1.4496.3747-2.0018,0-.2958-.1972-.5029-.4536-.6607-.8086-.1775-.3747-.2564-.8086-.2564-1.2819v-9.7919h-5.1375v9.7919c0,1.3608.2958,2.6329.8875,3.7669.5917,1.1537,1.4397,2.0905,2.5145,2.7709,1.0847.6804,2.3173,1.0255,3.6584,1.0255,0,0,.4427.0121,1.1833-.1085s1.7158-.4536,2.4652-.9368c1.065-.6804,1.913-1.6172,2.5047-2.7611.5917-1.134.8875-2.4061.8875-3.7767v-9.7919h-5.1375v9.7919h-.0197Zm.7001,1.7355c.2268-.5029.3451-1.0946.3451-1.7355v-8.7466h3.0569v8.7466c0,1.203-.2564,2.3074-.7691,3.2935s-1.2326,1.7848-2.1398,2.3666c-.8973.5719-1.9426.8678-3.0963.8678h-.3353c-1.0058-.0493-1.9327-.3353-2.7512-.8579-.9171-.5818-1.6369-1.3805-2.1398-2.3666-.5128-.9959-.779-2.1004-.779-3.2935v-8.7565h3.0569v8.7565c0,.6311.1183,1.203.355,1.7158.2367.5325.5719.9368,1.0255,1.2425s.9664.4536,1.5777.4536,1.1439-.1479,1.5876-.4536c.4536-.3057.779-.71,1.0058-1.2326m83.4745,5.7905h11.4781v-5.1868h-6.3307v-1.3016h4.8811v-4.1962h-4.8811v-1.2076h6.3307v-5.1868h-11.4781v17.0791Zm1.0453-16.0437h9.3876v3.1062h-6.3307v3.2981h4.8811v2.1155h-4.8811v3.3823h6.3307v3.1062h-9.3876v-15.0083Zm-40.1198-67.0564L60.0774,42.2982v170.002h29.8391v-79.9226l33.251,46.1392-24.1691,33.7637h34.2568l7.1196-9.8708,7.1196,9.8708h34.2568l-24.1691-33.7637,33.251-46.149v79.9226h29.8391V42.2982l-80.2973,112.1776-.0099.0098Zm-16.5663,24.9284l5.1671,7.1689h-10.2948l5.1277-7.1689Zm8.9143,31.831h-31.6929l6.5871-9.2002h31.7422l-6.6265,9.2002h-.0099Zm-1.7158-23.6169h18.7357l-9.3679,13.0065-9.3679-13.0065Zm31.5352,0v13.3714h-21.1615l9.6341-13.3714h11.5274Zm57.0749,23.6366h-27.7584v-82.1019l-34.9273,48.4762-15.9254-22.2561,78.6111-109.8308v165.7125h0Zm-58.3617,13.3961c-.7593-1.2918-1.7848-2.337-3.0667-3.0963-1.3016-.7691-2.7216-1.1537-4.2402-1.1537h-5.9264v17.0692h5.9264c1.5284,0,2.9583-.3846,4.2402-1.1537,1.2819-.7593,2.3074-1.8045,3.0667-3.0963s1.1439-2.7413,1.1439-4.2796-.3846-2.978-1.1439-4.2796h0v-.0099Zm-.8973,8.0366c-.6705,1.1439-1.5778,2.0609-2.7019,2.7315-1.1241.6705-2.3765,1.0058-3.7077,1.0058h-4.8811v-14.9886h4.8811c1.3214,0,2.5737.3353,3.7077,1.0058,1.1241.6705,2.0313,1.5876,2.7019,2.7315.6607,1.1439,1.0058,2.4061,1.0058,3.757s-.3353,2.623-.9959,3.757m-4.2402-7.5436c-.6705-.4043-1.3805-.5917-2.1694-.5917h-1.8243v8.7959h2.3469v-.0394c.5818-.069,1.134-.2564,1.6468-.5621.6607-.3944,1.203-.9269,1.5876-1.5975.3944-.6607.5917-1.4101.5917-2.2088s-.1972-1.5284-.5917-2.199c-.3944-.6705-.9269-1.2129-1.5876-1.5975m.6903,5.4728c-.3057.5128-.7198.9269-1.2228,1.2326-.5029.2958-1.0551.4437-1.6468.4437h-.7889v-6.7054h.7889c.6015,0,1.134.1479,1.6369.4536.5128.3057.9269.7198,1.2228,1.2326.3057.5128.4437,1.065.4437,1.6665s-.1479,1.1735-.4437,1.6764m59.3573-3.4247l-3.9542-6.7054h-4.9798v17.0791h5.1375v-6.7054l3.9542,6.7054h4.9798v-17.0791h-5.1375v6.7054Zm1.0453-5.6602h3.0569v14.9984h-3.3428l-5.5911-9.4763v9.4763h-3.0569v-14.9984h3.3428l5.5911,9.4763v-9.4763Zm-86.9878,3.1239c-.7593-1.3016-1.7848-2.337-3.0667-3.0963-1.3016-.7691-2.7315-1.1537-4.2402-1.1537h-5.9264l.0099,17.0791,5.9165-.0099c1.5383,0,2.9583-.3846,4.2402-1.1537,1.2819-.7593,2.3074-1.8045,3.0667-3.0963s1.1439-2.7413,1.1439-4.2796-.3846-2.978-1.1439-4.2796h0v-.0099Zm-.8973,8.0366c-.6705,1.1439-1.5778,2.0609-2.7019,2.7315-1.1143.6705-2.3666,1.0058-3.7077,1.0058h-4.8811v-14.9886h4.8811c1.3214,0,2.5737.3353,3.7077,1.0058,1.1242.6705,2.0314,1.5876,2.7019,2.7315.6607,1.1439.9959,2.4061.9959,3.757s-.3353,2.623-.9959,3.757m-4.25-7.5436c-.6607-.3944-1.3904-.5917-2.1694-.5917h-1.8243v8.7959h2.0412v-.0099c.6903-.0296,1.3509-.2268,1.9623-.5818.6705-.3944,1.203-.9368,1.5876-1.5975.3944-.6705.5917-1.4101.5917-2.2088s-.1972-1.5284-.5917-2.199-.9269-1.2129-1.5975-1.6073m.6903,5.4827c-.2958.5029-.71.9171-1.2129,1.2228-.5029.2958-1.0551.4437-1.6369.4437h-.7889v-6.7054h.7889c.5917,0,1.1439.1479,1.6369.4536.5128.3057.9269.7198,1.2228,1.2326.3057.5128.4536,1.065.4536,1.6764s-.1479,1.1735-.4536,1.6764"/>
</svg>
